M48
; DRILL file {KiCad 7.0.1} date Thu May 30 20:12:34 2024
; FORMAT={-:-/ absolute / inch / decimal}
; #@! TF.CreationDate,2024-05-30T20:12:34+02:00
; #@! TF.GenerationSoftware,Kicad,Pcbnew,7.0.1
; #@! TF.FileFunction,Plated,1,2,PTH
FMAT,2
INCH
; #@! TA.AperFunction,Plated,PTH,ComponentDrill
T1C0.0236
; #@! TA.AperFunction,Plated,PTH,ComponentDrill
T2C0.0315
; #@! TA.AperFunction,Plated,PTH,ComponentDrill
T3C0.0598
; #@! TA.AperFunction,Plated,PTH,ComponentDrill
T4C0.1693
%
G90
G05
T1
X2.9439Y-1.9181
X2.9439Y-3.4734
X2.9811Y-1.8283
X2.9811Y-2.0079
X2.9811Y-3.3836
X2.9811Y-3.5632
X3.0709Y-1.7911
X3.0709Y-2.0451
X3.0709Y-3.3465
X3.0709Y-3.6004
X3.1606Y-1.8283
X3.1606Y-2.0079
X3.1606Y-3.3836
X3.1606Y-3.5632
X3.1978Y-1.9181
X3.1978Y-3.4734
X5.6506Y-1.9183
X5.6526Y-3.4734
X5.6878Y-1.8285
X5.6878Y-2.0081
X5.6897Y-3.3836
X5.6897Y-3.5632
X5.7776Y-1.7913
X5.7776Y-2.0453
X5.7795Y-3.3465
X5.7795Y-3.6004
X5.8673Y-1.8285
X5.8673Y-2.0081
X5.8693Y-3.3836
X5.8693Y-3.5632
X5.9045Y-1.9183
X5.9065Y-3.4734
T2
X3.3504Y-2.2323
X3.4213Y-3.0843
X3.4213Y-3.4843
X3.5205Y-1.9252
X3.5472Y-2.2323
X3.5472Y-2.4339
X3.5472Y-2.8339
X3.6535Y-3.0874
X3.6535Y-3.4874
X3.7268Y-2.5268
X3.7268Y-2.8268
X3.8268Y-2.5268
X3.8268Y-2.8268
X3.8787Y-3.4646
X3.9205Y-1.9252
X3.9213Y-2.1024
X3.9213Y-2.2992
X3.9268Y-2.5268
X3.9268Y-2.8268
X3.9646Y-3.1024
X3.9646Y-3.2717
X4.0268Y-2.5268
X4.0268Y-2.8268
X4.1543Y-1.9134
X4.1614Y-3.1024
X4.1614Y-3.2717
X4.2717Y-2.374
X4.2717Y-2.5709
X4.2787Y-3.4646
X4.5276Y-3.0756
X4.5276Y-3.4756
X4.5386Y-2.5366
X4.5386Y-2.8366
X4.5543Y-1.9134
X4.6386Y-2.5366
X4.6386Y-2.8366
X4.6614Y-2.1535
X4.6614Y-2.2992
X4.7126Y-3.0756
X4.7126Y-3.4756
X4.7386Y-2.5366
X4.7386Y-2.8366
X4.7409Y-1.9134
X4.8386Y-2.5366
X4.8386Y-2.8366
X4.8583Y-2.1535
X4.8583Y-2.2992
X5.0835Y-3.1378
X5.0835Y-3.315
X5.1409Y-1.9134
X5.1646Y-2.5346
X5.1646Y-2.8346
X5.2646Y-2.5346
X5.2646Y-2.8346
X5.3504Y-1.9134
X5.3504Y-2.1102
X5.3646Y-2.5346
X5.3646Y-2.8346
X5.4646Y-2.5346
X5.4646Y-2.8346
X5.4835Y-3.1378
X5.4835Y-3.315
T3
X3.0709Y-2.2606
X3.0709Y-2.4606
X3.0709Y-2.6606
X3.0709Y-2.9315
X3.0709Y-3.1315
X5.7874Y-2.3606
X5.7874Y-2.5606
T4
X3.0709Y-1.9181
X3.0709Y-3.4734
X5.7776Y-1.9183
X5.7795Y-3.4734
T0
M30
