%TF.GenerationSoftware,KiCad,Pcbnew,7.0.1*%
%TF.CreationDate,2024-05-30T20:12:37+02:00*%
%TF.ProjectId,Butterworth,42757474-6572-4776-9f72-74682e6b6963,rev?*%
%TF.SameCoordinates,Original*%
%TF.FileFunction,Legend,Top*%
%TF.FilePolarity,Positive*%
%FSLAX46Y46*%
G04 Gerber Fmt 4.6, Leading zero omitted, Abs format (unit mm)*
G04 Created by KiCad (PCBNEW 7.0.1) date 2024-05-30 20:12:37*
%MOMM*%
%LPD*%
G01*
G04 APERTURE LIST*
%ADD10C,0.150000*%
%ADD11C,0.300000*%
%ADD12C,0.120000*%
G04 APERTURE END LIST*
D10*
X82522380Y-60738095D02*
X83522380Y-60738095D01*
X83522380Y-60738095D02*
X83522380Y-61119047D01*
X83522380Y-61119047D02*
X83474761Y-61214285D01*
X83474761Y-61214285D02*
X83427142Y-61261904D01*
X83427142Y-61261904D02*
X83331904Y-61309523D01*
X83331904Y-61309523D02*
X83189047Y-61309523D01*
X83189047Y-61309523D02*
X83093809Y-61261904D01*
X83093809Y-61261904D02*
X83046190Y-61214285D01*
X83046190Y-61214285D02*
X82998571Y-61119047D01*
X82998571Y-61119047D02*
X82998571Y-60738095D01*
X82570000Y-61690476D02*
X82522380Y-61833333D01*
X82522380Y-61833333D02*
X82522380Y-62071428D01*
X82522380Y-62071428D02*
X82570000Y-62166666D01*
X82570000Y-62166666D02*
X82617619Y-62214285D01*
X82617619Y-62214285D02*
X82712857Y-62261904D01*
X82712857Y-62261904D02*
X82808095Y-62261904D01*
X82808095Y-62261904D02*
X82903333Y-62214285D01*
X82903333Y-62214285D02*
X82950952Y-62166666D01*
X82950952Y-62166666D02*
X82998571Y-62071428D01*
X82998571Y-62071428D02*
X83046190Y-61880952D01*
X83046190Y-61880952D02*
X83093809Y-61785714D01*
X83093809Y-61785714D02*
X83141428Y-61738095D01*
X83141428Y-61738095D02*
X83236666Y-61690476D01*
X83236666Y-61690476D02*
X83331904Y-61690476D01*
X83331904Y-61690476D02*
X83427142Y-61738095D01*
X83427142Y-61738095D02*
X83474761Y-61785714D01*
X83474761Y-61785714D02*
X83522380Y-61880952D01*
X83522380Y-61880952D02*
X83522380Y-62119047D01*
X83522380Y-62119047D02*
X83474761Y-62261904D01*
X82522380Y-63452381D02*
X83522380Y-63452381D01*
X82522380Y-63928571D02*
X83522380Y-63928571D01*
X83522380Y-63928571D02*
X82522380Y-64499999D01*
X82522380Y-64499999D02*
X83522380Y-64499999D01*
X82722380Y-76638095D02*
X83722380Y-76638095D01*
X82722380Y-77114285D02*
X83722380Y-77114285D01*
X83722380Y-77114285D02*
X82722380Y-77685713D01*
X82722380Y-77685713D02*
X83722380Y-77685713D01*
X141477619Y-62971428D02*
X141477619Y-62780952D01*
X141477619Y-62780952D02*
X141525238Y-62685714D01*
X141525238Y-62685714D02*
X141620476Y-62590476D01*
X141620476Y-62590476D02*
X141810952Y-62542857D01*
X141810952Y-62542857D02*
X142144285Y-62542857D01*
X142144285Y-62542857D02*
X142334761Y-62590476D01*
X142334761Y-62590476D02*
X142430000Y-62685714D01*
X142430000Y-62685714D02*
X142477619Y-62780952D01*
X142477619Y-62780952D02*
X142477619Y-62971428D01*
X142477619Y-62971428D02*
X142430000Y-63066666D01*
X142430000Y-63066666D02*
X142334761Y-63161904D01*
X142334761Y-63161904D02*
X142144285Y-63209523D01*
X142144285Y-63209523D02*
X141810952Y-63209523D01*
X141810952Y-63209523D02*
X141620476Y-63161904D01*
X141620476Y-63161904D02*
X141525238Y-63066666D01*
X141525238Y-63066666D02*
X141477619Y-62971428D01*
X141477619Y-62114285D02*
X142287142Y-62114285D01*
X142287142Y-62114285D02*
X142382380Y-62066666D01*
X142382380Y-62066666D02*
X142430000Y-62019047D01*
X142430000Y-62019047D02*
X142477619Y-61923809D01*
X142477619Y-61923809D02*
X142477619Y-61733333D01*
X142477619Y-61733333D02*
X142430000Y-61638095D01*
X142430000Y-61638095D02*
X142382380Y-61590476D01*
X142382380Y-61590476D02*
X142287142Y-61542857D01*
X142287142Y-61542857D02*
X141477619Y-61542857D01*
X141477619Y-61209523D02*
X141477619Y-60638095D01*
X142477619Y-60923809D02*
X141477619Y-60923809D01*
D11*
X122357142Y-91030714D02*
X122571428Y-91102142D01*
X122571428Y-91102142D02*
X122642857Y-91173571D01*
X122642857Y-91173571D02*
X122714285Y-91316428D01*
X122714285Y-91316428D02*
X122714285Y-91530714D01*
X122714285Y-91530714D02*
X122642857Y-91673571D01*
X122642857Y-91673571D02*
X122571428Y-91745000D01*
X122571428Y-91745000D02*
X122428571Y-91816428D01*
X122428571Y-91816428D02*
X121857142Y-91816428D01*
X121857142Y-91816428D02*
X121857142Y-90316428D01*
X121857142Y-90316428D02*
X122357142Y-90316428D01*
X122357142Y-90316428D02*
X122500000Y-90387857D01*
X122500000Y-90387857D02*
X122571428Y-90459285D01*
X122571428Y-90459285D02*
X122642857Y-90602142D01*
X122642857Y-90602142D02*
X122642857Y-90745000D01*
X122642857Y-90745000D02*
X122571428Y-90887857D01*
X122571428Y-90887857D02*
X122500000Y-90959285D01*
X122500000Y-90959285D02*
X122357142Y-91030714D01*
X122357142Y-91030714D02*
X121857142Y-91030714D01*
X124000000Y-90816428D02*
X124000000Y-91816428D01*
X123357142Y-90816428D02*
X123357142Y-91602142D01*
X123357142Y-91602142D02*
X123428571Y-91745000D01*
X123428571Y-91745000D02*
X123571428Y-91816428D01*
X123571428Y-91816428D02*
X123785714Y-91816428D01*
X123785714Y-91816428D02*
X123928571Y-91745000D01*
X123928571Y-91745000D02*
X124000000Y-91673571D01*
X124500000Y-90816428D02*
X125071428Y-90816428D01*
X124714285Y-90316428D02*
X124714285Y-91602142D01*
X124714285Y-91602142D02*
X124785714Y-91745000D01*
X124785714Y-91745000D02*
X124928571Y-91816428D01*
X124928571Y-91816428D02*
X125071428Y-91816428D01*
X125357143Y-90816428D02*
X125928571Y-90816428D01*
X125571428Y-90316428D02*
X125571428Y-91602142D01*
X125571428Y-91602142D02*
X125642857Y-91745000D01*
X125642857Y-91745000D02*
X125785714Y-91816428D01*
X125785714Y-91816428D02*
X125928571Y-91816428D01*
X127000000Y-91745000D02*
X126857143Y-91816428D01*
X126857143Y-91816428D02*
X126571429Y-91816428D01*
X126571429Y-91816428D02*
X126428571Y-91745000D01*
X126428571Y-91745000D02*
X126357143Y-91602142D01*
X126357143Y-91602142D02*
X126357143Y-91030714D01*
X126357143Y-91030714D02*
X126428571Y-90887857D01*
X126428571Y-90887857D02*
X126571429Y-90816428D01*
X126571429Y-90816428D02*
X126857143Y-90816428D01*
X126857143Y-90816428D02*
X127000000Y-90887857D01*
X127000000Y-90887857D02*
X127071429Y-91030714D01*
X127071429Y-91030714D02*
X127071429Y-91173571D01*
X127071429Y-91173571D02*
X126357143Y-91316428D01*
X127714285Y-91816428D02*
X127714285Y-90816428D01*
X127714285Y-91102142D02*
X127785714Y-90959285D01*
X127785714Y-90959285D02*
X127857143Y-90887857D01*
X127857143Y-90887857D02*
X128000000Y-90816428D01*
X128000000Y-90816428D02*
X128142857Y-90816428D01*
X128499999Y-90816428D02*
X128785714Y-91816428D01*
X128785714Y-91816428D02*
X129071428Y-91102142D01*
X129071428Y-91102142D02*
X129357142Y-91816428D01*
X129357142Y-91816428D02*
X129642856Y-90816428D01*
X130428571Y-91816428D02*
X130285714Y-91745000D01*
X130285714Y-91745000D02*
X130214285Y-91673571D01*
X130214285Y-91673571D02*
X130142857Y-91530714D01*
X130142857Y-91530714D02*
X130142857Y-91102142D01*
X130142857Y-91102142D02*
X130214285Y-90959285D01*
X130214285Y-90959285D02*
X130285714Y-90887857D01*
X130285714Y-90887857D02*
X130428571Y-90816428D01*
X130428571Y-90816428D02*
X130642857Y-90816428D01*
X130642857Y-90816428D02*
X130785714Y-90887857D01*
X130785714Y-90887857D02*
X130857143Y-90959285D01*
X130857143Y-90959285D02*
X130928571Y-91102142D01*
X130928571Y-91102142D02*
X130928571Y-91530714D01*
X130928571Y-91530714D02*
X130857143Y-91673571D01*
X130857143Y-91673571D02*
X130785714Y-91745000D01*
X130785714Y-91745000D02*
X130642857Y-91816428D01*
X130642857Y-91816428D02*
X130428571Y-91816428D01*
X131571428Y-91816428D02*
X131571428Y-90816428D01*
X131571428Y-91102142D02*
X131642857Y-90959285D01*
X131642857Y-90959285D02*
X131714286Y-90887857D01*
X131714286Y-90887857D02*
X131857143Y-90816428D01*
X131857143Y-90816428D02*
X132000000Y-90816428D01*
X132285714Y-90816428D02*
X132857142Y-90816428D01*
X132499999Y-90316428D02*
X132499999Y-91602142D01*
X132499999Y-91602142D02*
X132571428Y-91745000D01*
X132571428Y-91745000D02*
X132714285Y-91816428D01*
X132714285Y-91816428D02*
X132857142Y-91816428D01*
X133357142Y-91816428D02*
X133357142Y-90316428D01*
X134000000Y-91816428D02*
X134000000Y-91030714D01*
X134000000Y-91030714D02*
X133928571Y-90887857D01*
X133928571Y-90887857D02*
X133785714Y-90816428D01*
X133785714Y-90816428D02*
X133571428Y-90816428D01*
X133571428Y-90816428D02*
X133428571Y-90887857D01*
X133428571Y-90887857D02*
X133357142Y-90959285D01*
X136357142Y-91030714D02*
X135857142Y-91030714D01*
X135857142Y-91816428D02*
X135857142Y-90316428D01*
X135857142Y-90316428D02*
X136571428Y-90316428D01*
X137142856Y-91816428D02*
X137142856Y-90816428D01*
X137142856Y-90316428D02*
X137071428Y-90387857D01*
X137071428Y-90387857D02*
X137142856Y-90459285D01*
X137142856Y-90459285D02*
X137214285Y-90387857D01*
X137214285Y-90387857D02*
X137142856Y-90316428D01*
X137142856Y-90316428D02*
X137142856Y-90459285D01*
X138071428Y-91816428D02*
X137928571Y-91745000D01*
X137928571Y-91745000D02*
X137857142Y-91602142D01*
X137857142Y-91602142D02*
X137857142Y-90316428D01*
X138428571Y-90816428D02*
X138999999Y-90816428D01*
X138642856Y-90316428D02*
X138642856Y-91602142D01*
X138642856Y-91602142D02*
X138714285Y-91745000D01*
X138714285Y-91745000D02*
X138857142Y-91816428D01*
X138857142Y-91816428D02*
X138999999Y-91816428D01*
X140071428Y-91745000D02*
X139928571Y-91816428D01*
X139928571Y-91816428D02*
X139642857Y-91816428D01*
X139642857Y-91816428D02*
X139499999Y-91745000D01*
X139499999Y-91745000D02*
X139428571Y-91602142D01*
X139428571Y-91602142D02*
X139428571Y-91030714D01*
X139428571Y-91030714D02*
X139499999Y-90887857D01*
X139499999Y-90887857D02*
X139642857Y-90816428D01*
X139642857Y-90816428D02*
X139928571Y-90816428D01*
X139928571Y-90816428D02*
X140071428Y-90887857D01*
X140071428Y-90887857D02*
X140142857Y-91030714D01*
X140142857Y-91030714D02*
X140142857Y-91173571D01*
X140142857Y-91173571D02*
X139428571Y-91316428D01*
X140785713Y-91816428D02*
X140785713Y-90816428D01*
X140785713Y-91102142D02*
X140857142Y-90959285D01*
X140857142Y-90959285D02*
X140928571Y-90887857D01*
X140928571Y-90887857D02*
X141071428Y-90816428D01*
X141071428Y-90816428D02*
X141214285Y-90816428D01*
D10*
%TO.C,C3*%
X92367380Y-56966666D02*
X92415000Y-57014285D01*
X92415000Y-57014285D02*
X92462619Y-57157142D01*
X92462619Y-57157142D02*
X92462619Y-57252380D01*
X92462619Y-57252380D02*
X92415000Y-57395237D01*
X92415000Y-57395237D02*
X92319761Y-57490475D01*
X92319761Y-57490475D02*
X92224523Y-57538094D01*
X92224523Y-57538094D02*
X92034047Y-57585713D01*
X92034047Y-57585713D02*
X91891190Y-57585713D01*
X91891190Y-57585713D02*
X91700714Y-57538094D01*
X91700714Y-57538094D02*
X91605476Y-57490475D01*
X91605476Y-57490475D02*
X91510238Y-57395237D01*
X91510238Y-57395237D02*
X91462619Y-57252380D01*
X91462619Y-57252380D02*
X91462619Y-57157142D01*
X91462619Y-57157142D02*
X91510238Y-57014285D01*
X91510238Y-57014285D02*
X91557857Y-56966666D01*
X91462619Y-56633332D02*
X91462619Y-56014285D01*
X91462619Y-56014285D02*
X91843571Y-56347618D01*
X91843571Y-56347618D02*
X91843571Y-56204761D01*
X91843571Y-56204761D02*
X91891190Y-56109523D01*
X91891190Y-56109523D02*
X91938809Y-56061904D01*
X91938809Y-56061904D02*
X92034047Y-56014285D01*
X92034047Y-56014285D02*
X92272142Y-56014285D01*
X92272142Y-56014285D02*
X92367380Y-56061904D01*
X92367380Y-56061904D02*
X92415000Y-56109523D01*
X92415000Y-56109523D02*
X92462619Y-56204761D01*
X92462619Y-56204761D02*
X92462619Y-56490475D01*
X92462619Y-56490475D02*
X92415000Y-56585713D01*
X92415000Y-56585713D02*
X92367380Y-56633332D01*
X86928570Y-57162619D02*
X86585713Y-57162619D01*
X86757142Y-57162619D02*
X86757142Y-56162619D01*
X86757142Y-56162619D02*
X86699999Y-56305476D01*
X86699999Y-56305476D02*
X86642856Y-56400714D01*
X86642856Y-56400714D02*
X86585713Y-56448333D01*
X87299999Y-56162619D02*
X87357142Y-56162619D01*
X87357142Y-56162619D02*
X87414285Y-56210238D01*
X87414285Y-56210238D02*
X87442857Y-56257857D01*
X87442857Y-56257857D02*
X87471428Y-56353095D01*
X87471428Y-56353095D02*
X87499999Y-56543571D01*
X87499999Y-56543571D02*
X87499999Y-56781666D01*
X87499999Y-56781666D02*
X87471428Y-56972142D01*
X87471428Y-56972142D02*
X87442857Y-57067380D01*
X87442857Y-57067380D02*
X87414285Y-57115000D01*
X87414285Y-57115000D02*
X87357142Y-57162619D01*
X87357142Y-57162619D02*
X87299999Y-57162619D01*
X87299999Y-57162619D02*
X87242857Y-57115000D01*
X87242857Y-57115000D02*
X87214285Y-57067380D01*
X87214285Y-57067380D02*
X87185714Y-56972142D01*
X87185714Y-56972142D02*
X87157142Y-56781666D01*
X87157142Y-56781666D02*
X87157142Y-56543571D01*
X87157142Y-56543571D02*
X87185714Y-56353095D01*
X87185714Y-56353095D02*
X87214285Y-56257857D01*
X87214285Y-56257857D02*
X87242857Y-56210238D01*
X87242857Y-56210238D02*
X87299999Y-56162619D01*
X87871428Y-56162619D02*
X87928571Y-56162619D01*
X87928571Y-56162619D02*
X87985714Y-56210238D01*
X87985714Y-56210238D02*
X88014286Y-56257857D01*
X88014286Y-56257857D02*
X88042857Y-56353095D01*
X88042857Y-56353095D02*
X88071428Y-56543571D01*
X88071428Y-56543571D02*
X88071428Y-56781666D01*
X88071428Y-56781666D02*
X88042857Y-56972142D01*
X88042857Y-56972142D02*
X88014286Y-57067380D01*
X88014286Y-57067380D02*
X87985714Y-57115000D01*
X87985714Y-57115000D02*
X87928571Y-57162619D01*
X87928571Y-57162619D02*
X87871428Y-57162619D01*
X87871428Y-57162619D02*
X87814286Y-57115000D01*
X87814286Y-57115000D02*
X87785714Y-57067380D01*
X87785714Y-57067380D02*
X87757143Y-56972142D01*
X87757143Y-56972142D02*
X87728571Y-56781666D01*
X87728571Y-56781666D02*
X87728571Y-56543571D01*
X87728571Y-56543571D02*
X87757143Y-56353095D01*
X87757143Y-56353095D02*
X87785714Y-56257857D01*
X87785714Y-56257857D02*
X87814286Y-56210238D01*
X87814286Y-56210238D02*
X87871428Y-56162619D01*
X88328572Y-56495952D02*
X88328572Y-57495952D01*
X88328572Y-56543571D02*
X88385715Y-56495952D01*
X88385715Y-56495952D02*
X88500000Y-56495952D01*
X88500000Y-56495952D02*
X88557143Y-56543571D01*
X88557143Y-56543571D02*
X88585715Y-56591190D01*
X88585715Y-56591190D02*
X88614286Y-56686428D01*
X88614286Y-56686428D02*
X88614286Y-56972142D01*
X88614286Y-56972142D02*
X88585715Y-57067380D01*
X88585715Y-57067380D02*
X88557143Y-57115000D01*
X88557143Y-57115000D02*
X88500000Y-57162619D01*
X88500000Y-57162619D02*
X88385715Y-57162619D01*
X88385715Y-57162619D02*
X88328572Y-57115000D01*
%TO.C,C4*%
X99533333Y-60567380D02*
X99485714Y-60615000D01*
X99485714Y-60615000D02*
X99342857Y-60662619D01*
X99342857Y-60662619D02*
X99247619Y-60662619D01*
X99247619Y-60662619D02*
X99104762Y-60615000D01*
X99104762Y-60615000D02*
X99009524Y-60519761D01*
X99009524Y-60519761D02*
X98961905Y-60424523D01*
X98961905Y-60424523D02*
X98914286Y-60234047D01*
X98914286Y-60234047D02*
X98914286Y-60091190D01*
X98914286Y-60091190D02*
X98961905Y-59900714D01*
X98961905Y-59900714D02*
X99009524Y-59805476D01*
X99009524Y-59805476D02*
X99104762Y-59710238D01*
X99104762Y-59710238D02*
X99247619Y-59662619D01*
X99247619Y-59662619D02*
X99342857Y-59662619D01*
X99342857Y-59662619D02*
X99485714Y-59710238D01*
X99485714Y-59710238D02*
X99533333Y-59757857D01*
X100390476Y-59995952D02*
X100390476Y-60662619D01*
X100152381Y-59615000D02*
X99914286Y-60329285D01*
X99914286Y-60329285D02*
X100533333Y-60329285D01*
X99491190Y-56719048D02*
X99443571Y-56795238D01*
X99443571Y-56795238D02*
X99395952Y-56833333D01*
X99395952Y-56833333D02*
X99300714Y-56871429D01*
X99300714Y-56871429D02*
X99253095Y-56871429D01*
X99253095Y-56871429D02*
X99157857Y-56833333D01*
X99157857Y-56833333D02*
X99110238Y-56795238D01*
X99110238Y-56795238D02*
X99062619Y-56719048D01*
X99062619Y-56719048D02*
X99062619Y-56566667D01*
X99062619Y-56566667D02*
X99110238Y-56490476D01*
X99110238Y-56490476D02*
X99157857Y-56452381D01*
X99157857Y-56452381D02*
X99253095Y-56414286D01*
X99253095Y-56414286D02*
X99300714Y-56414286D01*
X99300714Y-56414286D02*
X99395952Y-56452381D01*
X99395952Y-56452381D02*
X99443571Y-56490476D01*
X99443571Y-56490476D02*
X99491190Y-56566667D01*
X99491190Y-56566667D02*
X99491190Y-56719048D01*
X99491190Y-56719048D02*
X99538809Y-56795238D01*
X99538809Y-56795238D02*
X99586428Y-56833333D01*
X99586428Y-56833333D02*
X99681666Y-56871429D01*
X99681666Y-56871429D02*
X99872142Y-56871429D01*
X99872142Y-56871429D02*
X99967380Y-56833333D01*
X99967380Y-56833333D02*
X100015000Y-56795238D01*
X100015000Y-56795238D02*
X100062619Y-56719048D01*
X100062619Y-56719048D02*
X100062619Y-56566667D01*
X100062619Y-56566667D02*
X100015000Y-56490476D01*
X100015000Y-56490476D02*
X99967380Y-56452381D01*
X99967380Y-56452381D02*
X99872142Y-56414286D01*
X99872142Y-56414286D02*
X99681666Y-56414286D01*
X99681666Y-56414286D02*
X99586428Y-56452381D01*
X99586428Y-56452381D02*
X99538809Y-56490476D01*
X99538809Y-56490476D02*
X99491190Y-56566667D01*
X100062619Y-55652381D02*
X100062619Y-56109524D01*
X100062619Y-55880952D02*
X99062619Y-55880952D01*
X99062619Y-55880952D02*
X99205476Y-55957143D01*
X99205476Y-55957143D02*
X99300714Y-56033333D01*
X99300714Y-56033333D02*
X99348333Y-56109524D01*
X99395952Y-55309523D02*
X100395952Y-55309523D01*
X99443571Y-55309523D02*
X99395952Y-55233333D01*
X99395952Y-55233333D02*
X99395952Y-55080952D01*
X99395952Y-55080952D02*
X99443571Y-55004761D01*
X99443571Y-55004761D02*
X99491190Y-54966666D01*
X99491190Y-54966666D02*
X99586428Y-54928571D01*
X99586428Y-54928571D02*
X99872142Y-54928571D01*
X99872142Y-54928571D02*
X99967380Y-54966666D01*
X99967380Y-54966666D02*
X100015000Y-55004761D01*
X100015000Y-55004761D02*
X100062619Y-55080952D01*
X100062619Y-55080952D02*
X100062619Y-55233333D01*
X100062619Y-55233333D02*
X100015000Y-55309523D01*
%TO.C,C7*%
X116033333Y-55317380D02*
X115985714Y-55365000D01*
X115985714Y-55365000D02*
X115842857Y-55412619D01*
X115842857Y-55412619D02*
X115747619Y-55412619D01*
X115747619Y-55412619D02*
X115604762Y-55365000D01*
X115604762Y-55365000D02*
X115509524Y-55269761D01*
X115509524Y-55269761D02*
X115461905Y-55174523D01*
X115461905Y-55174523D02*
X115414286Y-54984047D01*
X115414286Y-54984047D02*
X115414286Y-54841190D01*
X115414286Y-54841190D02*
X115461905Y-54650714D01*
X115461905Y-54650714D02*
X115509524Y-54555476D01*
X115509524Y-54555476D02*
X115604762Y-54460238D01*
X115604762Y-54460238D02*
X115747619Y-54412619D01*
X115747619Y-54412619D02*
X115842857Y-54412619D01*
X115842857Y-54412619D02*
X115985714Y-54460238D01*
X115985714Y-54460238D02*
X116033333Y-54507857D01*
X116366667Y-54412619D02*
X117033333Y-54412619D01*
X117033333Y-54412619D02*
X116604762Y-55412619D01*
X119883333Y-54257857D02*
X119916666Y-54210238D01*
X119916666Y-54210238D02*
X119983333Y-54162619D01*
X119983333Y-54162619D02*
X120150000Y-54162619D01*
X120150000Y-54162619D02*
X120216666Y-54210238D01*
X120216666Y-54210238D02*
X120250000Y-54257857D01*
X120250000Y-54257857D02*
X120283333Y-54353095D01*
X120283333Y-54353095D02*
X120283333Y-54448333D01*
X120283333Y-54448333D02*
X120250000Y-54591190D01*
X120250000Y-54591190D02*
X119850000Y-55162619D01*
X119850000Y-55162619D02*
X120283333Y-55162619D01*
X120583333Y-55067380D02*
X120616667Y-55115000D01*
X120616667Y-55115000D02*
X120583333Y-55162619D01*
X120583333Y-55162619D02*
X120550000Y-55115000D01*
X120550000Y-55115000D02*
X120583333Y-55067380D01*
X120583333Y-55067380D02*
X120583333Y-55162619D01*
X120883333Y-54257857D02*
X120916666Y-54210238D01*
X120916666Y-54210238D02*
X120983333Y-54162619D01*
X120983333Y-54162619D02*
X121150000Y-54162619D01*
X121150000Y-54162619D02*
X121216666Y-54210238D01*
X121216666Y-54210238D02*
X121250000Y-54257857D01*
X121250000Y-54257857D02*
X121283333Y-54353095D01*
X121283333Y-54353095D02*
X121283333Y-54448333D01*
X121283333Y-54448333D02*
X121250000Y-54591190D01*
X121250000Y-54591190D02*
X120850000Y-55162619D01*
X120850000Y-55162619D02*
X121283333Y-55162619D01*
X121583333Y-54495952D02*
X121583333Y-55162619D01*
X121583333Y-54591190D02*
X121616667Y-54543571D01*
X121616667Y-54543571D02*
X121683333Y-54495952D01*
X121683333Y-54495952D02*
X121783333Y-54495952D01*
X121783333Y-54495952D02*
X121850000Y-54543571D01*
X121850000Y-54543571D02*
X121883333Y-54638809D01*
X121883333Y-54638809D02*
X121883333Y-55162619D01*
%TO.C,R5*%
X94333333Y-46962619D02*
X94000000Y-46486428D01*
X93761905Y-46962619D02*
X93761905Y-45962619D01*
X93761905Y-45962619D02*
X94142857Y-45962619D01*
X94142857Y-45962619D02*
X94238095Y-46010238D01*
X94238095Y-46010238D02*
X94285714Y-46057857D01*
X94285714Y-46057857D02*
X94333333Y-46153095D01*
X94333333Y-46153095D02*
X94333333Y-46295952D01*
X94333333Y-46295952D02*
X94285714Y-46391190D01*
X94285714Y-46391190D02*
X94238095Y-46438809D01*
X94238095Y-46438809D02*
X94142857Y-46486428D01*
X94142857Y-46486428D02*
X93761905Y-46486428D01*
X95238095Y-45962619D02*
X94761905Y-45962619D01*
X94761905Y-45962619D02*
X94714286Y-46438809D01*
X94714286Y-46438809D02*
X94761905Y-46391190D01*
X94761905Y-46391190D02*
X94857143Y-46343571D01*
X94857143Y-46343571D02*
X95095238Y-46343571D01*
X95095238Y-46343571D02*
X95190476Y-46391190D01*
X95190476Y-46391190D02*
X95238095Y-46438809D01*
X95238095Y-46438809D02*
X95285714Y-46534047D01*
X95285714Y-46534047D02*
X95285714Y-46772142D01*
X95285714Y-46772142D02*
X95238095Y-46867380D01*
X95238095Y-46867380D02*
X95190476Y-46915000D01*
X95190476Y-46915000D02*
X95095238Y-46962619D01*
X95095238Y-46962619D02*
X94857143Y-46962619D01*
X94857143Y-46962619D02*
X94761905Y-46915000D01*
X94761905Y-46915000D02*
X94714286Y-46867380D01*
X93559523Y-48695952D02*
X93559523Y-49362619D01*
X93321428Y-48315000D02*
X93083333Y-49029285D01*
X93083333Y-49029285D02*
X93702380Y-49029285D01*
X93988095Y-48362619D02*
X94607142Y-48362619D01*
X94607142Y-48362619D02*
X94273809Y-48743571D01*
X94273809Y-48743571D02*
X94416666Y-48743571D01*
X94416666Y-48743571D02*
X94511904Y-48791190D01*
X94511904Y-48791190D02*
X94559523Y-48838809D01*
X94559523Y-48838809D02*
X94607142Y-48934047D01*
X94607142Y-48934047D02*
X94607142Y-49172142D01*
X94607142Y-49172142D02*
X94559523Y-49267380D01*
X94559523Y-49267380D02*
X94511904Y-49315000D01*
X94511904Y-49315000D02*
X94416666Y-49362619D01*
X94416666Y-49362619D02*
X94130952Y-49362619D01*
X94130952Y-49362619D02*
X94035714Y-49315000D01*
X94035714Y-49315000D02*
X93988095Y-49267380D01*
X95035714Y-49362619D02*
X95035714Y-48362619D01*
X95130952Y-48981666D02*
X95416666Y-49362619D01*
X95416666Y-48695952D02*
X95035714Y-49076904D01*
%TO.C,R11*%
X125557142Y-84462619D02*
X125223809Y-83986428D01*
X124985714Y-84462619D02*
X124985714Y-83462619D01*
X124985714Y-83462619D02*
X125366666Y-83462619D01*
X125366666Y-83462619D02*
X125461904Y-83510238D01*
X125461904Y-83510238D02*
X125509523Y-83557857D01*
X125509523Y-83557857D02*
X125557142Y-83653095D01*
X125557142Y-83653095D02*
X125557142Y-83795952D01*
X125557142Y-83795952D02*
X125509523Y-83891190D01*
X125509523Y-83891190D02*
X125461904Y-83938809D01*
X125461904Y-83938809D02*
X125366666Y-83986428D01*
X125366666Y-83986428D02*
X124985714Y-83986428D01*
X126509523Y-84462619D02*
X125938095Y-84462619D01*
X126223809Y-84462619D02*
X126223809Y-83462619D01*
X126223809Y-83462619D02*
X126128571Y-83605476D01*
X126128571Y-83605476D02*
X126033333Y-83700714D01*
X126033333Y-83700714D02*
X125938095Y-83748333D01*
X127461904Y-84462619D02*
X126890476Y-84462619D01*
X127176190Y-84462619D02*
X127176190Y-83462619D01*
X127176190Y-83462619D02*
X127080952Y-83605476D01*
X127080952Y-83605476D02*
X126985714Y-83700714D01*
X126985714Y-83700714D02*
X126890476Y-83748333D01*
X133604761Y-84662619D02*
X133033333Y-84662619D01*
X133319047Y-84662619D02*
X133319047Y-83662619D01*
X133319047Y-83662619D02*
X133223809Y-83805476D01*
X133223809Y-83805476D02*
X133128571Y-83900714D01*
X133128571Y-83900714D02*
X133033333Y-83948333D01*
X134223809Y-83662619D02*
X134319047Y-83662619D01*
X134319047Y-83662619D02*
X134414285Y-83710238D01*
X134414285Y-83710238D02*
X134461904Y-83757857D01*
X134461904Y-83757857D02*
X134509523Y-83853095D01*
X134509523Y-83853095D02*
X134557142Y-84043571D01*
X134557142Y-84043571D02*
X134557142Y-84281666D01*
X134557142Y-84281666D02*
X134509523Y-84472142D01*
X134509523Y-84472142D02*
X134461904Y-84567380D01*
X134461904Y-84567380D02*
X134414285Y-84615000D01*
X134414285Y-84615000D02*
X134319047Y-84662619D01*
X134319047Y-84662619D02*
X134223809Y-84662619D01*
X134223809Y-84662619D02*
X134128571Y-84615000D01*
X134128571Y-84615000D02*
X134080952Y-84567380D01*
X134080952Y-84567380D02*
X134033333Y-84472142D01*
X134033333Y-84472142D02*
X133985714Y-84281666D01*
X133985714Y-84281666D02*
X133985714Y-84043571D01*
X133985714Y-84043571D02*
X134033333Y-83853095D01*
X134033333Y-83853095D02*
X134080952Y-83757857D01*
X134080952Y-83757857D02*
X134128571Y-83710238D01*
X134128571Y-83710238D02*
X134223809Y-83662619D01*
X134985714Y-84662619D02*
X134985714Y-83662619D01*
X135080952Y-84281666D02*
X135366666Y-84662619D01*
X135366666Y-83995952D02*
X134985714Y-84376904D01*
%TO.C,U2*%
X118518095Y-74142619D02*
X118518095Y-74952142D01*
X118518095Y-74952142D02*
X118565714Y-75047380D01*
X118565714Y-75047380D02*
X118613333Y-75095000D01*
X118613333Y-75095000D02*
X118708571Y-75142619D01*
X118708571Y-75142619D02*
X118899047Y-75142619D01*
X118899047Y-75142619D02*
X118994285Y-75095000D01*
X118994285Y-75095000D02*
X119041904Y-75047380D01*
X119041904Y-75047380D02*
X119089523Y-74952142D01*
X119089523Y-74952142D02*
X119089523Y-74142619D01*
X119518095Y-74237857D02*
X119565714Y-74190238D01*
X119565714Y-74190238D02*
X119660952Y-74142619D01*
X119660952Y-74142619D02*
X119899047Y-74142619D01*
X119899047Y-74142619D02*
X119994285Y-74190238D01*
X119994285Y-74190238D02*
X120041904Y-74237857D01*
X120041904Y-74237857D02*
X120089523Y-74333095D01*
X120089523Y-74333095D02*
X120089523Y-74428333D01*
X120089523Y-74428333D02*
X120041904Y-74571190D01*
X120041904Y-74571190D02*
X119470476Y-75142619D01*
X119470476Y-75142619D02*
X120089523Y-75142619D01*
X117380952Y-67702619D02*
X117952380Y-67702619D01*
X117666666Y-68702619D02*
X117666666Y-67702619D01*
X118761904Y-68702619D02*
X118285714Y-68702619D01*
X118285714Y-68702619D02*
X118285714Y-67702619D01*
X119285714Y-67702619D02*
X119380952Y-67702619D01*
X119380952Y-67702619D02*
X119476190Y-67750238D01*
X119476190Y-67750238D02*
X119523809Y-67797857D01*
X119523809Y-67797857D02*
X119571428Y-67893095D01*
X119571428Y-67893095D02*
X119619047Y-68083571D01*
X119619047Y-68083571D02*
X119619047Y-68321666D01*
X119619047Y-68321666D02*
X119571428Y-68512142D01*
X119571428Y-68512142D02*
X119523809Y-68607380D01*
X119523809Y-68607380D02*
X119476190Y-68655000D01*
X119476190Y-68655000D02*
X119380952Y-68702619D01*
X119380952Y-68702619D02*
X119285714Y-68702619D01*
X119285714Y-68702619D02*
X119190476Y-68655000D01*
X119190476Y-68655000D02*
X119142857Y-68607380D01*
X119142857Y-68607380D02*
X119095238Y-68512142D01*
X119095238Y-68512142D02*
X119047619Y-68321666D01*
X119047619Y-68321666D02*
X119047619Y-68083571D01*
X119047619Y-68083571D02*
X119095238Y-67893095D01*
X119095238Y-67893095D02*
X119142857Y-67797857D01*
X119142857Y-67797857D02*
X119190476Y-67750238D01*
X119190476Y-67750238D02*
X119285714Y-67702619D01*
X119952381Y-67702619D02*
X120619047Y-67702619D01*
X120619047Y-67702619D02*
X120190476Y-68702619D01*
X120952381Y-67797857D02*
X121000000Y-67750238D01*
X121000000Y-67750238D02*
X121095238Y-67702619D01*
X121095238Y-67702619D02*
X121333333Y-67702619D01*
X121333333Y-67702619D02*
X121428571Y-67750238D01*
X121428571Y-67750238D02*
X121476190Y-67797857D01*
X121476190Y-67797857D02*
X121523809Y-67893095D01*
X121523809Y-67893095D02*
X121523809Y-67988333D01*
X121523809Y-67988333D02*
X121476190Y-68131190D01*
X121476190Y-68131190D02*
X120904762Y-68702619D01*
X120904762Y-68702619D02*
X121523809Y-68702619D01*
%TO.C,C2*%
X98233333Y-83467380D02*
X98185714Y-83515000D01*
X98185714Y-83515000D02*
X98042857Y-83562619D01*
X98042857Y-83562619D02*
X97947619Y-83562619D01*
X97947619Y-83562619D02*
X97804762Y-83515000D01*
X97804762Y-83515000D02*
X97709524Y-83419761D01*
X97709524Y-83419761D02*
X97661905Y-83324523D01*
X97661905Y-83324523D02*
X97614286Y-83134047D01*
X97614286Y-83134047D02*
X97614286Y-82991190D01*
X97614286Y-82991190D02*
X97661905Y-82800714D01*
X97661905Y-82800714D02*
X97709524Y-82705476D01*
X97709524Y-82705476D02*
X97804762Y-82610238D01*
X97804762Y-82610238D02*
X97947619Y-82562619D01*
X97947619Y-82562619D02*
X98042857Y-82562619D01*
X98042857Y-82562619D02*
X98185714Y-82610238D01*
X98185714Y-82610238D02*
X98233333Y-82657857D01*
X98614286Y-82657857D02*
X98661905Y-82610238D01*
X98661905Y-82610238D02*
X98757143Y-82562619D01*
X98757143Y-82562619D02*
X98995238Y-82562619D01*
X98995238Y-82562619D02*
X99090476Y-82610238D01*
X99090476Y-82610238D02*
X99138095Y-82657857D01*
X99138095Y-82657857D02*
X99185714Y-82753095D01*
X99185714Y-82753095D02*
X99185714Y-82848333D01*
X99185714Y-82848333D02*
X99138095Y-82991190D01*
X99138095Y-82991190D02*
X98566667Y-83562619D01*
X98566667Y-83562619D02*
X99185714Y-83562619D01*
X102609523Y-82895952D02*
X102609523Y-83562619D01*
X102419047Y-82515000D02*
X102228570Y-83229285D01*
X102228570Y-83229285D02*
X102723809Y-83229285D01*
X102952380Y-82562619D02*
X103485714Y-82562619D01*
X103485714Y-82562619D02*
X103142856Y-83562619D01*
X103790476Y-82895952D02*
X103790476Y-83895952D01*
X103790476Y-82943571D02*
X103866666Y-82895952D01*
X103866666Y-82895952D02*
X104019047Y-82895952D01*
X104019047Y-82895952D02*
X104095238Y-82943571D01*
X104095238Y-82943571D02*
X104133333Y-82991190D01*
X104133333Y-82991190D02*
X104171428Y-83086428D01*
X104171428Y-83086428D02*
X104171428Y-83372142D01*
X104171428Y-83372142D02*
X104133333Y-83467380D01*
X104133333Y-83467380D02*
X104095238Y-83515000D01*
X104095238Y-83515000D02*
X104019047Y-83562619D01*
X104019047Y-83562619D02*
X103866666Y-83562619D01*
X103866666Y-83562619D02*
X103790476Y-83515000D01*
%TO.C,C5*%
X111367380Y-62966666D02*
X111415000Y-63014285D01*
X111415000Y-63014285D02*
X111462619Y-63157142D01*
X111462619Y-63157142D02*
X111462619Y-63252380D01*
X111462619Y-63252380D02*
X111415000Y-63395237D01*
X111415000Y-63395237D02*
X111319761Y-63490475D01*
X111319761Y-63490475D02*
X111224523Y-63538094D01*
X111224523Y-63538094D02*
X111034047Y-63585713D01*
X111034047Y-63585713D02*
X110891190Y-63585713D01*
X110891190Y-63585713D02*
X110700714Y-63538094D01*
X110700714Y-63538094D02*
X110605476Y-63490475D01*
X110605476Y-63490475D02*
X110510238Y-63395237D01*
X110510238Y-63395237D02*
X110462619Y-63252380D01*
X110462619Y-63252380D02*
X110462619Y-63157142D01*
X110462619Y-63157142D02*
X110510238Y-63014285D01*
X110510238Y-63014285D02*
X110557857Y-62966666D01*
X110462619Y-62061904D02*
X110462619Y-62538094D01*
X110462619Y-62538094D02*
X110938809Y-62585713D01*
X110938809Y-62585713D02*
X110891190Y-62538094D01*
X110891190Y-62538094D02*
X110843571Y-62442856D01*
X110843571Y-62442856D02*
X110843571Y-62204761D01*
X110843571Y-62204761D02*
X110891190Y-62109523D01*
X110891190Y-62109523D02*
X110938809Y-62061904D01*
X110938809Y-62061904D02*
X111034047Y-62014285D01*
X111034047Y-62014285D02*
X111272142Y-62014285D01*
X111272142Y-62014285D02*
X111367380Y-62061904D01*
X111367380Y-62061904D02*
X111415000Y-62109523D01*
X111415000Y-62109523D02*
X111462619Y-62204761D01*
X111462619Y-62204761D02*
X111462619Y-62442856D01*
X111462619Y-62442856D02*
X111415000Y-62538094D01*
X111415000Y-62538094D02*
X111367380Y-62585713D01*
X108391190Y-63700000D02*
X108343571Y-63757143D01*
X108343571Y-63757143D02*
X108295952Y-63785714D01*
X108295952Y-63785714D02*
X108200714Y-63814286D01*
X108200714Y-63814286D02*
X108153095Y-63814286D01*
X108153095Y-63814286D02*
X108057857Y-63785714D01*
X108057857Y-63785714D02*
X108010238Y-63757143D01*
X108010238Y-63757143D02*
X107962619Y-63700000D01*
X107962619Y-63700000D02*
X107962619Y-63585714D01*
X107962619Y-63585714D02*
X108010238Y-63528572D01*
X108010238Y-63528572D02*
X108057857Y-63500000D01*
X108057857Y-63500000D02*
X108153095Y-63471429D01*
X108153095Y-63471429D02*
X108200714Y-63471429D01*
X108200714Y-63471429D02*
X108295952Y-63500000D01*
X108295952Y-63500000D02*
X108343571Y-63528572D01*
X108343571Y-63528572D02*
X108391190Y-63585714D01*
X108391190Y-63585714D02*
X108391190Y-63700000D01*
X108391190Y-63700000D02*
X108438809Y-63757143D01*
X108438809Y-63757143D02*
X108486428Y-63785714D01*
X108486428Y-63785714D02*
X108581666Y-63814286D01*
X108581666Y-63814286D02*
X108772142Y-63814286D01*
X108772142Y-63814286D02*
X108867380Y-63785714D01*
X108867380Y-63785714D02*
X108915000Y-63757143D01*
X108915000Y-63757143D02*
X108962619Y-63700000D01*
X108962619Y-63700000D02*
X108962619Y-63585714D01*
X108962619Y-63585714D02*
X108915000Y-63528572D01*
X108915000Y-63528572D02*
X108867380Y-63500000D01*
X108867380Y-63500000D02*
X108772142Y-63471429D01*
X108772142Y-63471429D02*
X108581666Y-63471429D01*
X108581666Y-63471429D02*
X108486428Y-63500000D01*
X108486428Y-63500000D02*
X108438809Y-63528572D01*
X108438809Y-63528572D02*
X108391190Y-63585714D01*
X108057857Y-63242857D02*
X108010238Y-63214285D01*
X108010238Y-63214285D02*
X107962619Y-63157143D01*
X107962619Y-63157143D02*
X107962619Y-63014285D01*
X107962619Y-63014285D02*
X108010238Y-62957143D01*
X108010238Y-62957143D02*
X108057857Y-62928571D01*
X108057857Y-62928571D02*
X108153095Y-62900000D01*
X108153095Y-62900000D02*
X108248333Y-62900000D01*
X108248333Y-62900000D02*
X108391190Y-62928571D01*
X108391190Y-62928571D02*
X108962619Y-63271428D01*
X108962619Y-63271428D02*
X108962619Y-62900000D01*
X107962619Y-62528571D02*
X107962619Y-62471428D01*
X107962619Y-62471428D02*
X108010238Y-62414285D01*
X108010238Y-62414285D02*
X108057857Y-62385714D01*
X108057857Y-62385714D02*
X108153095Y-62357142D01*
X108153095Y-62357142D02*
X108343571Y-62328571D01*
X108343571Y-62328571D02*
X108581666Y-62328571D01*
X108581666Y-62328571D02*
X108772142Y-62357142D01*
X108772142Y-62357142D02*
X108867380Y-62385714D01*
X108867380Y-62385714D02*
X108915000Y-62414285D01*
X108915000Y-62414285D02*
X108962619Y-62471428D01*
X108962619Y-62471428D02*
X108962619Y-62528571D01*
X108962619Y-62528571D02*
X108915000Y-62585714D01*
X108915000Y-62585714D02*
X108867380Y-62614285D01*
X108867380Y-62614285D02*
X108772142Y-62642856D01*
X108772142Y-62642856D02*
X108581666Y-62671428D01*
X108581666Y-62671428D02*
X108343571Y-62671428D01*
X108343571Y-62671428D02*
X108153095Y-62642856D01*
X108153095Y-62642856D02*
X108057857Y-62614285D01*
X108057857Y-62614285D02*
X108010238Y-62585714D01*
X108010238Y-62585714D02*
X107962619Y-62528571D01*
X108295952Y-62071427D02*
X109295952Y-62071427D01*
X108343571Y-62071427D02*
X108295952Y-62014285D01*
X108295952Y-62014285D02*
X108295952Y-61899999D01*
X108295952Y-61899999D02*
X108343571Y-61842856D01*
X108343571Y-61842856D02*
X108391190Y-61814285D01*
X108391190Y-61814285D02*
X108486428Y-61785713D01*
X108486428Y-61785713D02*
X108772142Y-61785713D01*
X108772142Y-61785713D02*
X108867380Y-61814285D01*
X108867380Y-61814285D02*
X108915000Y-61842856D01*
X108915000Y-61842856D02*
X108962619Y-61899999D01*
X108962619Y-61899999D02*
X108962619Y-62014285D01*
X108962619Y-62014285D02*
X108915000Y-62071427D01*
%TO.C,R7*%
X124047619Y-48062619D02*
X124714285Y-48062619D01*
X124714285Y-48062619D02*
X124285714Y-49062619D01*
X125095238Y-48967380D02*
X125142857Y-49015000D01*
X125142857Y-49015000D02*
X125095238Y-49062619D01*
X125095238Y-49062619D02*
X125047619Y-49015000D01*
X125047619Y-49015000D02*
X125095238Y-48967380D01*
X125095238Y-48967380D02*
X125095238Y-49062619D01*
X126047618Y-48062619D02*
X125571428Y-48062619D01*
X125571428Y-48062619D02*
X125523809Y-48538809D01*
X125523809Y-48538809D02*
X125571428Y-48491190D01*
X125571428Y-48491190D02*
X125666666Y-48443571D01*
X125666666Y-48443571D02*
X125904761Y-48443571D01*
X125904761Y-48443571D02*
X125999999Y-48491190D01*
X125999999Y-48491190D02*
X126047618Y-48538809D01*
X126047618Y-48538809D02*
X126095237Y-48634047D01*
X126095237Y-48634047D02*
X126095237Y-48872142D01*
X126095237Y-48872142D02*
X126047618Y-48967380D01*
X126047618Y-48967380D02*
X125999999Y-49015000D01*
X125999999Y-49015000D02*
X125904761Y-49062619D01*
X125904761Y-49062619D02*
X125666666Y-49062619D01*
X125666666Y-49062619D02*
X125571428Y-49015000D01*
X125571428Y-49015000D02*
X125523809Y-48967380D01*
X126523809Y-49062619D02*
X126523809Y-48062619D01*
X126619047Y-48681666D02*
X126904761Y-49062619D01*
X126904761Y-48395952D02*
X126523809Y-48776904D01*
X125433333Y-46862619D02*
X125100000Y-46386428D01*
X124861905Y-46862619D02*
X124861905Y-45862619D01*
X124861905Y-45862619D02*
X125242857Y-45862619D01*
X125242857Y-45862619D02*
X125338095Y-45910238D01*
X125338095Y-45910238D02*
X125385714Y-45957857D01*
X125385714Y-45957857D02*
X125433333Y-46053095D01*
X125433333Y-46053095D02*
X125433333Y-46195952D01*
X125433333Y-46195952D02*
X125385714Y-46291190D01*
X125385714Y-46291190D02*
X125338095Y-46338809D01*
X125338095Y-46338809D02*
X125242857Y-46386428D01*
X125242857Y-46386428D02*
X124861905Y-46386428D01*
X125766667Y-45862619D02*
X126433333Y-45862619D01*
X126433333Y-45862619D02*
X126004762Y-46862619D01*
%TO.C,H3*%
X146038095Y-88462619D02*
X146038095Y-87462619D01*
X146038095Y-87938809D02*
X146609523Y-87938809D01*
X146609523Y-88462619D02*
X146609523Y-87462619D01*
X146990476Y-87462619D02*
X147609523Y-87462619D01*
X147609523Y-87462619D02*
X147276190Y-87843571D01*
X147276190Y-87843571D02*
X147419047Y-87843571D01*
X147419047Y-87843571D02*
X147514285Y-87891190D01*
X147514285Y-87891190D02*
X147561904Y-87938809D01*
X147561904Y-87938809D02*
X147609523Y-88034047D01*
X147609523Y-88034047D02*
X147609523Y-88272142D01*
X147609523Y-88272142D02*
X147561904Y-88367380D01*
X147561904Y-88367380D02*
X147514285Y-88415000D01*
X147514285Y-88415000D02*
X147419047Y-88462619D01*
X147419047Y-88462619D02*
X147133333Y-88462619D01*
X147133333Y-88462619D02*
X147038095Y-88415000D01*
X147038095Y-88415000D02*
X146990476Y-88367380D01*
%TO.C,R4*%
X89933333Y-74612619D02*
X89600000Y-74136428D01*
X89361905Y-74612619D02*
X89361905Y-73612619D01*
X89361905Y-73612619D02*
X89742857Y-73612619D01*
X89742857Y-73612619D02*
X89838095Y-73660238D01*
X89838095Y-73660238D02*
X89885714Y-73707857D01*
X89885714Y-73707857D02*
X89933333Y-73803095D01*
X89933333Y-73803095D02*
X89933333Y-73945952D01*
X89933333Y-73945952D02*
X89885714Y-74041190D01*
X89885714Y-74041190D02*
X89838095Y-74088809D01*
X89838095Y-74088809D02*
X89742857Y-74136428D01*
X89742857Y-74136428D02*
X89361905Y-74136428D01*
X90790476Y-73945952D02*
X90790476Y-74612619D01*
X90552381Y-73565000D02*
X90314286Y-74279285D01*
X90314286Y-74279285D02*
X90933333Y-74279285D01*
X89895952Y-67590476D02*
X90562619Y-67590476D01*
X89515000Y-67828571D02*
X90229285Y-68066666D01*
X90229285Y-68066666D02*
X90229285Y-67447619D01*
X89562619Y-67161904D02*
X89562619Y-66542857D01*
X89562619Y-66542857D02*
X89943571Y-66876190D01*
X89943571Y-66876190D02*
X89943571Y-66733333D01*
X89943571Y-66733333D02*
X89991190Y-66638095D01*
X89991190Y-66638095D02*
X90038809Y-66590476D01*
X90038809Y-66590476D02*
X90134047Y-66542857D01*
X90134047Y-66542857D02*
X90372142Y-66542857D01*
X90372142Y-66542857D02*
X90467380Y-66590476D01*
X90467380Y-66590476D02*
X90515000Y-66638095D01*
X90515000Y-66638095D02*
X90562619Y-66733333D01*
X90562619Y-66733333D02*
X90562619Y-67019047D01*
X90562619Y-67019047D02*
X90515000Y-67114285D01*
X90515000Y-67114285D02*
X90467380Y-67161904D01*
X90562619Y-66114285D02*
X89562619Y-66114285D01*
X90181666Y-66019047D02*
X90562619Y-65733333D01*
X89895952Y-65733333D02*
X90276904Y-66114285D01*
%TO.C,C6*%
X135733333Y-46867380D02*
X135685714Y-46915000D01*
X135685714Y-46915000D02*
X135542857Y-46962619D01*
X135542857Y-46962619D02*
X135447619Y-46962619D01*
X135447619Y-46962619D02*
X135304762Y-46915000D01*
X135304762Y-46915000D02*
X135209524Y-46819761D01*
X135209524Y-46819761D02*
X135161905Y-46724523D01*
X135161905Y-46724523D02*
X135114286Y-46534047D01*
X135114286Y-46534047D02*
X135114286Y-46391190D01*
X135114286Y-46391190D02*
X135161905Y-46200714D01*
X135161905Y-46200714D02*
X135209524Y-46105476D01*
X135209524Y-46105476D02*
X135304762Y-46010238D01*
X135304762Y-46010238D02*
X135447619Y-45962619D01*
X135447619Y-45962619D02*
X135542857Y-45962619D01*
X135542857Y-45962619D02*
X135685714Y-46010238D01*
X135685714Y-46010238D02*
X135733333Y-46057857D01*
X136590476Y-45962619D02*
X136400000Y-45962619D01*
X136400000Y-45962619D02*
X136304762Y-46010238D01*
X136304762Y-46010238D02*
X136257143Y-46057857D01*
X136257143Y-46057857D02*
X136161905Y-46200714D01*
X136161905Y-46200714D02*
X136114286Y-46391190D01*
X136114286Y-46391190D02*
X136114286Y-46772142D01*
X136114286Y-46772142D02*
X136161905Y-46867380D01*
X136161905Y-46867380D02*
X136209524Y-46915000D01*
X136209524Y-46915000D02*
X136304762Y-46962619D01*
X136304762Y-46962619D02*
X136495238Y-46962619D01*
X136495238Y-46962619D02*
X136590476Y-46915000D01*
X136590476Y-46915000D02*
X136638095Y-46867380D01*
X136638095Y-46867380D02*
X136685714Y-46772142D01*
X136685714Y-46772142D02*
X136685714Y-46534047D01*
X136685714Y-46534047D02*
X136638095Y-46438809D01*
X136638095Y-46438809D02*
X136590476Y-46391190D01*
X136590476Y-46391190D02*
X136495238Y-46343571D01*
X136495238Y-46343571D02*
X136304762Y-46343571D01*
X136304762Y-46343571D02*
X136209524Y-46391190D01*
X136209524Y-46391190D02*
X136161905Y-46438809D01*
X136161905Y-46438809D02*
X136114286Y-46534047D01*
X135362619Y-52142857D02*
X135362619Y-51771429D01*
X135362619Y-51771429D02*
X135743571Y-51971429D01*
X135743571Y-51971429D02*
X135743571Y-51885714D01*
X135743571Y-51885714D02*
X135791190Y-51828572D01*
X135791190Y-51828572D02*
X135838809Y-51800000D01*
X135838809Y-51800000D02*
X135934047Y-51771429D01*
X135934047Y-51771429D02*
X136172142Y-51771429D01*
X136172142Y-51771429D02*
X136267380Y-51800000D01*
X136267380Y-51800000D02*
X136315000Y-51828572D01*
X136315000Y-51828572D02*
X136362619Y-51885714D01*
X136362619Y-51885714D02*
X136362619Y-52057143D01*
X136362619Y-52057143D02*
X136315000Y-52114286D01*
X136315000Y-52114286D02*
X136267380Y-52142857D01*
X135362619Y-51571428D02*
X135362619Y-51200000D01*
X135362619Y-51200000D02*
X135743571Y-51400000D01*
X135743571Y-51400000D02*
X135743571Y-51314285D01*
X135743571Y-51314285D02*
X135791190Y-51257143D01*
X135791190Y-51257143D02*
X135838809Y-51228571D01*
X135838809Y-51228571D02*
X135934047Y-51200000D01*
X135934047Y-51200000D02*
X136172142Y-51200000D01*
X136172142Y-51200000D02*
X136267380Y-51228571D01*
X136267380Y-51228571D02*
X136315000Y-51257143D01*
X136315000Y-51257143D02*
X136362619Y-51314285D01*
X136362619Y-51314285D02*
X136362619Y-51485714D01*
X136362619Y-51485714D02*
X136315000Y-51542857D01*
X136315000Y-51542857D02*
X136267380Y-51571428D01*
X135362619Y-50828571D02*
X135362619Y-50771428D01*
X135362619Y-50771428D02*
X135410238Y-50714285D01*
X135410238Y-50714285D02*
X135457857Y-50685714D01*
X135457857Y-50685714D02*
X135553095Y-50657142D01*
X135553095Y-50657142D02*
X135743571Y-50628571D01*
X135743571Y-50628571D02*
X135981666Y-50628571D01*
X135981666Y-50628571D02*
X136172142Y-50657142D01*
X136172142Y-50657142D02*
X136267380Y-50685714D01*
X136267380Y-50685714D02*
X136315000Y-50714285D01*
X136315000Y-50714285D02*
X136362619Y-50771428D01*
X136362619Y-50771428D02*
X136362619Y-50828571D01*
X136362619Y-50828571D02*
X136315000Y-50885714D01*
X136315000Y-50885714D02*
X136267380Y-50914285D01*
X136267380Y-50914285D02*
X136172142Y-50942856D01*
X136172142Y-50942856D02*
X135981666Y-50971428D01*
X135981666Y-50971428D02*
X135743571Y-50971428D01*
X135743571Y-50971428D02*
X135553095Y-50942856D01*
X135553095Y-50942856D02*
X135457857Y-50914285D01*
X135457857Y-50914285D02*
X135410238Y-50885714D01*
X135410238Y-50885714D02*
X135362619Y-50828571D01*
X135695952Y-50371427D02*
X136695952Y-50371427D01*
X135743571Y-50371427D02*
X135695952Y-50314285D01*
X135695952Y-50314285D02*
X135695952Y-50199999D01*
X135695952Y-50199999D02*
X135743571Y-50142856D01*
X135743571Y-50142856D02*
X135791190Y-50114285D01*
X135791190Y-50114285D02*
X135886428Y-50085713D01*
X135886428Y-50085713D02*
X136172142Y-50085713D01*
X136172142Y-50085713D02*
X136267380Y-50114285D01*
X136267380Y-50114285D02*
X136315000Y-50142856D01*
X136315000Y-50142856D02*
X136362619Y-50199999D01*
X136362619Y-50199999D02*
X136362619Y-50314285D01*
X136362619Y-50314285D02*
X136315000Y-50371427D01*
%TO.C,U3*%
X134468095Y-73912619D02*
X134468095Y-74722142D01*
X134468095Y-74722142D02*
X134515714Y-74817380D01*
X134515714Y-74817380D02*
X134563333Y-74865000D01*
X134563333Y-74865000D02*
X134658571Y-74912619D01*
X134658571Y-74912619D02*
X134849047Y-74912619D01*
X134849047Y-74912619D02*
X134944285Y-74865000D01*
X134944285Y-74865000D02*
X134991904Y-74817380D01*
X134991904Y-74817380D02*
X135039523Y-74722142D01*
X135039523Y-74722142D02*
X135039523Y-73912619D01*
X135420476Y-73912619D02*
X136039523Y-73912619D01*
X136039523Y-73912619D02*
X135706190Y-74293571D01*
X135706190Y-74293571D02*
X135849047Y-74293571D01*
X135849047Y-74293571D02*
X135944285Y-74341190D01*
X135944285Y-74341190D02*
X135991904Y-74388809D01*
X135991904Y-74388809D02*
X136039523Y-74484047D01*
X136039523Y-74484047D02*
X136039523Y-74722142D01*
X136039523Y-74722142D02*
X135991904Y-74817380D01*
X135991904Y-74817380D02*
X135944285Y-74865000D01*
X135944285Y-74865000D02*
X135849047Y-74912619D01*
X135849047Y-74912619D02*
X135563333Y-74912619D01*
X135563333Y-74912619D02*
X135468095Y-74865000D01*
X135468095Y-74865000D02*
X135420476Y-74817380D01*
X133380952Y-67662619D02*
X133952380Y-67662619D01*
X133666666Y-68662619D02*
X133666666Y-67662619D01*
X134761904Y-68662619D02*
X134285714Y-68662619D01*
X134285714Y-68662619D02*
X134285714Y-67662619D01*
X135285714Y-67662619D02*
X135380952Y-67662619D01*
X135380952Y-67662619D02*
X135476190Y-67710238D01*
X135476190Y-67710238D02*
X135523809Y-67757857D01*
X135523809Y-67757857D02*
X135571428Y-67853095D01*
X135571428Y-67853095D02*
X135619047Y-68043571D01*
X135619047Y-68043571D02*
X135619047Y-68281666D01*
X135619047Y-68281666D02*
X135571428Y-68472142D01*
X135571428Y-68472142D02*
X135523809Y-68567380D01*
X135523809Y-68567380D02*
X135476190Y-68615000D01*
X135476190Y-68615000D02*
X135380952Y-68662619D01*
X135380952Y-68662619D02*
X135285714Y-68662619D01*
X135285714Y-68662619D02*
X135190476Y-68615000D01*
X135190476Y-68615000D02*
X135142857Y-68567380D01*
X135142857Y-68567380D02*
X135095238Y-68472142D01*
X135095238Y-68472142D02*
X135047619Y-68281666D01*
X135047619Y-68281666D02*
X135047619Y-68043571D01*
X135047619Y-68043571D02*
X135095238Y-67853095D01*
X135095238Y-67853095D02*
X135142857Y-67757857D01*
X135142857Y-67757857D02*
X135190476Y-67710238D01*
X135190476Y-67710238D02*
X135285714Y-67662619D01*
X135952381Y-67662619D02*
X136619047Y-67662619D01*
X136619047Y-67662619D02*
X136190476Y-68662619D01*
X137523809Y-68662619D02*
X136952381Y-68662619D01*
X137238095Y-68662619D02*
X137238095Y-67662619D01*
X137238095Y-67662619D02*
X137142857Y-67805476D01*
X137142857Y-67805476D02*
X137047619Y-67900714D01*
X137047619Y-67900714D02*
X136952381Y-67948333D01*
%TO.C,R8*%
X114733333Y-90912619D02*
X114400000Y-90436428D01*
X114161905Y-90912619D02*
X114161905Y-89912619D01*
X114161905Y-89912619D02*
X114542857Y-89912619D01*
X114542857Y-89912619D02*
X114638095Y-89960238D01*
X114638095Y-89960238D02*
X114685714Y-90007857D01*
X114685714Y-90007857D02*
X114733333Y-90103095D01*
X114733333Y-90103095D02*
X114733333Y-90245952D01*
X114733333Y-90245952D02*
X114685714Y-90341190D01*
X114685714Y-90341190D02*
X114638095Y-90388809D01*
X114638095Y-90388809D02*
X114542857Y-90436428D01*
X114542857Y-90436428D02*
X114161905Y-90436428D01*
X115304762Y-90341190D02*
X115209524Y-90293571D01*
X115209524Y-90293571D02*
X115161905Y-90245952D01*
X115161905Y-90245952D02*
X115114286Y-90150714D01*
X115114286Y-90150714D02*
X115114286Y-90103095D01*
X115114286Y-90103095D02*
X115161905Y-90007857D01*
X115161905Y-90007857D02*
X115209524Y-89960238D01*
X115209524Y-89960238D02*
X115304762Y-89912619D01*
X115304762Y-89912619D02*
X115495238Y-89912619D01*
X115495238Y-89912619D02*
X115590476Y-89960238D01*
X115590476Y-89960238D02*
X115638095Y-90007857D01*
X115638095Y-90007857D02*
X115685714Y-90103095D01*
X115685714Y-90103095D02*
X115685714Y-90150714D01*
X115685714Y-90150714D02*
X115638095Y-90245952D01*
X115638095Y-90245952D02*
X115590476Y-90293571D01*
X115590476Y-90293571D02*
X115495238Y-90341190D01*
X115495238Y-90341190D02*
X115304762Y-90341190D01*
X115304762Y-90341190D02*
X115209524Y-90388809D01*
X115209524Y-90388809D02*
X115161905Y-90436428D01*
X115161905Y-90436428D02*
X115114286Y-90531666D01*
X115114286Y-90531666D02*
X115114286Y-90722142D01*
X115114286Y-90722142D02*
X115161905Y-90817380D01*
X115161905Y-90817380D02*
X115209524Y-90865000D01*
X115209524Y-90865000D02*
X115304762Y-90912619D01*
X115304762Y-90912619D02*
X115495238Y-90912619D01*
X115495238Y-90912619D02*
X115590476Y-90865000D01*
X115590476Y-90865000D02*
X115638095Y-90817380D01*
X115638095Y-90817380D02*
X115685714Y-90722142D01*
X115685714Y-90722142D02*
X115685714Y-90531666D01*
X115685714Y-90531666D02*
X115638095Y-90436428D01*
X115638095Y-90436428D02*
X115590476Y-90388809D01*
X115590476Y-90388809D02*
X115495238Y-90341190D01*
X114891190Y-84584285D02*
X114843571Y-84679523D01*
X114843571Y-84679523D02*
X114795952Y-84727142D01*
X114795952Y-84727142D02*
X114700714Y-84774761D01*
X114700714Y-84774761D02*
X114653095Y-84774761D01*
X114653095Y-84774761D02*
X114557857Y-84727142D01*
X114557857Y-84727142D02*
X114510238Y-84679523D01*
X114510238Y-84679523D02*
X114462619Y-84584285D01*
X114462619Y-84584285D02*
X114462619Y-84393809D01*
X114462619Y-84393809D02*
X114510238Y-84298571D01*
X114510238Y-84298571D02*
X114557857Y-84250952D01*
X114557857Y-84250952D02*
X114653095Y-84203333D01*
X114653095Y-84203333D02*
X114700714Y-84203333D01*
X114700714Y-84203333D02*
X114795952Y-84250952D01*
X114795952Y-84250952D02*
X114843571Y-84298571D01*
X114843571Y-84298571D02*
X114891190Y-84393809D01*
X114891190Y-84393809D02*
X114891190Y-84584285D01*
X114891190Y-84584285D02*
X114938809Y-84679523D01*
X114938809Y-84679523D02*
X114986428Y-84727142D01*
X114986428Y-84727142D02*
X115081666Y-84774761D01*
X115081666Y-84774761D02*
X115272142Y-84774761D01*
X115272142Y-84774761D02*
X115367380Y-84727142D01*
X115367380Y-84727142D02*
X115415000Y-84679523D01*
X115415000Y-84679523D02*
X115462619Y-84584285D01*
X115462619Y-84584285D02*
X115462619Y-84393809D01*
X115462619Y-84393809D02*
X115415000Y-84298571D01*
X115415000Y-84298571D02*
X115367380Y-84250952D01*
X115367380Y-84250952D02*
X115272142Y-84203333D01*
X115272142Y-84203333D02*
X115081666Y-84203333D01*
X115081666Y-84203333D02*
X114986428Y-84250952D01*
X114986428Y-84250952D02*
X114938809Y-84298571D01*
X114938809Y-84298571D02*
X114891190Y-84393809D01*
X115367380Y-83774761D02*
X115415000Y-83727142D01*
X115415000Y-83727142D02*
X115462619Y-83774761D01*
X115462619Y-83774761D02*
X115415000Y-83822380D01*
X115415000Y-83822380D02*
X115367380Y-83774761D01*
X115367380Y-83774761D02*
X115462619Y-83774761D01*
X114557857Y-83346190D02*
X114510238Y-83298571D01*
X114510238Y-83298571D02*
X114462619Y-83203333D01*
X114462619Y-83203333D02*
X114462619Y-82965238D01*
X114462619Y-82965238D02*
X114510238Y-82870000D01*
X114510238Y-82870000D02*
X114557857Y-82822381D01*
X114557857Y-82822381D02*
X114653095Y-82774762D01*
X114653095Y-82774762D02*
X114748333Y-82774762D01*
X114748333Y-82774762D02*
X114891190Y-82822381D01*
X114891190Y-82822381D02*
X115462619Y-83393809D01*
X115462619Y-83393809D02*
X115462619Y-82774762D01*
X115462619Y-82346190D02*
X114462619Y-82346190D01*
X115081666Y-82250952D02*
X115462619Y-81965238D01*
X114795952Y-81965238D02*
X115176904Y-82346190D01*
%TO.C,H4*%
X145988095Y-49287619D02*
X145988095Y-48287619D01*
X145988095Y-48763809D02*
X146559523Y-48763809D01*
X146559523Y-49287619D02*
X146559523Y-48287619D01*
X147464285Y-48620952D02*
X147464285Y-49287619D01*
X147226190Y-48240000D02*
X146988095Y-48954285D01*
X146988095Y-48954285D02*
X147607142Y-48954285D01*
%TO.C,R3*%
X92533333Y-91142619D02*
X92200000Y-90666428D01*
X91961905Y-91142619D02*
X91961905Y-90142619D01*
X91961905Y-90142619D02*
X92342857Y-90142619D01*
X92342857Y-90142619D02*
X92438095Y-90190238D01*
X92438095Y-90190238D02*
X92485714Y-90237857D01*
X92485714Y-90237857D02*
X92533333Y-90333095D01*
X92533333Y-90333095D02*
X92533333Y-90475952D01*
X92533333Y-90475952D02*
X92485714Y-90571190D01*
X92485714Y-90571190D02*
X92438095Y-90618809D01*
X92438095Y-90618809D02*
X92342857Y-90666428D01*
X92342857Y-90666428D02*
X91961905Y-90666428D01*
X92866667Y-90142619D02*
X93485714Y-90142619D01*
X93485714Y-90142619D02*
X93152381Y-90523571D01*
X93152381Y-90523571D02*
X93295238Y-90523571D01*
X93295238Y-90523571D02*
X93390476Y-90571190D01*
X93390476Y-90571190D02*
X93438095Y-90618809D01*
X93438095Y-90618809D02*
X93485714Y-90714047D01*
X93485714Y-90714047D02*
X93485714Y-90952142D01*
X93485714Y-90952142D02*
X93438095Y-91047380D01*
X93438095Y-91047380D02*
X93390476Y-91095000D01*
X93390476Y-91095000D02*
X93295238Y-91142619D01*
X93295238Y-91142619D02*
X93009524Y-91142619D01*
X93009524Y-91142619D02*
X92914286Y-91095000D01*
X92914286Y-91095000D02*
X92866667Y-91047380D01*
X92357857Y-84190475D02*
X92310238Y-84142856D01*
X92310238Y-84142856D02*
X92262619Y-84047618D01*
X92262619Y-84047618D02*
X92262619Y-83809523D01*
X92262619Y-83809523D02*
X92310238Y-83714285D01*
X92310238Y-83714285D02*
X92357857Y-83666666D01*
X92357857Y-83666666D02*
X92453095Y-83619047D01*
X92453095Y-83619047D02*
X92548333Y-83619047D01*
X92548333Y-83619047D02*
X92691190Y-83666666D01*
X92691190Y-83666666D02*
X93262619Y-84238094D01*
X93262619Y-84238094D02*
X93262619Y-83619047D01*
X93262619Y-83190475D02*
X92262619Y-83190475D01*
X92881666Y-83095237D02*
X93262619Y-82809523D01*
X92595952Y-82809523D02*
X92976904Y-83190475D01*
%TO.C,R6*%
X110433333Y-46692619D02*
X110100000Y-46216428D01*
X109861905Y-46692619D02*
X109861905Y-45692619D01*
X109861905Y-45692619D02*
X110242857Y-45692619D01*
X110242857Y-45692619D02*
X110338095Y-45740238D01*
X110338095Y-45740238D02*
X110385714Y-45787857D01*
X110385714Y-45787857D02*
X110433333Y-45883095D01*
X110433333Y-45883095D02*
X110433333Y-46025952D01*
X110433333Y-46025952D02*
X110385714Y-46121190D01*
X110385714Y-46121190D02*
X110338095Y-46168809D01*
X110338095Y-46168809D02*
X110242857Y-46216428D01*
X110242857Y-46216428D02*
X109861905Y-46216428D01*
X111290476Y-45692619D02*
X111100000Y-45692619D01*
X111100000Y-45692619D02*
X111004762Y-45740238D01*
X111004762Y-45740238D02*
X110957143Y-45787857D01*
X110957143Y-45787857D02*
X110861905Y-45930714D01*
X110861905Y-45930714D02*
X110814286Y-46121190D01*
X110814286Y-46121190D02*
X110814286Y-46502142D01*
X110814286Y-46502142D02*
X110861905Y-46597380D01*
X110861905Y-46597380D02*
X110909524Y-46645000D01*
X110909524Y-46645000D02*
X111004762Y-46692619D01*
X111004762Y-46692619D02*
X111195238Y-46692619D01*
X111195238Y-46692619D02*
X111290476Y-46645000D01*
X111290476Y-46645000D02*
X111338095Y-46597380D01*
X111338095Y-46597380D02*
X111385714Y-46502142D01*
X111385714Y-46502142D02*
X111385714Y-46264047D01*
X111385714Y-46264047D02*
X111338095Y-46168809D01*
X111338095Y-46168809D02*
X111290476Y-46121190D01*
X111290476Y-46121190D02*
X111195238Y-46073571D01*
X111195238Y-46073571D02*
X111004762Y-46073571D01*
X111004762Y-46073571D02*
X110909524Y-46121190D01*
X110909524Y-46121190D02*
X110861905Y-46168809D01*
X110861905Y-46168809D02*
X110814286Y-46264047D01*
X109397619Y-48062619D02*
X110064285Y-48062619D01*
X110064285Y-48062619D02*
X109635714Y-49062619D01*
X110445238Y-48967380D02*
X110492857Y-49015000D01*
X110492857Y-49015000D02*
X110445238Y-49062619D01*
X110445238Y-49062619D02*
X110397619Y-49015000D01*
X110397619Y-49015000D02*
X110445238Y-48967380D01*
X110445238Y-48967380D02*
X110445238Y-49062619D01*
X111397618Y-48062619D02*
X110921428Y-48062619D01*
X110921428Y-48062619D02*
X110873809Y-48538809D01*
X110873809Y-48538809D02*
X110921428Y-48491190D01*
X110921428Y-48491190D02*
X111016666Y-48443571D01*
X111016666Y-48443571D02*
X111254761Y-48443571D01*
X111254761Y-48443571D02*
X111349999Y-48491190D01*
X111349999Y-48491190D02*
X111397618Y-48538809D01*
X111397618Y-48538809D02*
X111445237Y-48634047D01*
X111445237Y-48634047D02*
X111445237Y-48872142D01*
X111445237Y-48872142D02*
X111397618Y-48967380D01*
X111397618Y-48967380D02*
X111349999Y-49015000D01*
X111349999Y-49015000D02*
X111254761Y-49062619D01*
X111254761Y-49062619D02*
X111016666Y-49062619D01*
X111016666Y-49062619D02*
X110921428Y-49015000D01*
X110921428Y-49015000D02*
X110873809Y-48967380D01*
X111873809Y-49062619D02*
X111873809Y-48062619D01*
X111969047Y-48681666D02*
X112254761Y-49062619D01*
X112254761Y-48395952D02*
X111873809Y-48776904D01*
%TO.C,R2*%
X103233333Y-90862619D02*
X102900000Y-90386428D01*
X102661905Y-90862619D02*
X102661905Y-89862619D01*
X102661905Y-89862619D02*
X103042857Y-89862619D01*
X103042857Y-89862619D02*
X103138095Y-89910238D01*
X103138095Y-89910238D02*
X103185714Y-89957857D01*
X103185714Y-89957857D02*
X103233333Y-90053095D01*
X103233333Y-90053095D02*
X103233333Y-90195952D01*
X103233333Y-90195952D02*
X103185714Y-90291190D01*
X103185714Y-90291190D02*
X103138095Y-90338809D01*
X103138095Y-90338809D02*
X103042857Y-90386428D01*
X103042857Y-90386428D02*
X102661905Y-90386428D01*
X103614286Y-89957857D02*
X103661905Y-89910238D01*
X103661905Y-89910238D02*
X103757143Y-89862619D01*
X103757143Y-89862619D02*
X103995238Y-89862619D01*
X103995238Y-89862619D02*
X104090476Y-89910238D01*
X104090476Y-89910238D02*
X104138095Y-89957857D01*
X104138095Y-89957857D02*
X104185714Y-90053095D01*
X104185714Y-90053095D02*
X104185714Y-90148333D01*
X104185714Y-90148333D02*
X104138095Y-90291190D01*
X104138095Y-90291190D02*
X103566667Y-90862619D01*
X103566667Y-90862619D02*
X104185714Y-90862619D01*
X102385714Y-87462619D02*
X103004761Y-87462619D01*
X103004761Y-87462619D02*
X102671428Y-87843571D01*
X102671428Y-87843571D02*
X102814285Y-87843571D01*
X102814285Y-87843571D02*
X102909523Y-87891190D01*
X102909523Y-87891190D02*
X102957142Y-87938809D01*
X102957142Y-87938809D02*
X103004761Y-88034047D01*
X103004761Y-88034047D02*
X103004761Y-88272142D01*
X103004761Y-88272142D02*
X102957142Y-88367380D01*
X102957142Y-88367380D02*
X102909523Y-88415000D01*
X102909523Y-88415000D02*
X102814285Y-88462619D01*
X102814285Y-88462619D02*
X102528571Y-88462619D01*
X102528571Y-88462619D02*
X102433333Y-88415000D01*
X102433333Y-88415000D02*
X102385714Y-88367380D01*
X103480952Y-88462619D02*
X103671428Y-88462619D01*
X103671428Y-88462619D02*
X103766666Y-88415000D01*
X103766666Y-88415000D02*
X103814285Y-88367380D01*
X103814285Y-88367380D02*
X103909523Y-88224523D01*
X103909523Y-88224523D02*
X103957142Y-88034047D01*
X103957142Y-88034047D02*
X103957142Y-87653095D01*
X103957142Y-87653095D02*
X103909523Y-87557857D01*
X103909523Y-87557857D02*
X103861904Y-87510238D01*
X103861904Y-87510238D02*
X103766666Y-87462619D01*
X103766666Y-87462619D02*
X103576190Y-87462619D01*
X103576190Y-87462619D02*
X103480952Y-87510238D01*
X103480952Y-87510238D02*
X103433333Y-87557857D01*
X103433333Y-87557857D02*
X103385714Y-87653095D01*
X103385714Y-87653095D02*
X103385714Y-87891190D01*
X103385714Y-87891190D02*
X103433333Y-87986428D01*
X103433333Y-87986428D02*
X103480952Y-88034047D01*
X103480952Y-88034047D02*
X103576190Y-88081666D01*
X103576190Y-88081666D02*
X103766666Y-88081666D01*
X103766666Y-88081666D02*
X103861904Y-88034047D01*
X103861904Y-88034047D02*
X103909523Y-87986428D01*
X103909523Y-87986428D02*
X103957142Y-87891190D01*
X104385714Y-88462619D02*
X104385714Y-87462619D01*
X104480952Y-88081666D02*
X104766666Y-88462619D01*
X104766666Y-87795952D02*
X104385714Y-88176904D01*
%TO.C,R10*%
X125657142Y-80262619D02*
X125323809Y-79786428D01*
X125085714Y-80262619D02*
X125085714Y-79262619D01*
X125085714Y-79262619D02*
X125466666Y-79262619D01*
X125466666Y-79262619D02*
X125561904Y-79310238D01*
X125561904Y-79310238D02*
X125609523Y-79357857D01*
X125609523Y-79357857D02*
X125657142Y-79453095D01*
X125657142Y-79453095D02*
X125657142Y-79595952D01*
X125657142Y-79595952D02*
X125609523Y-79691190D01*
X125609523Y-79691190D02*
X125561904Y-79738809D01*
X125561904Y-79738809D02*
X125466666Y-79786428D01*
X125466666Y-79786428D02*
X125085714Y-79786428D01*
X126609523Y-80262619D02*
X126038095Y-80262619D01*
X126323809Y-80262619D02*
X126323809Y-79262619D01*
X126323809Y-79262619D02*
X126228571Y-79405476D01*
X126228571Y-79405476D02*
X126133333Y-79500714D01*
X126133333Y-79500714D02*
X126038095Y-79548333D01*
X127228571Y-79262619D02*
X127323809Y-79262619D01*
X127323809Y-79262619D02*
X127419047Y-79310238D01*
X127419047Y-79310238D02*
X127466666Y-79357857D01*
X127466666Y-79357857D02*
X127514285Y-79453095D01*
X127514285Y-79453095D02*
X127561904Y-79643571D01*
X127561904Y-79643571D02*
X127561904Y-79881666D01*
X127561904Y-79881666D02*
X127514285Y-80072142D01*
X127514285Y-80072142D02*
X127466666Y-80167380D01*
X127466666Y-80167380D02*
X127419047Y-80215000D01*
X127419047Y-80215000D02*
X127323809Y-80262619D01*
X127323809Y-80262619D02*
X127228571Y-80262619D01*
X127228571Y-80262619D02*
X127133333Y-80215000D01*
X127133333Y-80215000D02*
X127085714Y-80167380D01*
X127085714Y-80167380D02*
X127038095Y-80072142D01*
X127038095Y-80072142D02*
X126990476Y-79881666D01*
X126990476Y-79881666D02*
X126990476Y-79643571D01*
X126990476Y-79643571D02*
X127038095Y-79453095D01*
X127038095Y-79453095D02*
X127085714Y-79357857D01*
X127085714Y-79357857D02*
X127133333Y-79310238D01*
X127133333Y-79310238D02*
X127228571Y-79262619D01*
X133704761Y-80162619D02*
X133133333Y-80162619D01*
X133419047Y-80162619D02*
X133419047Y-79162619D01*
X133419047Y-79162619D02*
X133323809Y-79305476D01*
X133323809Y-79305476D02*
X133228571Y-79400714D01*
X133228571Y-79400714D02*
X133133333Y-79448333D01*
X134323809Y-79162619D02*
X134419047Y-79162619D01*
X134419047Y-79162619D02*
X134514285Y-79210238D01*
X134514285Y-79210238D02*
X134561904Y-79257857D01*
X134561904Y-79257857D02*
X134609523Y-79353095D01*
X134609523Y-79353095D02*
X134657142Y-79543571D01*
X134657142Y-79543571D02*
X134657142Y-79781666D01*
X134657142Y-79781666D02*
X134609523Y-79972142D01*
X134609523Y-79972142D02*
X134561904Y-80067380D01*
X134561904Y-80067380D02*
X134514285Y-80115000D01*
X134514285Y-80115000D02*
X134419047Y-80162619D01*
X134419047Y-80162619D02*
X134323809Y-80162619D01*
X134323809Y-80162619D02*
X134228571Y-80115000D01*
X134228571Y-80115000D02*
X134180952Y-80067380D01*
X134180952Y-80067380D02*
X134133333Y-79972142D01*
X134133333Y-79972142D02*
X134085714Y-79781666D01*
X134085714Y-79781666D02*
X134085714Y-79543571D01*
X134085714Y-79543571D02*
X134133333Y-79353095D01*
X134133333Y-79353095D02*
X134180952Y-79257857D01*
X134180952Y-79257857D02*
X134228571Y-79210238D01*
X134228571Y-79210238D02*
X134323809Y-79162619D01*
X135085714Y-80162619D02*
X135085714Y-79162619D01*
X135180952Y-79781666D02*
X135466666Y-80162619D01*
X135466666Y-79495952D02*
X135085714Y-79876904D01*
%TO.C,C1*%
X98233333Y-79167380D02*
X98185714Y-79215000D01*
X98185714Y-79215000D02*
X98042857Y-79262619D01*
X98042857Y-79262619D02*
X97947619Y-79262619D01*
X97947619Y-79262619D02*
X97804762Y-79215000D01*
X97804762Y-79215000D02*
X97709524Y-79119761D01*
X97709524Y-79119761D02*
X97661905Y-79024523D01*
X97661905Y-79024523D02*
X97614286Y-78834047D01*
X97614286Y-78834047D02*
X97614286Y-78691190D01*
X97614286Y-78691190D02*
X97661905Y-78500714D01*
X97661905Y-78500714D02*
X97709524Y-78405476D01*
X97709524Y-78405476D02*
X97804762Y-78310238D01*
X97804762Y-78310238D02*
X97947619Y-78262619D01*
X97947619Y-78262619D02*
X98042857Y-78262619D01*
X98042857Y-78262619D02*
X98185714Y-78310238D01*
X98185714Y-78310238D02*
X98233333Y-78357857D01*
X99185714Y-79262619D02*
X98614286Y-79262619D01*
X98900000Y-79262619D02*
X98900000Y-78262619D01*
X98900000Y-78262619D02*
X98804762Y-78405476D01*
X98804762Y-78405476D02*
X98709524Y-78500714D01*
X98709524Y-78500714D02*
X98614286Y-78548333D01*
X102609523Y-78595952D02*
X102609523Y-79262619D01*
X102419047Y-78215000D02*
X102228570Y-78929285D01*
X102228570Y-78929285D02*
X102723809Y-78929285D01*
X102952380Y-78262619D02*
X103485714Y-78262619D01*
X103485714Y-78262619D02*
X103142856Y-79262619D01*
X103790476Y-78595952D02*
X103790476Y-79595952D01*
X103790476Y-78643571D02*
X103866666Y-78595952D01*
X103866666Y-78595952D02*
X104019047Y-78595952D01*
X104019047Y-78595952D02*
X104095238Y-78643571D01*
X104095238Y-78643571D02*
X104133333Y-78691190D01*
X104133333Y-78691190D02*
X104171428Y-78786428D01*
X104171428Y-78786428D02*
X104171428Y-79072142D01*
X104171428Y-79072142D02*
X104133333Y-79167380D01*
X104133333Y-79167380D02*
X104095238Y-79215000D01*
X104095238Y-79215000D02*
X104019047Y-79262619D01*
X104019047Y-79262619D02*
X103866666Y-79262619D01*
X103866666Y-79262619D02*
X103790476Y-79215000D01*
%TO.C,R9*%
X119533333Y-90962619D02*
X119200000Y-90486428D01*
X118961905Y-90962619D02*
X118961905Y-89962619D01*
X118961905Y-89962619D02*
X119342857Y-89962619D01*
X119342857Y-89962619D02*
X119438095Y-90010238D01*
X119438095Y-90010238D02*
X119485714Y-90057857D01*
X119485714Y-90057857D02*
X119533333Y-90153095D01*
X119533333Y-90153095D02*
X119533333Y-90295952D01*
X119533333Y-90295952D02*
X119485714Y-90391190D01*
X119485714Y-90391190D02*
X119438095Y-90438809D01*
X119438095Y-90438809D02*
X119342857Y-90486428D01*
X119342857Y-90486428D02*
X118961905Y-90486428D01*
X120009524Y-90962619D02*
X120200000Y-90962619D01*
X120200000Y-90962619D02*
X120295238Y-90915000D01*
X120295238Y-90915000D02*
X120342857Y-90867380D01*
X120342857Y-90867380D02*
X120438095Y-90724523D01*
X120438095Y-90724523D02*
X120485714Y-90534047D01*
X120485714Y-90534047D02*
X120485714Y-90153095D01*
X120485714Y-90153095D02*
X120438095Y-90057857D01*
X120438095Y-90057857D02*
X120390476Y-90010238D01*
X120390476Y-90010238D02*
X120295238Y-89962619D01*
X120295238Y-89962619D02*
X120104762Y-89962619D01*
X120104762Y-89962619D02*
X120009524Y-90010238D01*
X120009524Y-90010238D02*
X119961905Y-90057857D01*
X119961905Y-90057857D02*
X119914286Y-90153095D01*
X119914286Y-90153095D02*
X119914286Y-90391190D01*
X119914286Y-90391190D02*
X119961905Y-90486428D01*
X119961905Y-90486428D02*
X120009524Y-90534047D01*
X120009524Y-90534047D02*
X120104762Y-90581666D01*
X120104762Y-90581666D02*
X120295238Y-90581666D01*
X120295238Y-90581666D02*
X120390476Y-90534047D01*
X120390476Y-90534047D02*
X120438095Y-90486428D01*
X120438095Y-90486428D02*
X120485714Y-90391190D01*
X119591190Y-84414285D02*
X119543571Y-84509523D01*
X119543571Y-84509523D02*
X119495952Y-84557142D01*
X119495952Y-84557142D02*
X119400714Y-84604761D01*
X119400714Y-84604761D02*
X119353095Y-84604761D01*
X119353095Y-84604761D02*
X119257857Y-84557142D01*
X119257857Y-84557142D02*
X119210238Y-84509523D01*
X119210238Y-84509523D02*
X119162619Y-84414285D01*
X119162619Y-84414285D02*
X119162619Y-84223809D01*
X119162619Y-84223809D02*
X119210238Y-84128571D01*
X119210238Y-84128571D02*
X119257857Y-84080952D01*
X119257857Y-84080952D02*
X119353095Y-84033333D01*
X119353095Y-84033333D02*
X119400714Y-84033333D01*
X119400714Y-84033333D02*
X119495952Y-84080952D01*
X119495952Y-84080952D02*
X119543571Y-84128571D01*
X119543571Y-84128571D02*
X119591190Y-84223809D01*
X119591190Y-84223809D02*
X119591190Y-84414285D01*
X119591190Y-84414285D02*
X119638809Y-84509523D01*
X119638809Y-84509523D02*
X119686428Y-84557142D01*
X119686428Y-84557142D02*
X119781666Y-84604761D01*
X119781666Y-84604761D02*
X119972142Y-84604761D01*
X119972142Y-84604761D02*
X120067380Y-84557142D01*
X120067380Y-84557142D02*
X120115000Y-84509523D01*
X120115000Y-84509523D02*
X120162619Y-84414285D01*
X120162619Y-84414285D02*
X120162619Y-84223809D01*
X120162619Y-84223809D02*
X120115000Y-84128571D01*
X120115000Y-84128571D02*
X120067380Y-84080952D01*
X120067380Y-84080952D02*
X119972142Y-84033333D01*
X119972142Y-84033333D02*
X119781666Y-84033333D01*
X119781666Y-84033333D02*
X119686428Y-84080952D01*
X119686428Y-84080952D02*
X119638809Y-84128571D01*
X119638809Y-84128571D02*
X119591190Y-84223809D01*
X120067380Y-83604761D02*
X120115000Y-83557142D01*
X120115000Y-83557142D02*
X120162619Y-83604761D01*
X120162619Y-83604761D02*
X120115000Y-83652380D01*
X120115000Y-83652380D02*
X120067380Y-83604761D01*
X120067380Y-83604761D02*
X120162619Y-83604761D01*
X119257857Y-83176190D02*
X119210238Y-83128571D01*
X119210238Y-83128571D02*
X119162619Y-83033333D01*
X119162619Y-83033333D02*
X119162619Y-82795238D01*
X119162619Y-82795238D02*
X119210238Y-82700000D01*
X119210238Y-82700000D02*
X119257857Y-82652381D01*
X119257857Y-82652381D02*
X119353095Y-82604762D01*
X119353095Y-82604762D02*
X119448333Y-82604762D01*
X119448333Y-82604762D02*
X119591190Y-82652381D01*
X119591190Y-82652381D02*
X120162619Y-83223809D01*
X120162619Y-83223809D02*
X120162619Y-82604762D01*
X120162619Y-82176190D02*
X119162619Y-82176190D01*
X119781666Y-82080952D02*
X120162619Y-81795238D01*
X119495952Y-81795238D02*
X119876904Y-82176190D01*
%TO.C,H2*%
X77238095Y-88462619D02*
X77238095Y-87462619D01*
X77238095Y-87938809D02*
X77809523Y-87938809D01*
X77809523Y-88462619D02*
X77809523Y-87462619D01*
X78238095Y-87557857D02*
X78285714Y-87510238D01*
X78285714Y-87510238D02*
X78380952Y-87462619D01*
X78380952Y-87462619D02*
X78619047Y-87462619D01*
X78619047Y-87462619D02*
X78714285Y-87510238D01*
X78714285Y-87510238D02*
X78761904Y-87557857D01*
X78761904Y-87557857D02*
X78809523Y-87653095D01*
X78809523Y-87653095D02*
X78809523Y-87748333D01*
X78809523Y-87748333D02*
X78761904Y-87891190D01*
X78761904Y-87891190D02*
X78190476Y-88462619D01*
X78190476Y-88462619D02*
X78809523Y-88462619D01*
%TO.C,U1*%
X96680952Y-67562619D02*
X97252380Y-67562619D01*
X96966666Y-68562619D02*
X96966666Y-67562619D01*
X98061904Y-68562619D02*
X97585714Y-68562619D01*
X97585714Y-68562619D02*
X97585714Y-67562619D01*
X98585714Y-67562619D02*
X98680952Y-67562619D01*
X98680952Y-67562619D02*
X98776190Y-67610238D01*
X98776190Y-67610238D02*
X98823809Y-67657857D01*
X98823809Y-67657857D02*
X98871428Y-67753095D01*
X98871428Y-67753095D02*
X98919047Y-67943571D01*
X98919047Y-67943571D02*
X98919047Y-68181666D01*
X98919047Y-68181666D02*
X98871428Y-68372142D01*
X98871428Y-68372142D02*
X98823809Y-68467380D01*
X98823809Y-68467380D02*
X98776190Y-68515000D01*
X98776190Y-68515000D02*
X98680952Y-68562619D01*
X98680952Y-68562619D02*
X98585714Y-68562619D01*
X98585714Y-68562619D02*
X98490476Y-68515000D01*
X98490476Y-68515000D02*
X98442857Y-68467380D01*
X98442857Y-68467380D02*
X98395238Y-68372142D01*
X98395238Y-68372142D02*
X98347619Y-68181666D01*
X98347619Y-68181666D02*
X98347619Y-67943571D01*
X98347619Y-67943571D02*
X98395238Y-67753095D01*
X98395238Y-67753095D02*
X98442857Y-67657857D01*
X98442857Y-67657857D02*
X98490476Y-67610238D01*
X98490476Y-67610238D02*
X98585714Y-67562619D01*
X99252381Y-67562619D02*
X99919047Y-67562619D01*
X99919047Y-67562619D02*
X99490476Y-68562619D01*
X100252381Y-67657857D02*
X100300000Y-67610238D01*
X100300000Y-67610238D02*
X100395238Y-67562619D01*
X100395238Y-67562619D02*
X100633333Y-67562619D01*
X100633333Y-67562619D02*
X100728571Y-67610238D01*
X100728571Y-67610238D02*
X100776190Y-67657857D01*
X100776190Y-67657857D02*
X100823809Y-67753095D01*
X100823809Y-67753095D02*
X100823809Y-67848333D01*
X100823809Y-67848333D02*
X100776190Y-67991190D01*
X100776190Y-67991190D02*
X100204762Y-68562619D01*
X100204762Y-68562619D02*
X100823809Y-68562619D01*
X96598095Y-73712619D02*
X96598095Y-74522142D01*
X96598095Y-74522142D02*
X96645714Y-74617380D01*
X96645714Y-74617380D02*
X96693333Y-74665000D01*
X96693333Y-74665000D02*
X96788571Y-74712619D01*
X96788571Y-74712619D02*
X96979047Y-74712619D01*
X96979047Y-74712619D02*
X97074285Y-74665000D01*
X97074285Y-74665000D02*
X97121904Y-74617380D01*
X97121904Y-74617380D02*
X97169523Y-74522142D01*
X97169523Y-74522142D02*
X97169523Y-73712619D01*
X98169523Y-74712619D02*
X97598095Y-74712619D01*
X97883809Y-74712619D02*
X97883809Y-73712619D01*
X97883809Y-73712619D02*
X97788571Y-73855476D01*
X97788571Y-73855476D02*
X97693333Y-73950714D01*
X97693333Y-73950714D02*
X97598095Y-73998333D01*
%TO.C,R1*%
X86933333Y-91162619D02*
X86600000Y-90686428D01*
X86361905Y-91162619D02*
X86361905Y-90162619D01*
X86361905Y-90162619D02*
X86742857Y-90162619D01*
X86742857Y-90162619D02*
X86838095Y-90210238D01*
X86838095Y-90210238D02*
X86885714Y-90257857D01*
X86885714Y-90257857D02*
X86933333Y-90353095D01*
X86933333Y-90353095D02*
X86933333Y-90495952D01*
X86933333Y-90495952D02*
X86885714Y-90591190D01*
X86885714Y-90591190D02*
X86838095Y-90638809D01*
X86838095Y-90638809D02*
X86742857Y-90686428D01*
X86742857Y-90686428D02*
X86361905Y-90686428D01*
X87885714Y-91162619D02*
X87314286Y-91162619D01*
X87600000Y-91162619D02*
X87600000Y-90162619D01*
X87600000Y-90162619D02*
X87504762Y-90305476D01*
X87504762Y-90305476D02*
X87409524Y-90400714D01*
X87409524Y-90400714D02*
X87314286Y-90448333D01*
X86791190Y-84634285D02*
X86743571Y-84729523D01*
X86743571Y-84729523D02*
X86695952Y-84777142D01*
X86695952Y-84777142D02*
X86600714Y-84824761D01*
X86600714Y-84824761D02*
X86553095Y-84824761D01*
X86553095Y-84824761D02*
X86457857Y-84777142D01*
X86457857Y-84777142D02*
X86410238Y-84729523D01*
X86410238Y-84729523D02*
X86362619Y-84634285D01*
X86362619Y-84634285D02*
X86362619Y-84443809D01*
X86362619Y-84443809D02*
X86410238Y-84348571D01*
X86410238Y-84348571D02*
X86457857Y-84300952D01*
X86457857Y-84300952D02*
X86553095Y-84253333D01*
X86553095Y-84253333D02*
X86600714Y-84253333D01*
X86600714Y-84253333D02*
X86695952Y-84300952D01*
X86695952Y-84300952D02*
X86743571Y-84348571D01*
X86743571Y-84348571D02*
X86791190Y-84443809D01*
X86791190Y-84443809D02*
X86791190Y-84634285D01*
X86791190Y-84634285D02*
X86838809Y-84729523D01*
X86838809Y-84729523D02*
X86886428Y-84777142D01*
X86886428Y-84777142D02*
X86981666Y-84824761D01*
X86981666Y-84824761D02*
X87172142Y-84824761D01*
X87172142Y-84824761D02*
X87267380Y-84777142D01*
X87267380Y-84777142D02*
X87315000Y-84729523D01*
X87315000Y-84729523D02*
X87362619Y-84634285D01*
X87362619Y-84634285D02*
X87362619Y-84443809D01*
X87362619Y-84443809D02*
X87315000Y-84348571D01*
X87315000Y-84348571D02*
X87267380Y-84300952D01*
X87267380Y-84300952D02*
X87172142Y-84253333D01*
X87172142Y-84253333D02*
X86981666Y-84253333D01*
X86981666Y-84253333D02*
X86886428Y-84300952D01*
X86886428Y-84300952D02*
X86838809Y-84348571D01*
X86838809Y-84348571D02*
X86791190Y-84443809D01*
X87267380Y-83824761D02*
X87315000Y-83777142D01*
X87315000Y-83777142D02*
X87362619Y-83824761D01*
X87362619Y-83824761D02*
X87315000Y-83872380D01*
X87315000Y-83872380D02*
X87267380Y-83824761D01*
X87267380Y-83824761D02*
X87362619Y-83824761D01*
X86457857Y-83396190D02*
X86410238Y-83348571D01*
X86410238Y-83348571D02*
X86362619Y-83253333D01*
X86362619Y-83253333D02*
X86362619Y-83015238D01*
X86362619Y-83015238D02*
X86410238Y-82920000D01*
X86410238Y-82920000D02*
X86457857Y-82872381D01*
X86457857Y-82872381D02*
X86553095Y-82824762D01*
X86553095Y-82824762D02*
X86648333Y-82824762D01*
X86648333Y-82824762D02*
X86791190Y-82872381D01*
X86791190Y-82872381D02*
X87362619Y-83443809D01*
X87362619Y-83443809D02*
X87362619Y-82824762D01*
X87362619Y-82396190D02*
X86362619Y-82396190D01*
X86981666Y-82300952D02*
X87362619Y-82015238D01*
X86695952Y-82015238D02*
X87076904Y-82396190D01*
%TO.C,C8*%
X116033333Y-58667380D02*
X115985714Y-58715000D01*
X115985714Y-58715000D02*
X115842857Y-58762619D01*
X115842857Y-58762619D02*
X115747619Y-58762619D01*
X115747619Y-58762619D02*
X115604762Y-58715000D01*
X115604762Y-58715000D02*
X115509524Y-58619761D01*
X115509524Y-58619761D02*
X115461905Y-58524523D01*
X115461905Y-58524523D02*
X115414286Y-58334047D01*
X115414286Y-58334047D02*
X115414286Y-58191190D01*
X115414286Y-58191190D02*
X115461905Y-58000714D01*
X115461905Y-58000714D02*
X115509524Y-57905476D01*
X115509524Y-57905476D02*
X115604762Y-57810238D01*
X115604762Y-57810238D02*
X115747619Y-57762619D01*
X115747619Y-57762619D02*
X115842857Y-57762619D01*
X115842857Y-57762619D02*
X115985714Y-57810238D01*
X115985714Y-57810238D02*
X116033333Y-57857857D01*
X116604762Y-58191190D02*
X116509524Y-58143571D01*
X116509524Y-58143571D02*
X116461905Y-58095952D01*
X116461905Y-58095952D02*
X116414286Y-58000714D01*
X116414286Y-58000714D02*
X116414286Y-57953095D01*
X116414286Y-57953095D02*
X116461905Y-57857857D01*
X116461905Y-57857857D02*
X116509524Y-57810238D01*
X116509524Y-57810238D02*
X116604762Y-57762619D01*
X116604762Y-57762619D02*
X116795238Y-57762619D01*
X116795238Y-57762619D02*
X116890476Y-57810238D01*
X116890476Y-57810238D02*
X116938095Y-57857857D01*
X116938095Y-57857857D02*
X116985714Y-57953095D01*
X116985714Y-57953095D02*
X116985714Y-58000714D01*
X116985714Y-58000714D02*
X116938095Y-58095952D01*
X116938095Y-58095952D02*
X116890476Y-58143571D01*
X116890476Y-58143571D02*
X116795238Y-58191190D01*
X116795238Y-58191190D02*
X116604762Y-58191190D01*
X116604762Y-58191190D02*
X116509524Y-58238809D01*
X116509524Y-58238809D02*
X116461905Y-58286428D01*
X116461905Y-58286428D02*
X116414286Y-58381666D01*
X116414286Y-58381666D02*
X116414286Y-58572142D01*
X116414286Y-58572142D02*
X116461905Y-58667380D01*
X116461905Y-58667380D02*
X116509524Y-58715000D01*
X116509524Y-58715000D02*
X116604762Y-58762619D01*
X116604762Y-58762619D02*
X116795238Y-58762619D01*
X116795238Y-58762619D02*
X116890476Y-58715000D01*
X116890476Y-58715000D02*
X116938095Y-58667380D01*
X116938095Y-58667380D02*
X116985714Y-58572142D01*
X116985714Y-58572142D02*
X116985714Y-58381666D01*
X116985714Y-58381666D02*
X116938095Y-58286428D01*
X116938095Y-58286428D02*
X116890476Y-58238809D01*
X116890476Y-58238809D02*
X116795238Y-58191190D01*
X120228570Y-58862619D02*
X119885713Y-58862619D01*
X120057142Y-58862619D02*
X120057142Y-57862619D01*
X120057142Y-57862619D02*
X119999999Y-58005476D01*
X119999999Y-58005476D02*
X119942856Y-58100714D01*
X119942856Y-58100714D02*
X119885713Y-58148333D01*
X120599999Y-57862619D02*
X120657142Y-57862619D01*
X120657142Y-57862619D02*
X120714285Y-57910238D01*
X120714285Y-57910238D02*
X120742857Y-57957857D01*
X120742857Y-57957857D02*
X120771428Y-58053095D01*
X120771428Y-58053095D02*
X120799999Y-58243571D01*
X120799999Y-58243571D02*
X120799999Y-58481666D01*
X120799999Y-58481666D02*
X120771428Y-58672142D01*
X120771428Y-58672142D02*
X120742857Y-58767380D01*
X120742857Y-58767380D02*
X120714285Y-58815000D01*
X120714285Y-58815000D02*
X120657142Y-58862619D01*
X120657142Y-58862619D02*
X120599999Y-58862619D01*
X120599999Y-58862619D02*
X120542857Y-58815000D01*
X120542857Y-58815000D02*
X120514285Y-58767380D01*
X120514285Y-58767380D02*
X120485714Y-58672142D01*
X120485714Y-58672142D02*
X120457142Y-58481666D01*
X120457142Y-58481666D02*
X120457142Y-58243571D01*
X120457142Y-58243571D02*
X120485714Y-58053095D01*
X120485714Y-58053095D02*
X120514285Y-57957857D01*
X120514285Y-57957857D02*
X120542857Y-57910238D01*
X120542857Y-57910238D02*
X120599999Y-57862619D01*
X121171428Y-57862619D02*
X121228571Y-57862619D01*
X121228571Y-57862619D02*
X121285714Y-57910238D01*
X121285714Y-57910238D02*
X121314286Y-57957857D01*
X121314286Y-57957857D02*
X121342857Y-58053095D01*
X121342857Y-58053095D02*
X121371428Y-58243571D01*
X121371428Y-58243571D02*
X121371428Y-58481666D01*
X121371428Y-58481666D02*
X121342857Y-58672142D01*
X121342857Y-58672142D02*
X121314286Y-58767380D01*
X121314286Y-58767380D02*
X121285714Y-58815000D01*
X121285714Y-58815000D02*
X121228571Y-58862619D01*
X121228571Y-58862619D02*
X121171428Y-58862619D01*
X121171428Y-58862619D02*
X121114286Y-58815000D01*
X121114286Y-58815000D02*
X121085714Y-58767380D01*
X121085714Y-58767380D02*
X121057143Y-58672142D01*
X121057143Y-58672142D02*
X121028571Y-58481666D01*
X121028571Y-58481666D02*
X121028571Y-58243571D01*
X121028571Y-58243571D02*
X121057143Y-58053095D01*
X121057143Y-58053095D02*
X121085714Y-57957857D01*
X121085714Y-57957857D02*
X121114286Y-57910238D01*
X121114286Y-57910238D02*
X121171428Y-57862619D01*
X121628572Y-58195952D02*
X121628572Y-59195952D01*
X121628572Y-58243571D02*
X121685715Y-58195952D01*
X121685715Y-58195952D02*
X121800000Y-58195952D01*
X121800000Y-58195952D02*
X121857143Y-58243571D01*
X121857143Y-58243571D02*
X121885715Y-58291190D01*
X121885715Y-58291190D02*
X121914286Y-58386428D01*
X121914286Y-58386428D02*
X121914286Y-58672142D01*
X121914286Y-58672142D02*
X121885715Y-58767380D01*
X121885715Y-58767380D02*
X121857143Y-58815000D01*
X121857143Y-58815000D02*
X121800000Y-58862619D01*
X121800000Y-58862619D02*
X121685715Y-58862619D01*
X121685715Y-58862619D02*
X121628572Y-58815000D01*
%TO.C,H1*%
X77238095Y-48962619D02*
X77238095Y-47962619D01*
X77238095Y-48438809D02*
X77809523Y-48438809D01*
X77809523Y-48962619D02*
X77809523Y-47962619D01*
X78809523Y-48962619D02*
X78238095Y-48962619D01*
X78523809Y-48962619D02*
X78523809Y-47962619D01*
X78523809Y-47962619D02*
X78428571Y-48105476D01*
X78428571Y-48105476D02*
X78333333Y-48200714D01*
X78333333Y-48200714D02*
X78238095Y-48248333D01*
D12*
%TO.C,C3*%
X90070000Y-58070000D02*
X90070000Y-57755000D01*
X90070000Y-58070000D02*
X85130000Y-58070000D01*
X90070000Y-55645000D02*
X90070000Y-55330000D01*
X90070000Y-55330000D02*
X85130000Y-55330000D01*
X85130000Y-58070000D02*
X85130000Y-57755000D01*
X85130000Y-55645000D02*
X85130000Y-55330000D01*
%TO.C,C4*%
X100970000Y-53430000D02*
X100655000Y-53430000D01*
X100970000Y-53430000D02*
X100970000Y-58370000D01*
X98545000Y-53430000D02*
X98230000Y-53430000D01*
X98230000Y-53430000D02*
X98230000Y-58370000D01*
X100970000Y-58370000D02*
X100655000Y-58370000D01*
X98545000Y-58370000D02*
X98230000Y-58370000D01*
%TO.C,C7*%
X123370000Y-56070000D02*
X123370000Y-55755000D01*
X123370000Y-56070000D02*
X118430000Y-56070000D01*
X123370000Y-53645000D02*
X123370000Y-53330000D01*
X123370000Y-53330000D02*
X118430000Y-53330000D01*
X118430000Y-56070000D02*
X118430000Y-55755000D01*
X118430000Y-53645000D02*
X118430000Y-53330000D01*
%TO.C,J3*%
X81810000Y-54880000D02*
X81810000Y-70120000D01*
X75460000Y-54880000D02*
X75460000Y-70120000D01*
X74190000Y-54880000D02*
X81810000Y-54880000D01*
X74190000Y-54880000D02*
X74190000Y-70120000D01*
X74190000Y-70120000D02*
X81810000Y-70120000D01*
%TO.C,R5*%
X90460000Y-48900000D02*
X91230000Y-48900000D01*
X91230000Y-47530000D02*
X91230000Y-50270000D01*
X91230000Y-50270000D02*
X97770000Y-50270000D01*
X97770000Y-47530000D02*
X91230000Y-47530000D01*
X97770000Y-50270000D02*
X97770000Y-47530000D01*
X98540000Y-48900000D02*
X97770000Y-48900000D01*
%TO.C,R11*%
X138240000Y-84200000D02*
X137470000Y-84200000D01*
X137470000Y-85570000D02*
X137470000Y-82830000D01*
X137470000Y-82830000D02*
X130930000Y-82830000D01*
X130930000Y-85570000D02*
X137470000Y-85570000D01*
X130930000Y-82830000D02*
X130930000Y-85570000D01*
X130160000Y-84200000D02*
X130930000Y-84200000D01*
%TO.C,G\u002A\u002A\u002A*%
G36*
X147406125Y-76467022D02*
G01*
X147402221Y-76859088D01*
X147325274Y-76863518D01*
X147248326Y-76867948D01*
X147248326Y-76471452D01*
X147248326Y-76074957D01*
X147329177Y-76074957D01*
X147410029Y-76074957D01*
X147406125Y-76467022D01*
G37*
G36*
X143712535Y-79085837D02*
G01*
X143745048Y-79122915D01*
X143758169Y-79155119D01*
X143753018Y-79180304D01*
X143730156Y-79208719D01*
X143690226Y-79236270D01*
X143649607Y-79237229D01*
X143633989Y-79229579D01*
X143605496Y-79197504D01*
X143592871Y-79156783D01*
X143598637Y-79123879D01*
X143631733Y-79086075D01*
X143672180Y-79073379D01*
X143712535Y-79085837D01*
G37*
G36*
X143977942Y-73724370D02*
G01*
X144004158Y-73754947D01*
X144015648Y-73784609D01*
X144015824Y-73816472D01*
X143993066Y-73849854D01*
X143988795Y-73854228D01*
X143945084Y-73885060D01*
X143904818Y-73886979D01*
X143872237Y-73864310D01*
X143850294Y-73821974D01*
X143852400Y-73778129D01*
X143874919Y-73740900D01*
X143914216Y-73718411D01*
X143938944Y-73715234D01*
X143977942Y-73724370D01*
G37*
G36*
X148865791Y-73396063D02*
G01*
X148901934Y-73413012D01*
X148907358Y-73418436D01*
X148934631Y-73461157D01*
X148935529Y-73499137D01*
X148917303Y-73531090D01*
X148879844Y-73562376D01*
X148840360Y-73564517D01*
X148801933Y-73539354D01*
X148779846Y-73502069D01*
X148773247Y-73457727D01*
X148783315Y-73419277D01*
X148790208Y-73410375D01*
X148823663Y-73394848D01*
X148865791Y-73396063D01*
G37*
G36*
X149673635Y-79085277D02*
G01*
X149686685Y-79095293D01*
X149717625Y-79133149D01*
X149723124Y-79173600D01*
X149702841Y-79209738D01*
X149692728Y-79217980D01*
X149647728Y-79238736D01*
X149609478Y-79231743D01*
X149588336Y-79213993D01*
X149566420Y-79170912D01*
X149571890Y-79125347D01*
X149593393Y-79094230D01*
X149620709Y-79071167D01*
X149643831Y-79068142D01*
X149673635Y-79085277D01*
G37*
G36*
X144467770Y-77444185D02*
G01*
X144500789Y-77483131D01*
X144519290Y-77530662D01*
X144515872Y-77567597D01*
X144489345Y-77604066D01*
X144486211Y-77607244D01*
X144438952Y-77637498D01*
X144387479Y-77643551D01*
X144340058Y-77625533D01*
X144318057Y-77604601D01*
X144291621Y-77553074D01*
X144294281Y-77503506D01*
X144323656Y-77459345D01*
X144370494Y-77429875D01*
X144421212Y-77425181D01*
X144467770Y-77444185D01*
G37*
G36*
X146681810Y-75206209D02*
G01*
X146713520Y-75231638D01*
X146739649Y-75262052D01*
X146750000Y-75286898D01*
X146737670Y-75328412D01*
X146706282Y-75356791D01*
X146664240Y-75369159D01*
X146619945Y-75362635D01*
X146588777Y-75342123D01*
X146567016Y-75312849D01*
X146559463Y-75290159D01*
X146570659Y-75262089D01*
X146597442Y-75230229D01*
X146629603Y-75204715D01*
X146654732Y-75195557D01*
X146681810Y-75206209D01*
G37*
G36*
X149423603Y-73723183D02*
G01*
X149453323Y-73747808D01*
X149474131Y-73794397D01*
X149466484Y-73836298D01*
X149446826Y-73861800D01*
X149413670Y-73886230D01*
X149381416Y-73886611D01*
X149341602Y-73862860D01*
X149338878Y-73860736D01*
X149311605Y-73829656D01*
X149300260Y-73797296D01*
X149300260Y-73797053D01*
X149312447Y-73756371D01*
X149343039Y-73728577D01*
X149383077Y-73716554D01*
X149423603Y-73723183D01*
G37*
G36*
X144041731Y-77648833D02*
G01*
X144090833Y-77678960D01*
X144098271Y-77686062D01*
X144132758Y-77734882D01*
X144138052Y-77783943D01*
X144114254Y-77834502D01*
X144110736Y-77839108D01*
X144068745Y-77871725D01*
X144018465Y-77880025D01*
X143967564Y-77864283D01*
X143929897Y-77832635D01*
X143902408Y-77782994D01*
X143904211Y-77734184D01*
X143935312Y-77686148D01*
X143945520Y-77676197D01*
X143993102Y-77647899D01*
X144041731Y-77648833D01*
G37*
G36*
X149344865Y-77653044D02*
G01*
X149382985Y-77677962D01*
X149414469Y-77722071D01*
X149424091Y-77774979D01*
X149411043Y-77826312D01*
X149396188Y-77847684D01*
X149359427Y-77869684D01*
X149309935Y-77877894D01*
X149261358Y-77871305D01*
X149237766Y-77859406D01*
X149203659Y-77817244D01*
X149192481Y-77765977D01*
X149203949Y-77714403D01*
X149237779Y-77671318D01*
X149243969Y-77666684D01*
X149294610Y-77645316D01*
X149344865Y-77653044D01*
G37*
G36*
X148948860Y-77426722D02*
G01*
X148991075Y-77449982D01*
X149021671Y-77492078D01*
X149030705Y-77521331D01*
X149027615Y-77569307D01*
X149003083Y-77607663D01*
X148964222Y-77633415D01*
X148918143Y-77643576D01*
X148871957Y-77635162D01*
X148832776Y-77605189D01*
X148832310Y-77604601D01*
X148807940Y-77565837D01*
X148804627Y-77530731D01*
X148821452Y-77486802D01*
X148823376Y-77483045D01*
X148857924Y-77441944D01*
X148902114Y-77423606D01*
X148948860Y-77426722D01*
G37*
G36*
X144554915Y-73392731D02*
G01*
X144560846Y-73400395D01*
X144575018Y-73427625D01*
X144576497Y-73442379D01*
X144562424Y-73456501D01*
X144529838Y-73480342D01*
X144485585Y-73508920D01*
X144482297Y-73510926D01*
X144429361Y-73540627D01*
X144395553Y-73553139D01*
X144377267Y-73549780D01*
X144376887Y-73549414D01*
X144362369Y-73524259D01*
X144370136Y-73497003D01*
X144401973Y-73464769D01*
X144450851Y-73430301D01*
X144497343Y-73400983D01*
X144525876Y-73386120D01*
X144542912Y-73383955D01*
X144554915Y-73392731D01*
G37*
G36*
X144966722Y-73163180D02*
G01*
X144973021Y-73180415D01*
X144968173Y-73200550D01*
X144945730Y-73223535D01*
X144901658Y-73253115D01*
X144882403Y-73264541D01*
X144828837Y-73295090D01*
X144794162Y-73312104D01*
X144772210Y-73317263D01*
X144756815Y-73312242D01*
X144744968Y-73301916D01*
X144729583Y-73281316D01*
X144727380Y-73274239D01*
X144739310Y-73260142D01*
X144770146Y-73237516D01*
X144812457Y-73210705D01*
X144858812Y-73184052D01*
X144901783Y-73161899D01*
X144933937Y-73148590D01*
X144945525Y-73146740D01*
X144966722Y-73163180D01*
G37*
G36*
X146673052Y-76067893D02*
G01*
X146683797Y-76070983D01*
X146691910Y-76077083D01*
X146697762Y-76089888D01*
X146701721Y-76113095D01*
X146704159Y-76150398D01*
X146705443Y-76205492D01*
X146705943Y-76282074D01*
X146706030Y-76383837D01*
X146706030Y-76397682D01*
X146706030Y-76719850D01*
X146896566Y-76719850D01*
X147087103Y-76719850D01*
X147087103Y-76793133D01*
X147087103Y-76866416D01*
X146815719Y-76866416D01*
X146544335Y-76866416D01*
X146548235Y-76468650D01*
X146552135Y-76070883D01*
X146596105Y-76065577D01*
X146640133Y-76064185D01*
X146673052Y-76067893D01*
G37*
G36*
X146351244Y-76140912D02*
G01*
X146346942Y-76214195D01*
X146167397Y-76218310D01*
X145987853Y-76222425D01*
X145987853Y-76309914D01*
X145987853Y-76397403D01*
X146127092Y-76397403D01*
X146266330Y-76397403D01*
X146266330Y-76470687D01*
X146266330Y-76543970D01*
X146127092Y-76543970D01*
X145987853Y-76543970D01*
X145987853Y-76632648D01*
X145987853Y-76721326D01*
X146174726Y-76718918D01*
X146361598Y-76716509D01*
X146361598Y-76787798D01*
X146361598Y-76859088D01*
X146094114Y-76863083D01*
X145826630Y-76867078D01*
X145826629Y-76467353D01*
X145826629Y-76067628D01*
X146091087Y-76067628D01*
X146355546Y-76067628D01*
X146351244Y-76140912D01*
G37*
G36*
X148613391Y-74668798D02*
G01*
X148641988Y-74683145D01*
X148684130Y-74708229D01*
X148743593Y-74745917D01*
X148814393Y-74791735D01*
X148887166Y-74839874D01*
X148937871Y-74875826D01*
X148969705Y-74902265D01*
X148985865Y-74921865D01*
X148989550Y-74937302D01*
X148989445Y-74938151D01*
X148981179Y-74960928D01*
X148962863Y-74968676D01*
X148931268Y-74960576D01*
X148883168Y-74935812D01*
X148816590Y-74894384D01*
X148754334Y-74854626D01*
X148692427Y-74816277D01*
X148640601Y-74785324D01*
X148622389Y-74774975D01*
X148573795Y-74741216D01*
X148553432Y-74709526D01*
X148561659Y-74680629D01*
X148571090Y-74671523D01*
X148581720Y-74664854D01*
X148594561Y-74663323D01*
X148613391Y-74668798D01*
G37*
G36*
X147251991Y-73116176D02*
G01*
X147306635Y-73150566D01*
X147378417Y-73196232D01*
X147459923Y-73248431D01*
X147543740Y-73302422D01*
X147590142Y-73332462D01*
X147807377Y-73473399D01*
X147873913Y-73595129D01*
X147901809Y-73648460D01*
X147922115Y-73691773D01*
X147932130Y-73719048D01*
X147932215Y-73725093D01*
X147913727Y-73731345D01*
X147877132Y-73737224D01*
X147860966Y-73738896D01*
X147829524Y-73740542D01*
X147805453Y-73736151D01*
X147781918Y-73721642D01*
X147752087Y-73692935D01*
X147713568Y-73650876D01*
X147673610Y-73609977D01*
X147626294Y-73568809D01*
X147567187Y-73524044D01*
X147491858Y-73472354D01*
X147395876Y-73410412D01*
X147380129Y-73400474D01*
X147131073Y-73243659D01*
X147131073Y-73142243D01*
X147131073Y-73040826D01*
X147251991Y-73116176D01*
G37*
G36*
X142686843Y-76978256D02*
G01*
X142695327Y-76986345D01*
X142701812Y-77001040D01*
X142706634Y-77026127D01*
X142710132Y-77065391D01*
X142712643Y-77122619D01*
X142714504Y-77201596D01*
X142716050Y-77305842D01*
X142717012Y-77421686D01*
X142716230Y-77510975D01*
X142713153Y-77576444D01*
X142707233Y-77620827D01*
X142697920Y-77646858D01*
X142684665Y-77657272D01*
X142666920Y-77654803D01*
X142648006Y-77644687D01*
X142641217Y-77635050D01*
X142636191Y-77613710D01*
X142632752Y-77577331D01*
X142630724Y-77522580D01*
X142629931Y-77446124D01*
X142630198Y-77344629D01*
X142630437Y-77311472D01*
X142631872Y-77210442D01*
X142634362Y-77122857D01*
X142637715Y-77052481D01*
X142641745Y-77003073D01*
X142646260Y-76978397D01*
X142647289Y-76976671D01*
X142671542Y-76971216D01*
X142686843Y-76978256D01*
G37*
G36*
X144750202Y-74663434D02*
G01*
X144770628Y-74685486D01*
X144784668Y-74706709D01*
X144786007Y-74711738D01*
X144774522Y-74726134D01*
X144745631Y-74747697D01*
X144731044Y-74756811D01*
X144697098Y-74777595D01*
X144645611Y-74809858D01*
X144583646Y-74849146D01*
X144519960Y-74889916D01*
X144460465Y-74927860D01*
X144410274Y-74959240D01*
X144374281Y-74981041D01*
X144357382Y-74990248D01*
X144356867Y-74990363D01*
X144343043Y-74980554D01*
X144330631Y-74967150D01*
X144319313Y-74938619D01*
X144326554Y-74919516D01*
X144341917Y-74906124D01*
X144376683Y-74880868D01*
X144425690Y-74847117D01*
X144483776Y-74808238D01*
X144545778Y-74767601D01*
X144606536Y-74728574D01*
X144660886Y-74694524D01*
X144703668Y-74668822D01*
X144729719Y-74654835D01*
X144734567Y-74653260D01*
X144750202Y-74663434D01*
G37*
G36*
X146188940Y-73054395D02*
G01*
X146191964Y-73089354D01*
X146193047Y-73135749D01*
X146193047Y-73230471D01*
X146108771Y-73287278D01*
X146064070Y-73316852D01*
X146002230Y-73357011D01*
X145930956Y-73402786D01*
X145857954Y-73449205D01*
X145847814Y-73455612D01*
X145747822Y-73522072D01*
X145670208Y-73581605D01*
X145610090Y-73638061D01*
X145593980Y-73655842D01*
X145550755Y-73703062D01*
X145516743Y-73730537D01*
X145483377Y-73741825D01*
X145442085Y-73740485D01*
X145405251Y-73734203D01*
X145379558Y-73726439D01*
X145372273Y-73720342D01*
X145378746Y-73704928D01*
X145396071Y-73669997D01*
X145421110Y-73621790D01*
X145434564Y-73596482D01*
X145496855Y-73480132D01*
X145836560Y-73260579D01*
X145925589Y-73203228D01*
X146006504Y-73151466D01*
X146076070Y-73107332D01*
X146131054Y-73072866D01*
X146168223Y-73050107D01*
X146184344Y-73041094D01*
X146184656Y-73041027D01*
X146188940Y-73054395D01*
G37*
G36*
X147177699Y-77542044D02*
G01*
X147182371Y-77777973D01*
X147226341Y-77813120D01*
X147279454Y-77842866D01*
X147333304Y-77844796D01*
X147370602Y-77832140D01*
X147395049Y-77817188D01*
X147413012Y-77795031D01*
X147425431Y-77761446D01*
X147433246Y-77712208D01*
X147437396Y-77643093D01*
X147438822Y-77549877D01*
X147438863Y-77525277D01*
X147438863Y-77306116D01*
X147504818Y-77306116D01*
X147570773Y-77306116D01*
X147570691Y-77522302D01*
X147569395Y-77630035D01*
X147564936Y-77713305D01*
X147556317Y-77776885D01*
X147542543Y-77825546D01*
X147522618Y-77864057D01*
X147495547Y-77897191D01*
X147491627Y-77901177D01*
X147422403Y-77950913D01*
X147342494Y-77974304D01*
X147255648Y-77970518D01*
X147220389Y-77961394D01*
X147156267Y-77926931D01*
X147102155Y-77871654D01*
X147065698Y-77803968D01*
X147059951Y-77784969D01*
X147053705Y-77745348D01*
X147048510Y-77684170D01*
X147044843Y-77609186D01*
X147043182Y-77528145D01*
X147043133Y-77512148D01*
X147043133Y-77306116D01*
X147108080Y-77306116D01*
X147173026Y-77306116D01*
X147177699Y-77542044D01*
G37*
G36*
X150135741Y-78612271D02*
G01*
X150296754Y-78612271D01*
X150303500Y-78653293D01*
X150319702Y-78680710D01*
X150322562Y-78682669D01*
X150371183Y-78697100D01*
X150420361Y-78689847D01*
X150445989Y-78674243D01*
X150468689Y-78635998D01*
X150469378Y-78590126D01*
X150448536Y-78549423D01*
X150415354Y-78529866D01*
X150371452Y-78523042D01*
X150330780Y-78529909D01*
X150314501Y-78540208D01*
X150300181Y-78570343D01*
X150296754Y-78612271D01*
X150135741Y-78612271D01*
X150135689Y-78610560D01*
X150147501Y-78525223D01*
X150183554Y-78455921D01*
X150244775Y-78400916D01*
X150249261Y-78398038D01*
X150295784Y-78368725D01*
X150296348Y-78108569D01*
X150296913Y-77848413D01*
X150344547Y-77846462D01*
X150394603Y-77844813D01*
X150436151Y-77843914D01*
X150480121Y-77843318D01*
X150480660Y-78100394D01*
X150481199Y-78357470D01*
X150535523Y-78408704D01*
X150590963Y-78477619D01*
X150622676Y-78553879D01*
X150630729Y-78632239D01*
X150615187Y-78707457D01*
X150576116Y-78774289D01*
X150530422Y-78816463D01*
X150464360Y-78847161D01*
X150387502Y-78857770D01*
X150310800Y-78847857D01*
X150260704Y-78827128D01*
X150193925Y-78775675D01*
X150153192Y-78712417D01*
X150136396Y-78633698D01*
X150135741Y-78612271D01*
G37*
G36*
X146318405Y-77637335D02*
G01*
X146450648Y-77637335D01*
X146460776Y-77713753D01*
X146493034Y-77773111D01*
X146549267Y-77819745D01*
X146608609Y-77844706D01*
X146665441Y-77842672D01*
X146705464Y-77826721D01*
X146766899Y-77780060D01*
X146805140Y-77718303D01*
X146818337Y-77646448D01*
X146804639Y-77569491D01*
X146802679Y-77564184D01*
X146767139Y-77495362D01*
X146721726Y-77452622D01*
X146663545Y-77433575D01*
X146642628Y-77432111D01*
X146567305Y-77442208D01*
X146509596Y-77475275D01*
X146470787Y-77529937D01*
X146452164Y-77604818D01*
X146450648Y-77637335D01*
X146318405Y-77637335D01*
X146316555Y-77608976D01*
X146334719Y-77520176D01*
X146373896Y-77439704D01*
X146430946Y-77372880D01*
X146502728Y-77325027D01*
X146555004Y-77306803D01*
X146645522Y-77298644D01*
X146728506Y-77315567D01*
X146801581Y-77353801D01*
X146862373Y-77409574D01*
X146908507Y-77479114D01*
X146937610Y-77558647D01*
X146947306Y-77644402D01*
X146935222Y-77732607D01*
X146898983Y-77819488D01*
X146888474Y-77836610D01*
X146834124Y-77896407D01*
X146762887Y-77940917D01*
X146682732Y-77967306D01*
X146601632Y-77972741D01*
X146541275Y-77960042D01*
X146453272Y-77915394D01*
X146387798Y-77853317D01*
X146342886Y-77771483D01*
X146322545Y-77700779D01*
X146318405Y-77637335D01*
G37*
G36*
X147889556Y-77308307D02*
G01*
X147985039Y-77314789D01*
X148056749Y-77328281D01*
X148109854Y-77351141D01*
X148149522Y-77385725D01*
X148180922Y-77434393D01*
X148185313Y-77443207D01*
X148210128Y-77511438D01*
X148211986Y-77573614D01*
X148190832Y-77640755D01*
X148184241Y-77654911D01*
X148141279Y-77714307D01*
X148079124Y-77753250D01*
X147996433Y-77772424D01*
X147948852Y-77774808D01*
X147865246Y-77775130D01*
X147860912Y-77874062D01*
X147857903Y-77926601D01*
X147852874Y-77956477D01*
X147843134Y-77970334D01*
X147825995Y-77974813D01*
X147819936Y-77975265D01*
X147780510Y-77974284D01*
X147757646Y-77970526D01*
X147749331Y-77966157D01*
X147743025Y-77955792D01*
X147738452Y-77935834D01*
X147735340Y-77902685D01*
X147733414Y-77852747D01*
X147732401Y-77782421D01*
X147732029Y-77688111D01*
X147731996Y-77633195D01*
X147731996Y-77419740D01*
X147863906Y-77419740D01*
X147863906Y-77538808D01*
X147863906Y-77657876D01*
X147937856Y-77657876D01*
X147989436Y-77654357D01*
X148024470Y-77641135D01*
X148047781Y-77621901D01*
X148077488Y-77573810D01*
X148081344Y-77520100D01*
X148058855Y-77469215D01*
X148056878Y-77466707D01*
X148031062Y-77444946D01*
X147992009Y-77432273D01*
X147946953Y-77426627D01*
X147863906Y-77419740D01*
X147731996Y-77419740D01*
X147731996Y-77302874D01*
X147889556Y-77308307D01*
G37*
G36*
X145505520Y-77323900D02*
G01*
X145550583Y-77346525D01*
X145582931Y-77371087D01*
X145588899Y-77395070D01*
X145568841Y-77424830D01*
X145555649Y-77437869D01*
X145530516Y-77459401D01*
X145510940Y-77464020D01*
X145483622Y-77452913D01*
X145469795Y-77445543D01*
X145404676Y-77425297D01*
X145339329Y-77430332D01*
X145279059Y-77457142D01*
X145229169Y-77502223D01*
X145194966Y-77562067D01*
X145181754Y-77633171D01*
X145181737Y-77635891D01*
X145195889Y-77711302D01*
X145238158Y-77778892D01*
X145270275Y-77810026D01*
X145316443Y-77836567D01*
X145369181Y-77848549D01*
X145421864Y-77847185D01*
X145467868Y-77833687D01*
X145500568Y-77809268D01*
X145513339Y-77775139D01*
X145512704Y-77765652D01*
X145504532Y-77748838D01*
X145481589Y-77742697D01*
X145447880Y-77743657D01*
X145386930Y-77748058D01*
X145386930Y-77680982D01*
X145386930Y-77613906D01*
X145504183Y-77613906D01*
X145621437Y-77613906D01*
X145621437Y-77759166D01*
X145621437Y-77904425D01*
X145555272Y-77936454D01*
X145466972Y-77966689D01*
X145375684Y-77975983D01*
X145290457Y-77963906D01*
X145255020Y-77950702D01*
X145167918Y-77895766D01*
X145104661Y-77824843D01*
X145066345Y-77740434D01*
X145054064Y-77645038D01*
X145068913Y-77541153D01*
X145071506Y-77531856D01*
X145110566Y-77444374D01*
X145168954Y-77375693D01*
X145242156Y-77327559D01*
X145325660Y-77301718D01*
X145414953Y-77299917D01*
X145505520Y-77323900D01*
G37*
G36*
X145461850Y-78622992D02*
G01*
X145504257Y-78655689D01*
X145526356Y-78699354D01*
X145530970Y-78713931D01*
X145539916Y-78729158D01*
X145555653Y-78746939D01*
X145580643Y-78769173D01*
X145617348Y-78797763D01*
X145668229Y-78834612D01*
X145735747Y-78881620D01*
X145822362Y-78940689D01*
X145930538Y-79013722D01*
X145951212Y-79027638D01*
X146018158Y-79073366D01*
X146077254Y-79115003D01*
X146123801Y-79149139D01*
X146153099Y-79172367D01*
X146160069Y-79179143D01*
X146166320Y-79195865D01*
X146171129Y-79229880D01*
X146174617Y-79283699D01*
X146176906Y-79359832D01*
X146178116Y-79460791D01*
X146178390Y-79558716D01*
X146177958Y-79657382D01*
X146176745Y-79745525D01*
X146174874Y-79819171D01*
X146172466Y-79874348D01*
X146169645Y-79907083D01*
X146167397Y-79914526D01*
X146149979Y-79907115D01*
X146115818Y-79888337D01*
X146079917Y-79866892D01*
X146003428Y-79819734D01*
X146002434Y-79548586D01*
X146001440Y-79277438D01*
X145939684Y-79238194D01*
X145907169Y-79216510D01*
X145856344Y-79181383D01*
X145792613Y-79136603D01*
X145721379Y-79085960D01*
X145668011Y-79047658D01*
X145594880Y-78995578D01*
X145525355Y-78947210D01*
X145464801Y-78906200D01*
X145418581Y-78876195D01*
X145396863Y-78863276D01*
X145343054Y-78829245D01*
X145312530Y-78795096D01*
X145300082Y-78753827D01*
X145298990Y-78731674D01*
X145311003Y-78681803D01*
X145341961Y-78639945D01*
X145384242Y-78614508D01*
X145408764Y-78610560D01*
X145461850Y-78622992D01*
G37*
G36*
X144852200Y-74905238D02*
G01*
X144853962Y-74906002D01*
X144875406Y-74919103D01*
X144885210Y-74938785D01*
X144886666Y-74974383D01*
X144885613Y-74995759D01*
X144881275Y-75069118D01*
X144502135Y-75306741D01*
X144383149Y-75381020D01*
X144286381Y-75441302D01*
X144209602Y-75489761D01*
X144150581Y-75528574D01*
X144107088Y-75559915D01*
X144076893Y-75585959D01*
X144057765Y-75608881D01*
X144047474Y-75630855D01*
X144043790Y-75654057D01*
X144044483Y-75680661D01*
X144047321Y-75712843D01*
X144049840Y-75747814D01*
X144055574Y-75821304D01*
X144064045Y-75879213D01*
X144074294Y-75915476D01*
X144077165Y-75920659D01*
X144095803Y-75969657D01*
X144085458Y-76019584D01*
X144054301Y-76061427D01*
X144002479Y-76096578D01*
X143947562Y-76105312D01*
X143895425Y-76087499D01*
X143869265Y-76065488D01*
X143840746Y-76016728D01*
X143834131Y-75962020D01*
X143850378Y-75911983D01*
X143854842Y-75905542D01*
X143864386Y-75885003D01*
X143870906Y-75850065D01*
X143874840Y-75796320D01*
X143876624Y-75719363D01*
X143876827Y-75683637D01*
X143877294Y-75490182D01*
X143924928Y-75453981D01*
X143948583Y-75437663D01*
X143993832Y-75407986D01*
X144057367Y-75367062D01*
X144135884Y-75317001D01*
X144226074Y-75259913D01*
X144324633Y-75197911D01*
X144395268Y-75153692D01*
X144509741Y-75082332D01*
X144602110Y-75025246D01*
X144675024Y-74981006D01*
X144731129Y-74948180D01*
X144773073Y-74925340D01*
X144803505Y-74911056D01*
X144825071Y-74903897D01*
X144840420Y-74902434D01*
X144852200Y-74905238D01*
G37*
G36*
X147677617Y-76532567D02*
G01*
X147851692Y-76532567D01*
X147862146Y-76538744D01*
X147894240Y-76542885D01*
X147928426Y-76543970D01*
X148010045Y-76543970D01*
X147980013Y-76467778D01*
X147955602Y-76408512D01*
X147937682Y-76376076D01*
X147922964Y-76369668D01*
X147908158Y-76388485D01*
X147889974Y-76431725D01*
X147885123Y-76444627D01*
X147868523Y-76488852D01*
X147856045Y-76521575D01*
X147851692Y-76532567D01*
X147677617Y-76532567D01*
X147706499Y-76461270D01*
X147713399Y-76444364D01*
X147870853Y-76058954D01*
X147927407Y-76063291D01*
X147959865Y-76067645D01*
X147981001Y-76079079D01*
X147998123Y-76104482D01*
X148017495Y-76148240D01*
X148084438Y-76309453D01*
X148140669Y-76445542D01*
X148186922Y-76558371D01*
X148223932Y-76649802D01*
X148252434Y-76721696D01*
X148273163Y-76775917D01*
X148286855Y-76814326D01*
X148294243Y-76838787D01*
X148296063Y-76851162D01*
X148295567Y-76852910D01*
X148277043Y-76861120D01*
X148240215Y-76865911D01*
X148222341Y-76866416D01*
X148187553Y-76865407D01*
X148164671Y-76858510D01*
X148146531Y-76839920D01*
X148125966Y-76803835D01*
X148112579Y-76777505D01*
X148067697Y-76688594D01*
X147927981Y-76692319D01*
X147788265Y-76696044D01*
X147745263Y-76781230D01*
X147702261Y-76866416D01*
X147629189Y-76866416D01*
X147578982Y-76862851D01*
X147557078Y-76852174D01*
X147556031Y-76848096D01*
X147561367Y-76830248D01*
X147576481Y-76788926D01*
X147599961Y-76727747D01*
X147630399Y-76650333D01*
X147666382Y-76560300D01*
X147677617Y-76532567D01*
G37*
G36*
X148509115Y-74895155D02*
G01*
X148550502Y-74913335D01*
X148609099Y-74947059D01*
X148663309Y-74981053D01*
X148713287Y-75012770D01*
X148782848Y-75056626D01*
X148866682Y-75109286D01*
X148959475Y-75167417D01*
X149055915Y-75227685D01*
X149117051Y-75265810D01*
X149439498Y-75466705D01*
X149443595Y-75671223D01*
X149446415Y-75763263D01*
X149450852Y-75829240D01*
X149457251Y-75872379D01*
X149465956Y-75895903D01*
X149467882Y-75898401D01*
X149491464Y-75945020D01*
X149491835Y-75998929D01*
X149469736Y-76050515D01*
X149454821Y-76068294D01*
X149407122Y-76097104D01*
X149350851Y-76103753D01*
X149297605Y-76087212D01*
X149290884Y-76082869D01*
X149263192Y-76053773D01*
X149242007Y-76017233D01*
X149232274Y-75985379D01*
X149235363Y-75956367D01*
X149252882Y-75916996D01*
X149254643Y-75913601D01*
X149270858Y-75875767D01*
X149280435Y-75833101D01*
X149284829Y-75776627D01*
X149285603Y-75722862D01*
X149285603Y-75591520D01*
X149186670Y-75526876D01*
X149144085Y-75499516D01*
X149081952Y-75460215D01*
X149005699Y-75412376D01*
X148920754Y-75359403D01*
X148832547Y-75304698D01*
X148809261Y-75290310D01*
X148702858Y-75224489D01*
X148618821Y-75171961D01*
X148554518Y-75130717D01*
X148507311Y-75098745D01*
X148474568Y-75074037D01*
X148453653Y-75054583D01*
X148441931Y-75038373D01*
X148436767Y-75023397D01*
X148435527Y-75007646D01*
X148435516Y-75005228D01*
X148441050Y-74957880D01*
X148450440Y-74923705D01*
X148462862Y-74901358D01*
X148481161Y-74891502D01*
X148509115Y-74895155D01*
G37*
G36*
X149072604Y-76120759D02*
G01*
X149075085Y-76153947D01*
X149076922Y-76211248D01*
X149078053Y-76287469D01*
X149078415Y-76377414D01*
X149077945Y-76475889D01*
X149077440Y-76521985D01*
X149073081Y-76859088D01*
X149014455Y-76863038D01*
X148980328Y-76863433D01*
X148956102Y-76855316D01*
X148932890Y-76833227D01*
X148904530Y-76795509D01*
X148860569Y-76735541D01*
X148811828Y-76671156D01*
X148761690Y-76606577D01*
X148713542Y-76546029D01*
X148670767Y-76493736D01*
X148636752Y-76453921D01*
X148614881Y-76430809D01*
X148608988Y-76426717D01*
X148604726Y-76440528D01*
X148601108Y-76478584D01*
X148598418Y-76535820D01*
X148596938Y-76607169D01*
X148596740Y-76646566D01*
X148596740Y-76866416D01*
X148516128Y-76866416D01*
X148435516Y-76866416D01*
X148435516Y-76463358D01*
X148435516Y-76060300D01*
X148491681Y-76060300D01*
X148524198Y-76062690D01*
X148549198Y-76073541D01*
X148574813Y-76098377D01*
X148605270Y-76137464D01*
X148662697Y-76213953D01*
X148719871Y-76288892D01*
X148773954Y-76358686D01*
X148822109Y-76419742D01*
X148861498Y-76468465D01*
X148889286Y-76501263D01*
X148902633Y-76514541D01*
X148903063Y-76514657D01*
X148906181Y-76500862D01*
X148908813Y-76462923D01*
X148910743Y-76406007D01*
X148911757Y-76335282D01*
X148911858Y-76303356D01*
X148912417Y-76227574D01*
X148913953Y-76162625D01*
X148916257Y-76113957D01*
X148919117Y-76087016D01*
X148920345Y-76083569D01*
X148938820Y-76076663D01*
X148975765Y-76068981D01*
X148996119Y-76065860D01*
X149063407Y-76056637D01*
X149072604Y-76120759D01*
G37*
G36*
X145990064Y-77308499D02*
G01*
X146057328Y-77317063D01*
X146108792Y-77333929D01*
X146151072Y-77361220D01*
X146188621Y-77398583D01*
X146231304Y-77467336D01*
X146247356Y-77542026D01*
X146237046Y-77616947D01*
X146200645Y-77686393D01*
X146173568Y-77716503D01*
X146148010Y-77743304D01*
X146135058Y-77761898D01*
X146134673Y-77763643D01*
X146141978Y-77780234D01*
X146161486Y-77814287D01*
X146189181Y-77858844D01*
X146193047Y-77864847D01*
X146221566Y-77910548D01*
X146242421Y-77946966D01*
X146251557Y-77966977D01*
X146251673Y-77967939D01*
X146238681Y-77975754D01*
X146206293Y-77980042D01*
X146194110Y-77980323D01*
X146161660Y-77977975D01*
X146135508Y-77967935D01*
X146110722Y-77945708D01*
X146082373Y-77906798D01*
X146045528Y-77846711D01*
X146043177Y-77842735D01*
X146017806Y-77803096D01*
X145996275Y-77782989D01*
X145969019Y-77775879D01*
X145944244Y-77775130D01*
X145885257Y-77775130D01*
X145885257Y-77877726D01*
X145885257Y-77980323D01*
X145828339Y-77980323D01*
X145789157Y-77977068D01*
X145769548Y-77964188D01*
X145762585Y-77947345D01*
X145759905Y-77923108D01*
X145757532Y-77874510D01*
X145755599Y-77806504D01*
X145754239Y-77724043D01*
X145753584Y-77632080D01*
X145753547Y-77610242D01*
X145753424Y-77423370D01*
X145885257Y-77423370D01*
X145885257Y-77540623D01*
X145885257Y-77657876D01*
X145972133Y-77657876D01*
X146023271Y-77656243D01*
X146055007Y-77649185D01*
X146077168Y-77633466D01*
X146089386Y-77619258D01*
X146116965Y-77566494D01*
X146117864Y-77516974D01*
X146094714Y-77474450D01*
X146050143Y-77442677D01*
X145986782Y-77425409D01*
X145952175Y-77423370D01*
X145885257Y-77423370D01*
X145753424Y-77423370D01*
X145753347Y-77306116D01*
X145900384Y-77306116D01*
X145990064Y-77308499D01*
G37*
G36*
X144292993Y-76547445D02*
G01*
X144468145Y-76547445D01*
X144479276Y-76554836D01*
X144510026Y-76557058D01*
X144542617Y-76556665D01*
X144587259Y-76554852D01*
X144617100Y-76552139D01*
X144624783Y-76549920D01*
X144619656Y-76531091D01*
X144606739Y-76494747D01*
X144589730Y-76450345D01*
X144572328Y-76407337D01*
X144558231Y-76375178D01*
X144551973Y-76363777D01*
X144541586Y-76369697D01*
X144525503Y-76396975D01*
X144511236Y-76429732D01*
X144492621Y-76477453D01*
X144477127Y-76516909D01*
X144470757Y-76532944D01*
X144468145Y-76547445D01*
X144292993Y-76547445D01*
X144296374Y-76539240D01*
X144330510Y-76456195D01*
X144351617Y-76404732D01*
X144394254Y-76300416D01*
X144427221Y-76219984D01*
X144452256Y-76160315D01*
X144471097Y-76118291D01*
X144485481Y-76090791D01*
X144497148Y-76074697D01*
X144507834Y-76066890D01*
X144519278Y-76064249D01*
X144533219Y-76063656D01*
X144541954Y-76063128D01*
X144579736Y-76063775D01*
X144602135Y-76078660D01*
X144614923Y-76099769D01*
X144627458Y-76127053D01*
X144648130Y-76175231D01*
X144675193Y-76239961D01*
X144706899Y-76316907D01*
X144741498Y-76401730D01*
X144777244Y-76490089D01*
X144812387Y-76577647D01*
X144845181Y-76660064D01*
X144873877Y-76733002D01*
X144896727Y-76792122D01*
X144911983Y-76833085D01*
X144917897Y-76851552D01*
X144917917Y-76851847D01*
X144904727Y-76860119D01*
X144870966Y-76865398D01*
X144843820Y-76866416D01*
X144769724Y-76866416D01*
X144730231Y-76778961D01*
X144690738Y-76691506D01*
X144550236Y-76691021D01*
X144409733Y-76690536D01*
X144371789Y-76778476D01*
X144333844Y-76866416D01*
X144251148Y-76866416D01*
X144204588Y-76865659D01*
X144181150Y-76861515D01*
X144174646Y-76851182D01*
X144178408Y-76833439D01*
X144188500Y-76804965D01*
X144206614Y-76758144D01*
X144229373Y-76701635D01*
X144236967Y-76683208D01*
X144263566Y-76618864D01*
X144292993Y-76547445D01*
G37*
G36*
X145051942Y-76701381D02*
G01*
X145052599Y-76633783D01*
X145225707Y-76633783D01*
X145225707Y-76719850D01*
X145325042Y-76719850D01*
X145401640Y-76715118D01*
X145450590Y-76700932D01*
X145456952Y-76697034D01*
X145482237Y-76663404D01*
X145489459Y-76618439D01*
X145476494Y-76575406D01*
X145476430Y-76575306D01*
X145451984Y-76558530D01*
X145407894Y-76545434D01*
X145353763Y-76537780D01*
X145299199Y-76537332D01*
X145280669Y-76539368D01*
X145225707Y-76547716D01*
X145225707Y-76633783D01*
X145052599Y-76633783D01*
X145052882Y-76604616D01*
X145054778Y-76486693D01*
X145057607Y-76349644D01*
X145060712Y-76221523D01*
X145225707Y-76221523D01*
X145225707Y-76309463D01*
X145225707Y-76397403D01*
X145302654Y-76397187D01*
X145354718Y-76393543D01*
X145400178Y-76384525D01*
X145416243Y-76378532D01*
X145446792Y-76350654D01*
X145457549Y-76311836D01*
X145457011Y-76269466D01*
X145442571Y-76242393D01*
X145409789Y-76227558D01*
X145354228Y-76221902D01*
X145326509Y-76221523D01*
X145225707Y-76221523D01*
X145060712Y-76221523D01*
X145061343Y-76195504D01*
X145064178Y-76089613D01*
X145069707Y-76079276D01*
X145088746Y-76072219D01*
X145125985Y-76067644D01*
X145186116Y-76064751D01*
X145214866Y-76063953D01*
X145288371Y-76063922D01*
X145360230Y-76066904D01*
X145419415Y-76072320D01*
X145440985Y-76075797D01*
X145514679Y-76102900D01*
X145571801Y-76147576D01*
X145610335Y-76204652D01*
X145628266Y-76268955D01*
X145623579Y-76335313D01*
X145594258Y-76398554D01*
X145575618Y-76421356D01*
X145545045Y-76453899D01*
X145596447Y-76505300D01*
X145640974Y-76567558D01*
X145659579Y-76634804D01*
X145653789Y-76701745D01*
X145625133Y-76763089D01*
X145575138Y-76813543D01*
X145505333Y-76847812D01*
X145496855Y-76850273D01*
X145459399Y-76856474D01*
X145400663Y-76861567D01*
X145328673Y-76865029D01*
X145251455Y-76866334D01*
X145250896Y-76866335D01*
X145171121Y-76865785D01*
X145116130Y-76863718D01*
X145081412Y-76859627D01*
X145062455Y-76853006D01*
X145055108Y-76844382D01*
X145053031Y-76823298D01*
X145051984Y-76774953D01*
X145051953Y-76719850D01*
X145051942Y-76701381D01*
G37*
G36*
X144963923Y-79364879D02*
G01*
X145137767Y-79364879D01*
X145147653Y-79427603D01*
X145179666Y-79475354D01*
X145233035Y-79511414D01*
X145267236Y-79527583D01*
X145291923Y-79532062D01*
X145320413Y-79524945D01*
X145351831Y-79512244D01*
X145412972Y-79475461D01*
X145448393Y-79425901D01*
X145459726Y-79363690D01*
X145447439Y-79296807D01*
X145410652Y-79245302D01*
X145351259Y-79211808D01*
X145350008Y-79211390D01*
X145281808Y-79202105D01*
X145221540Y-79218351D01*
X145174234Y-79256493D01*
X145144920Y-79312892D01*
X145137767Y-79364879D01*
X144963923Y-79364879D01*
X144973278Y-79294929D01*
X145004424Y-79213288D01*
X145050790Y-79145668D01*
X145060375Y-79135895D01*
X145139595Y-79072578D01*
X145217921Y-79037033D01*
X145299253Y-79028115D01*
X145379292Y-79042211D01*
X145470485Y-79082442D01*
X145542325Y-79142818D01*
X145592350Y-79220115D01*
X145618101Y-79311107D01*
X145621115Y-79359013D01*
X145611858Y-79435142D01*
X145587594Y-79511992D01*
X145552719Y-79577074D01*
X145537748Y-79595957D01*
X145522924Y-79616884D01*
X145527576Y-79635238D01*
X145542218Y-79652978D01*
X145568950Y-79677304D01*
X145615906Y-79714420D01*
X145678696Y-79761197D01*
X145752931Y-79814506D01*
X145834220Y-79871217D01*
X145918175Y-79928201D01*
X146000405Y-79982329D01*
X146037597Y-80006137D01*
X146193047Y-80104600D01*
X146192822Y-80189346D01*
X146190938Y-80238377D01*
X146186309Y-80276181D01*
X146181830Y-80290723D01*
X146165880Y-80288593D01*
X146126840Y-80269185D01*
X146065118Y-80232739D01*
X145981125Y-80179498D01*
X145877928Y-80111480D01*
X145776690Y-80042551D01*
X145679997Y-79974310D01*
X145590752Y-79909013D01*
X145511860Y-79848916D01*
X145446221Y-79796275D01*
X145396741Y-79753347D01*
X145366320Y-79722388D01*
X145357617Y-79707075D01*
X145344506Y-79699985D01*
X145311312Y-79695715D01*
X145291191Y-79695153D01*
X145204524Y-79683513D01*
X145125247Y-79646850D01*
X145080710Y-79613697D01*
X145039031Y-79567270D01*
X145001639Y-79506128D01*
X144974146Y-79441365D01*
X144962160Y-79384073D01*
X144962030Y-79379031D01*
X144963923Y-79364879D01*
G37*
G36*
X146188964Y-72644045D02*
G01*
X146191876Y-72679260D01*
X146193045Y-72728787D01*
X146193047Y-72730965D01*
X146191082Y-72790271D01*
X146184195Y-72827553D01*
X146170898Y-72849902D01*
X146167397Y-72853154D01*
X146149584Y-72865805D01*
X146109957Y-72892368D01*
X146051397Y-72930962D01*
X145976786Y-72979704D01*
X145889005Y-73036713D01*
X145790935Y-73100108D01*
X145685459Y-73168007D01*
X145672735Y-73176179D01*
X145548554Y-73255946D01*
X145415729Y-73341317D01*
X145280244Y-73428440D01*
X145148085Y-73513465D01*
X145025239Y-73592541D01*
X144917692Y-73661818D01*
X144865879Y-73695220D01*
X144753509Y-73767290D01*
X144624874Y-73849133D01*
X144488716Y-73935227D01*
X144353777Y-74020054D01*
X144228802Y-74098092D01*
X144172607Y-74132948D01*
X144069332Y-74196969D01*
X143963866Y-74262600D01*
X143861811Y-74326335D01*
X143768769Y-74384672D01*
X143690343Y-74434105D01*
X143639541Y-74466388D01*
X143575447Y-74506889D01*
X143520003Y-74541016D01*
X143477919Y-74565937D01*
X143453905Y-74578824D01*
X143450478Y-74579977D01*
X143435596Y-74569591D01*
X143409011Y-74542751D01*
X143385198Y-74515549D01*
X143355670Y-74479297D01*
X143335346Y-74452584D01*
X143329506Y-74443165D01*
X143341031Y-74431944D01*
X143376668Y-74406347D01*
X143435371Y-74367039D01*
X143516095Y-74314690D01*
X143617792Y-74249966D01*
X143739418Y-74173536D01*
X143879926Y-74086067D01*
X144038270Y-73988226D01*
X144148442Y-73920501D01*
X144228768Y-73870809D01*
X144315688Y-73816375D01*
X144398471Y-73763954D01*
X144463560Y-73722138D01*
X144520380Y-73685378D01*
X144595324Y-73637110D01*
X144681793Y-73581572D01*
X144773187Y-73523004D01*
X144862905Y-73465644D01*
X144866618Y-73463273D01*
X144964696Y-73400619D01*
X145078133Y-73328086D01*
X145197620Y-73251629D01*
X145313850Y-73177206D01*
X145416243Y-73111585D01*
X145541593Y-73031397D01*
X145662606Y-72954346D01*
X145776836Y-72881962D01*
X145881837Y-72815777D01*
X145975163Y-72757320D01*
X146054367Y-72708121D01*
X146117004Y-72669712D01*
X146160628Y-72643623D01*
X146182793Y-72631383D01*
X146184917Y-72630640D01*
X146188964Y-72644045D01*
G37*
G36*
X147153092Y-72653018D02*
G01*
X147191313Y-72675543D01*
X147251158Y-72711913D01*
X147331081Y-72761171D01*
X147429536Y-72822357D01*
X147544978Y-72894514D01*
X147675861Y-72976683D01*
X147820640Y-73067906D01*
X147871235Y-73099854D01*
X147962382Y-73157375D01*
X148050948Y-73213152D01*
X148132099Y-73264150D01*
X148201004Y-73307336D01*
X148252829Y-73339673D01*
X148273477Y-73352458D01*
X148309279Y-73374772D01*
X148365923Y-73410410D01*
X148439541Y-73456926D01*
X148526266Y-73511871D01*
X148622233Y-73572797D01*
X148723575Y-73637255D01*
X148771803Y-73667974D01*
X148888142Y-73741900D01*
X149013302Y-73821069D01*
X149140681Y-73901330D01*
X149263675Y-73978529D01*
X149375682Y-74048515D01*
X149470098Y-74107135D01*
X149476139Y-74110868D01*
X149568156Y-74167709D01*
X149659025Y-74223879D01*
X149743407Y-74276076D01*
X149815968Y-74320998D01*
X149871369Y-74355344D01*
X149889595Y-74366665D01*
X150002588Y-74436928D01*
X149965635Y-74485376D01*
X149937115Y-74517616D01*
X149903772Y-74548400D01*
X149873596Y-74571042D01*
X149854577Y-74578856D01*
X149854064Y-74578739D01*
X149840731Y-74570880D01*
X149808118Y-74550678D01*
X149761677Y-74521530D01*
X149725303Y-74498535D01*
X149653768Y-74453273D01*
X149574146Y-74403017D01*
X149500841Y-74356856D01*
X149483468Y-74345939D01*
X149437677Y-74317126D01*
X149372198Y-74275844D01*
X149292111Y-74225301D01*
X149202498Y-74168704D01*
X149108439Y-74109261D01*
X149047486Y-74070718D01*
X148949604Y-74008853D01*
X148849499Y-73945658D01*
X148753105Y-73884875D01*
X148666355Y-73830243D01*
X148595184Y-73785505D01*
X148564929Y-73766532D01*
X148530223Y-73744778D01*
X148495772Y-73723132D01*
X148459775Y-73700443D01*
X148420427Y-73675562D01*
X148375926Y-73647338D01*
X148324469Y-73614621D01*
X148264252Y-73576261D01*
X148193473Y-73531108D01*
X148110329Y-73478013D01*
X148013016Y-73415823D01*
X147899731Y-73343391D01*
X147768671Y-73259564D01*
X147618034Y-73163195D01*
X147446016Y-73053131D01*
X147284812Y-72949978D01*
X147131073Y-72851601D01*
X147131073Y-72748449D01*
X147131980Y-72697724D01*
X147134366Y-72660908D01*
X147137734Y-72645396D01*
X147138040Y-72645297D01*
X147153092Y-72653018D01*
G37*
G36*
X147714944Y-79383175D02*
G01*
X147881466Y-79383175D01*
X147896833Y-79428513D01*
X147901588Y-79438783D01*
X147940410Y-79490147D01*
X147993992Y-79519682D01*
X148055939Y-79525849D01*
X148119857Y-79507110D01*
X148139177Y-79495935D01*
X148175826Y-79457645D01*
X148200919Y-79404729D01*
X148209066Y-79350250D01*
X148206698Y-79332277D01*
X148181063Y-79278426D01*
X148136547Y-79232815D01*
X148083016Y-79204973D01*
X148072230Y-79202400D01*
X148008505Y-79203711D01*
X147951324Y-79228883D01*
X147908973Y-79273623D01*
X147899738Y-79291773D01*
X147882495Y-79342455D01*
X147881466Y-79383175D01*
X147714944Y-79383175D01*
X147715961Y-79324162D01*
X147718957Y-79305851D01*
X147750313Y-79211421D01*
X147805489Y-79133756D01*
X147883583Y-79073872D01*
X147952853Y-79042562D01*
X148034747Y-79028132D01*
X148117131Y-79039102D01*
X148195439Y-79071997D01*
X148265109Y-79123343D01*
X148321574Y-79189665D01*
X148360273Y-79267488D01*
X148376640Y-79353339D01*
X148376890Y-79365378D01*
X148363477Y-79450842D01*
X148326442Y-79530661D01*
X148270591Y-79599881D01*
X148200728Y-79653548D01*
X148121659Y-79686709D01*
X148056999Y-79695153D01*
X148024016Y-79697616D01*
X147993389Y-79707452D01*
X147957941Y-79728327D01*
X147910491Y-79763908D01*
X147889411Y-79780764D01*
X147848443Y-79812399D01*
X147791563Y-79854326D01*
X147722369Y-79904073D01*
X147644459Y-79959170D01*
X147561433Y-80017147D01*
X147476889Y-80075532D01*
X147394425Y-80131854D01*
X147317639Y-80183644D01*
X147250131Y-80228429D01*
X147195498Y-80263739D01*
X147157339Y-80287103D01*
X147139253Y-80296051D01*
X147138917Y-80296076D01*
X147134899Y-80282713D01*
X147132070Y-80247786D01*
X147131073Y-80202039D01*
X147130939Y-80170039D01*
X147132377Y-80144329D01*
X147138150Y-80122070D01*
X147151020Y-80100420D01*
X147173750Y-80076538D01*
X147209102Y-80047581D01*
X147259838Y-80010708D01*
X147328720Y-79963079D01*
X147418511Y-79901851D01*
X147431535Y-79892969D01*
X147505263Y-79842367D01*
X147577997Y-79791916D01*
X147642830Y-79746443D01*
X147692853Y-79710775D01*
X147706262Y-79701002D01*
X147750204Y-79669518D01*
X147785966Y-79645459D01*
X147806120Y-79633815D01*
X147806580Y-79633650D01*
X147808598Y-79619279D01*
X147795131Y-79586605D01*
X147776177Y-79553423D01*
X147734071Y-79472795D01*
X147714667Y-79399266D01*
X147714944Y-79383175D01*
G37*
G36*
X145285899Y-75230637D02*
G01*
X145450888Y-75230637D01*
X145458775Y-75291705D01*
X145485826Y-75347804D01*
X145529542Y-75393221D01*
X145587420Y-75422241D01*
X145639715Y-75429816D01*
X145682715Y-75423994D01*
X145722740Y-75402502D01*
X145751726Y-75378486D01*
X145800363Y-75319414D01*
X145821052Y-75256345D01*
X145813137Y-75191393D01*
X145811322Y-75186373D01*
X145773419Y-75121799D01*
X145720412Y-75079180D01*
X145657957Y-75059795D01*
X145591710Y-75064926D01*
X145527327Y-75095853D01*
X145502607Y-75116455D01*
X145464665Y-75170316D01*
X145450888Y-75230637D01*
X145285899Y-75230637D01*
X145286633Y-75204101D01*
X145309471Y-75115612D01*
X145350247Y-75034889D01*
X145406533Y-74968864D01*
X145460293Y-74931696D01*
X145494007Y-74912401D01*
X145511567Y-74892217D01*
X145519123Y-74860597D01*
X145521735Y-74826318D01*
X145526168Y-74750023D01*
X145764339Y-74596648D01*
X146002510Y-74443272D01*
X146002773Y-74002306D01*
X146003037Y-73561339D01*
X146075886Y-73513704D01*
X146117368Y-73488110D01*
X146149866Y-73470819D01*
X146163563Y-73466070D01*
X146166821Y-73480064D01*
X146169733Y-73519397D01*
X146172279Y-73580099D01*
X146174439Y-73658196D01*
X146176193Y-73749718D01*
X146177521Y-73850691D01*
X146178403Y-73957145D01*
X146178819Y-74065108D01*
X146178748Y-74170608D01*
X146178170Y-74269672D01*
X146177067Y-74358330D01*
X146175417Y-74432609D01*
X146173200Y-74488537D01*
X146170397Y-74522143D01*
X146168930Y-74528949D01*
X146154120Y-74544437D01*
X146118604Y-74572711D01*
X146066412Y-74610830D01*
X146001575Y-74655851D01*
X145928123Y-74704831D01*
X145927095Y-74705503D01*
X145854444Y-74753610D01*
X145791079Y-74796746D01*
X145740805Y-74832223D01*
X145707425Y-74857354D01*
X145694743Y-74869453D01*
X145694720Y-74869641D01*
X145707058Y-74882224D01*
X145737355Y-74897202D01*
X145743369Y-74899470D01*
X145808006Y-74934395D01*
X145872006Y-74988556D01*
X145926153Y-75053161D01*
X145953063Y-75099473D01*
X145981811Y-75193599D01*
X145983650Y-75288850D01*
X145960328Y-75380187D01*
X145913594Y-75462568D01*
X145845195Y-75530950D01*
X145791782Y-75564568D01*
X145733748Y-75585656D01*
X145664750Y-75598254D01*
X145597545Y-75600867D01*
X145548058Y-75593103D01*
X145456621Y-75549795D01*
X145378553Y-75486518D01*
X145320245Y-75408951D01*
X145304485Y-75376638D01*
X145284162Y-75293420D01*
X145285899Y-75230637D01*
G37*
G36*
X146408082Y-78936436D02*
G01*
X146559463Y-78936436D01*
X146571507Y-78969807D01*
X146600869Y-79003763D01*
X146637395Y-79028665D01*
X146663904Y-79035603D01*
X146700481Y-79025944D01*
X146723197Y-79011346D01*
X146746206Y-78973625D01*
X146747346Y-78929648D01*
X146730083Y-78887904D01*
X146697882Y-78856883D01*
X146655302Y-78845066D01*
X146616625Y-78857053D01*
X146581813Y-78886369D01*
X146561322Y-78923044D01*
X146559463Y-78936436D01*
X146408082Y-78936436D01*
X146407915Y-78897033D01*
X146412489Y-78875894D01*
X146445588Y-78799278D01*
X146495013Y-78742645D01*
X146556021Y-78705592D01*
X146623872Y-78687720D01*
X146693825Y-78688625D01*
X146761139Y-78707907D01*
X146821072Y-78745165D01*
X146868884Y-78799997D01*
X146899834Y-78872002D01*
X146907862Y-78917834D01*
X146903025Y-78996597D01*
X146875980Y-79070150D01*
X146830571Y-79130073D01*
X146800258Y-79153499D01*
X146750000Y-79184560D01*
X146750564Y-79619401D01*
X146751129Y-80054241D01*
X146797031Y-80083554D01*
X146847681Y-80131982D01*
X146883204Y-80198054D01*
X146901592Y-80273205D01*
X146900840Y-80348865D01*
X146878942Y-80416468D01*
X146876147Y-80421388D01*
X146824230Y-80482392D01*
X146756424Y-80522771D01*
X146679387Y-80540640D01*
X146599774Y-80534110D01*
X146547273Y-80514625D01*
X146478365Y-80464974D01*
X146431901Y-80399370D01*
X146410599Y-80322064D01*
X146409514Y-80299195D01*
X146412426Y-80277511D01*
X146567155Y-80277511D01*
X146567871Y-80310268D01*
X146592343Y-80344918D01*
X146594528Y-80347130D01*
X146639198Y-80377988D01*
X146682174Y-80379613D01*
X146720687Y-80354703D01*
X146746283Y-80312670D01*
X146745551Y-80269523D01*
X146720586Y-80231303D01*
X146673486Y-80204052D01*
X146667767Y-80202202D01*
X146631286Y-80204860D01*
X146595845Y-80229045D01*
X146570394Y-80268057D01*
X146567155Y-80277511D01*
X146412426Y-80277511D01*
X146419072Y-80228016D01*
X146444786Y-80160480D01*
X146482213Y-80105897D01*
X146514249Y-80079655D01*
X146555149Y-80056182D01*
X146564581Y-79850018D01*
X146568146Y-79755030D01*
X146571103Y-79643812D01*
X146573166Y-79529446D01*
X146574052Y-79425014D01*
X146574066Y-79413528D01*
X146573924Y-79326638D01*
X146573043Y-79264467D01*
X146570811Y-79222423D01*
X146566617Y-79195912D01*
X146559850Y-79180341D01*
X146549898Y-79171116D01*
X146541142Y-79166197D01*
X146478227Y-79118301D01*
X146432809Y-79052418D01*
X146408251Y-78976134D01*
X146408082Y-78936436D01*
G37*
G36*
X147340496Y-75217306D02*
G01*
X147508940Y-75217306D01*
X147511743Y-75276935D01*
X147532774Y-75332489D01*
X147568980Y-75379435D01*
X147617309Y-75413241D01*
X147674708Y-75429374D01*
X147738125Y-75423301D01*
X147775279Y-75408434D01*
X147818444Y-75374027D01*
X147854463Y-75324363D01*
X147875776Y-75271182D01*
X147878563Y-75248061D01*
X147865738Y-75187841D01*
X147831300Y-75129262D01*
X147796268Y-75094254D01*
X147740918Y-75067814D01*
X147676241Y-75062312D01*
X147612947Y-75077288D01*
X147570226Y-75103953D01*
X147527417Y-75158134D01*
X147508940Y-75217306D01*
X147340496Y-75217306D01*
X147340405Y-75214863D01*
X147361309Y-75123895D01*
X147407658Y-75037855D01*
X147433284Y-75006171D01*
X147476932Y-74964133D01*
X147523815Y-74928832D01*
X147554756Y-74912006D01*
X147592818Y-74894248D01*
X147618037Y-74877839D01*
X147621622Y-74873837D01*
X147613150Y-74861098D01*
X147583340Y-74835718D01*
X147535811Y-74800431D01*
X147474181Y-74757971D01*
X147428668Y-74728074D01*
X147357222Y-74681605D01*
X147291615Y-74638287D01*
X147237092Y-74601629D01*
X147198895Y-74575143D01*
X147186036Y-74565626D01*
X147145730Y-74533777D01*
X147145730Y-73999924D01*
X147145929Y-73855209D01*
X147146582Y-73737462D01*
X147147770Y-73644339D01*
X147149574Y-73573498D01*
X147152077Y-73522595D01*
X147155359Y-73489287D01*
X147159502Y-73471231D01*
X147164312Y-73466070D01*
X147187099Y-73473813D01*
X147222290Y-73493267D01*
X147236818Y-73502712D01*
X147272983Y-73525089D01*
X147300195Y-73538054D01*
X147306176Y-73539354D01*
X147311169Y-73552642D01*
X147315168Y-73592846D01*
X147318190Y-73660470D01*
X147320254Y-73756020D01*
X147321375Y-73880003D01*
X147321610Y-73986418D01*
X147321610Y-74433482D01*
X147405886Y-74493202D01*
X147452598Y-74525409D01*
X147515463Y-74567528D01*
X147585842Y-74613822D01*
X147647721Y-74653834D01*
X147805280Y-74754747D01*
X147805280Y-74827597D01*
X147807721Y-74874109D01*
X147816651Y-74898989D01*
X147831719Y-74908840D01*
X147866812Y-74929270D01*
X147909813Y-74967250D01*
X147953561Y-75015187D01*
X147990894Y-75065488D01*
X148008521Y-75096256D01*
X148032221Y-75171733D01*
X148039529Y-75258009D01*
X148030047Y-75341691D01*
X148017059Y-75382900D01*
X147969675Y-75461752D01*
X147902790Y-75525516D01*
X147822322Y-75571492D01*
X147734192Y-75596976D01*
X147644321Y-75599267D01*
X147577556Y-75583489D01*
X147488382Y-75536510D01*
X147418936Y-75471583D01*
X147370362Y-75393283D01*
X147343804Y-75306184D01*
X147340496Y-75217306D01*
G37*
G36*
X142710772Y-74764255D02*
G01*
X142875901Y-74764255D01*
X142889224Y-74807446D01*
X142909135Y-74831424D01*
X142944760Y-74853881D01*
X142976003Y-74853988D01*
X143013604Y-74831416D01*
X143017902Y-74828076D01*
X143048592Y-74790333D01*
X143055518Y-74750020D01*
X143043116Y-74712553D01*
X143015827Y-74683350D01*
X142978088Y-74667828D01*
X142934339Y-74671404D01*
X142902984Y-74687827D01*
X142880323Y-74720536D01*
X142875901Y-74764255D01*
X142710772Y-74764255D01*
X142709786Y-74757199D01*
X142713162Y-74718647D01*
X142740910Y-74640804D01*
X142788872Y-74578258D01*
X142851756Y-74533607D01*
X142924270Y-74509443D01*
X143001120Y-74508363D01*
X143077013Y-74532960D01*
X143084090Y-74536788D01*
X143150143Y-74587720D01*
X143191561Y-74653342D01*
X143209462Y-74735662D01*
X143210415Y-74763252D01*
X143208167Y-74819018D01*
X143198946Y-74858351D01*
X143179043Y-74893949D01*
X143167698Y-74909412D01*
X143132872Y-74946929D01*
X143095834Y-74975016D01*
X143083423Y-74981103D01*
X143041864Y-74996790D01*
X143041864Y-76685434D01*
X143041873Y-76943590D01*
X143041918Y-77174017D01*
X143042025Y-77378300D01*
X143042221Y-77558023D01*
X143042533Y-77714771D01*
X143042986Y-77850128D01*
X143043608Y-77965680D01*
X143044425Y-78063009D01*
X143045463Y-78143702D01*
X143046749Y-78209342D01*
X143048310Y-78261514D01*
X143050172Y-78301803D01*
X143052361Y-78331793D01*
X143054905Y-78353068D01*
X143057829Y-78367214D01*
X143061160Y-78375814D01*
X143064924Y-78380453D01*
X143069149Y-78382716D01*
X143070274Y-78383095D01*
X143106182Y-78405444D01*
X143144922Y-78445998D01*
X143179074Y-78495499D01*
X143201213Y-78544693D01*
X143201964Y-78547311D01*
X143210000Y-78600232D01*
X143208823Y-78653692D01*
X143208430Y-78656313D01*
X143187276Y-78714732D01*
X143147057Y-78772772D01*
X143096204Y-78819898D01*
X143061751Y-78839559D01*
X142994218Y-78856011D01*
X142918431Y-78856751D01*
X142849958Y-78841825D01*
X142842756Y-78838890D01*
X142784461Y-78799190D01*
X142742918Y-78742185D01*
X142718353Y-78674037D01*
X142711380Y-78604707D01*
X142868660Y-78604707D01*
X142880422Y-78649299D01*
X142900360Y-78675581D01*
X142942988Y-78700622D01*
X142988435Y-78699441D01*
X143028221Y-78672760D01*
X143034958Y-78664136D01*
X143054435Y-78616188D01*
X143048157Y-78572371D01*
X143019581Y-78539201D01*
X142972168Y-78523192D01*
X142959812Y-78522620D01*
X142911161Y-78534147D01*
X142879841Y-78563916D01*
X142868660Y-78604707D01*
X142711380Y-78604707D01*
X142710998Y-78600906D01*
X142721079Y-78528950D01*
X142748825Y-78464330D01*
X142794466Y-78413206D01*
X142826225Y-78393574D01*
X142865984Y-78374453D01*
X142865984Y-76682046D01*
X142865984Y-74989638D01*
X142831267Y-74976439D01*
X142783981Y-74944217D01*
X142745437Y-74891403D01*
X142719438Y-74826296D01*
X142710772Y-74764255D01*
G37*
G36*
X146417155Y-72624561D02*
G01*
X146564320Y-72624561D01*
X146580065Y-72652572D01*
X146580067Y-72652575D01*
X146610982Y-72685861D01*
X146647431Y-72706513D01*
X146679350Y-72709235D01*
X146684045Y-72707302D01*
X146706365Y-72691962D01*
X146724351Y-72677438D01*
X146746670Y-72641225D01*
X146745112Y-72597863D01*
X146720029Y-72556701D01*
X146719799Y-72556469D01*
X146678738Y-72533030D01*
X146634105Y-72536026D01*
X146592817Y-72564517D01*
X146584327Y-72574839D01*
X146565469Y-72603613D01*
X146564320Y-72624561D01*
X146417155Y-72624561D01*
X146415938Y-72594161D01*
X146434698Y-72514524D01*
X146473208Y-72451579D01*
X146526648Y-72406035D01*
X146590192Y-72378604D01*
X146659021Y-72369994D01*
X146728309Y-72380916D01*
X146793236Y-72412081D01*
X146848979Y-72464197D01*
X146885335Y-72525044D01*
X146904262Y-72598171D01*
X146901013Y-72673550D01*
X146877896Y-72743948D01*
X146837217Y-72802136D01*
X146785131Y-72839189D01*
X146750000Y-72855196D01*
X146750181Y-73266894D01*
X146750363Y-73678592D01*
X146799660Y-73710511D01*
X146853831Y-73761921D01*
X146891033Y-73830915D01*
X146907476Y-73908896D01*
X146906290Y-73952587D01*
X146887712Y-74022725D01*
X146852558Y-74085279D01*
X146806479Y-74131321D01*
X146785343Y-74143536D01*
X146750423Y-74159446D01*
X146746547Y-74600554D01*
X146742672Y-75041662D01*
X146659689Y-75046019D01*
X146613259Y-75046428D01*
X146579983Y-75042935D01*
X146569236Y-75038288D01*
X146567519Y-75021055D01*
X146566346Y-74978315D01*
X146565732Y-74913867D01*
X146565691Y-74831513D01*
X146566234Y-74735053D01*
X146567377Y-74628288D01*
X146567693Y-74604975D01*
X146569343Y-74482804D01*
X146570338Y-74386592D01*
X146570498Y-74312986D01*
X146569645Y-74258637D01*
X146567599Y-74220191D01*
X146564182Y-74194299D01*
X146559213Y-74177608D01*
X146552513Y-74166767D01*
X146543905Y-74158426D01*
X146543814Y-74158349D01*
X146471517Y-74088553D01*
X146425521Y-74023039D01*
X146404049Y-73957665D01*
X146404538Y-73931005D01*
X146564982Y-73931005D01*
X146580911Y-73972927D01*
X146615432Y-74000511D01*
X146649191Y-74017411D01*
X146671259Y-74019228D01*
X146695740Y-74004806D01*
X146711382Y-73992646D01*
X146743276Y-73952828D01*
X146746692Y-73907062D01*
X146726622Y-73864260D01*
X146692795Y-73838208D01*
X146649714Y-73832688D01*
X146607876Y-73846569D01*
X146577779Y-73878722D01*
X146576975Y-73880357D01*
X146564982Y-73931005D01*
X146404538Y-73931005D01*
X146405322Y-73888292D01*
X146413092Y-73853773D01*
X146445674Y-73782261D01*
X146496870Y-73720853D01*
X146533666Y-73693249D01*
X146542746Y-73684155D01*
X146549796Y-73666412D01*
X146555315Y-73635989D01*
X146559802Y-73588856D01*
X146563758Y-73520980D01*
X146567682Y-73428332D01*
X146568197Y-73414762D01*
X146570946Y-73315536D01*
X146572083Y-73213101D01*
X146571621Y-73116477D01*
X146569575Y-73034684D01*
X146567589Y-72996429D01*
X146562600Y-72927638D01*
X146557696Y-72882265D01*
X146551110Y-72854473D01*
X146541073Y-72838427D01*
X146525818Y-72828288D01*
X146515198Y-72823395D01*
X146471579Y-72789303D01*
X146438365Y-72734296D01*
X146418809Y-72665887D01*
X146417155Y-72624561D01*
G37*
G36*
X142287955Y-74440024D02*
G01*
X142499567Y-74440024D01*
X142499921Y-76726821D01*
X142500275Y-79013618D01*
X142663995Y-79111122D01*
X142827716Y-79208625D01*
X142872499Y-79174534D01*
X142903479Y-79152627D01*
X142952831Y-79119739D01*
X143016807Y-79078204D01*
X143091657Y-79030356D01*
X143173635Y-78978528D01*
X143258990Y-78925054D01*
X143343974Y-78872267D01*
X143424840Y-78822500D01*
X143497838Y-78778088D01*
X143559220Y-78741364D01*
X143605237Y-78714661D01*
X143632141Y-78700313D01*
X143637187Y-78698500D01*
X143647568Y-78706232D01*
X143651886Y-78732578D01*
X143650773Y-78782260D01*
X143650019Y-78794435D01*
X143645704Y-78845454D01*
X143640642Y-78884568D01*
X143636257Y-78902402D01*
X143628623Y-78909257D01*
X143609059Y-78923306D01*
X143575840Y-78945665D01*
X143527243Y-78977446D01*
X143461543Y-79019764D01*
X143377016Y-79073731D01*
X143271939Y-79140462D01*
X143144588Y-79221072D01*
X143072665Y-79266521D01*
X142993541Y-79316500D01*
X143145948Y-79404938D01*
X143206443Y-79440287D01*
X143285349Y-79486758D01*
X143375953Y-79540376D01*
X143471539Y-79597167D01*
X143565392Y-79653155D01*
X143576832Y-79659997D01*
X143855309Y-79826617D01*
X143863332Y-79717441D01*
X143868027Y-79663988D01*
X143873056Y-79623087D01*
X143877439Y-79602499D01*
X143877989Y-79601634D01*
X143893570Y-79603989D01*
X143927114Y-79616901D01*
X143961048Y-79632605D01*
X144037475Y-79670207D01*
X144041660Y-79801733D01*
X144045845Y-79933258D01*
X144204590Y-80034056D01*
X144264663Y-80071897D01*
X144315360Y-80103258D01*
X144351820Y-80125175D01*
X144369180Y-80134680D01*
X144369832Y-80134853D01*
X144371754Y-80121000D01*
X144372974Y-80082642D01*
X144373443Y-80024579D01*
X144373111Y-79951614D01*
X144372310Y-79890182D01*
X144368292Y-79645512D01*
X144119129Y-79490377D01*
X143869965Y-79335242D01*
X143866031Y-79004314D01*
X143862097Y-78673386D01*
X143640832Y-78535712D01*
X143546610Y-78475627D01*
X143477264Y-78428006D01*
X143431585Y-78391953D01*
X143408360Y-78366567D01*
X143405770Y-78361396D01*
X143384871Y-78324763D01*
X143356157Y-78291184D01*
X143325613Y-78248926D01*
X143324028Y-78207036D01*
X143332595Y-78188901D01*
X143349235Y-78181437D01*
X143382269Y-78187516D01*
X143433056Y-78207789D01*
X143502957Y-78242911D01*
X143593331Y-78293535D01*
X143705538Y-78360312D01*
X143763704Y-78395922D01*
X144023860Y-78556309D01*
X144023860Y-78877002D01*
X144023860Y-79197694D01*
X144166763Y-79290230D01*
X144226848Y-79328810D01*
X144280745Y-79362823D01*
X144322047Y-79388258D01*
X144342643Y-79400237D01*
X144375620Y-79417707D01*
X144375620Y-78971385D01*
X144375620Y-78525062D01*
X144043166Y-78314983D01*
X143946064Y-78253470D01*
X143849292Y-78191884D01*
X143758014Y-78133533D01*
X143677394Y-78081723D01*
X143612594Y-78039762D01*
X143577816Y-78016965D01*
X143444922Y-77929025D01*
X143441187Y-76484015D01*
X143440593Y-76245724D01*
X143440134Y-76035024D01*
X143439837Y-75850190D01*
X143439727Y-75689500D01*
X143439830Y-75551231D01*
X143440172Y-75433660D01*
X143440778Y-75335064D01*
X143441675Y-75253719D01*
X143442888Y-75187903D01*
X143444443Y-75135892D01*
X143446365Y-75095964D01*
X143448682Y-75066395D01*
X143451418Y-75045462D01*
X143454599Y-75031442D01*
X143458251Y-75022613D01*
X143462400Y-75017251D01*
X143463172Y-75016547D01*
X143483280Y-75002047D01*
X143524811Y-74974390D01*
X143584239Y-74935808D01*
X143658035Y-74888530D01*
X143742673Y-74834788D01*
X143834626Y-74776813D01*
X143930366Y-74716835D01*
X144026368Y-74657085D01*
X144119103Y-74599793D01*
X144205045Y-74547192D01*
X144210733Y-74543732D01*
X144375620Y-74443491D01*
X144375620Y-74336852D01*
X144376440Y-74280860D01*
X144380512Y-74246086D01*
X144390260Y-74224446D01*
X144408103Y-74207855D01*
X144415926Y-74202287D01*
X144468100Y-74170913D01*
X144503757Y-74162860D01*
X144525875Y-74179556D01*
X144537428Y-74222429D01*
X144540561Y-74262085D01*
X144543162Y-74307090D01*
X144546159Y-74337363D01*
X144548263Y-74345463D01*
X144561390Y-74337965D01*
X144594185Y-74317519D01*
X144641774Y-74287205D01*
X144699280Y-74250103D01*
X144702158Y-74248236D01*
X144765358Y-74207892D01*
X144824261Y-74171501D01*
X144871970Y-74143252D01*
X144900053Y-74128050D01*
X144930515Y-74105383D01*
X145128864Y-74105383D01*
X145142285Y-74163520D01*
X145175534Y-74210951D01*
X145223916Y-74243504D01*
X145282736Y-74257004D01*
X145347298Y-74247281D01*
X145364615Y-74240357D01*
X145407799Y-74208017D01*
X145439767Y-74160761D01*
X145454544Y-74109263D01*
X145453044Y-74082375D01*
X145424681Y-74017138D01*
X145374454Y-73968957D01*
X145328949Y-73948202D01*
X145264015Y-73942479D01*
X145205109Y-73962428D01*
X145159071Y-74004700D01*
X145139966Y-74040711D01*
X145128864Y-74105383D01*
X144930515Y-74105383D01*
X144940515Y-74097942D01*
X144956332Y-74067725D01*
X144990926Y-73961398D01*
X145042609Y-73877495D01*
X145110261Y-73817031D01*
X145192761Y-73781022D01*
X145284333Y-73770395D01*
X145376830Y-73781625D01*
X145453320Y-73814506D01*
X145520237Y-73871829D01*
X145521642Y-73873377D01*
X145580967Y-73957821D01*
X145612239Y-74047455D01*
X145615099Y-74139909D01*
X145589190Y-74232814D01*
X145579167Y-74253913D01*
X145525342Y-74329483D01*
X145455146Y-74384340D01*
X145373712Y-74417690D01*
X145286172Y-74428741D01*
X145197660Y-74416699D01*
X145113309Y-74380773D01*
X145053174Y-74335156D01*
X145019981Y-74305301D01*
X144998320Y-74293247D01*
X144979057Y-74296005D01*
X144961887Y-74305280D01*
X144938700Y-74319438D01*
X144894964Y-74346448D01*
X144834990Y-74383636D01*
X144763092Y-74428326D01*
X144683581Y-74477843D01*
X144661425Y-74491658D01*
X144573035Y-74546745D01*
X144483982Y-74602178D01*
X144400548Y-74654050D01*
X144329014Y-74698457D01*
X144275662Y-74731493D01*
X144273024Y-74733122D01*
X144221356Y-74765122D01*
X144151030Y-74808816D01*
X144068236Y-74860348D01*
X143979167Y-74915865D01*
X143890014Y-74971513D01*
X143880984Y-74977154D01*
X143613527Y-75144258D01*
X143613500Y-76481529D01*
X143613474Y-77818800D01*
X143690421Y-77868156D01*
X143726520Y-77891112D01*
X143782322Y-77926350D01*
X143852666Y-77970624D01*
X143932393Y-78020686D01*
X144016343Y-78073290D01*
X144031189Y-78082580D01*
X144119916Y-78138218D01*
X144209605Y-78194673D01*
X144293882Y-78247920D01*
X144366376Y-78293932D01*
X144420713Y-78328682D01*
X144423024Y-78330172D01*
X144551040Y-78412695D01*
X144552300Y-78962320D01*
X144552849Y-79087276D01*
X144553862Y-79203625D01*
X144555272Y-79307961D01*
X144557011Y-79396876D01*
X144559012Y-79466965D01*
X144561207Y-79514820D01*
X144563529Y-79537034D01*
X144563714Y-79537591D01*
X144578750Y-79552455D01*
X144615195Y-79579790D01*
X144669291Y-79617041D01*
X144737278Y-79661650D01*
X144815397Y-79711061D01*
X144852153Y-79733751D01*
X144955456Y-79797041D01*
X145071135Y-79867900D01*
X145189583Y-79940444D01*
X145301191Y-80008789D01*
X145386930Y-80061283D01*
X145523781Y-80145213D01*
X145662566Y-80230615D01*
X145799819Y-80315338D01*
X145932078Y-80397229D01*
X146055879Y-80474139D01*
X146167757Y-80543916D01*
X146264250Y-80604409D01*
X146341892Y-80653467D01*
X146387247Y-80682480D01*
X146515493Y-80765262D01*
X146515493Y-80867772D01*
X146514718Y-80918322D01*
X146512679Y-80954939D01*
X146509804Y-80970205D01*
X146509573Y-80970283D01*
X146492957Y-80963099D01*
X146456484Y-80943521D01*
X146405268Y-80914508D01*
X146344425Y-80879016D01*
X146279067Y-80840005D01*
X146214310Y-80800432D01*
X146193047Y-80787193D01*
X146155740Y-80763978D01*
X146096448Y-80727262D01*
X146018158Y-80678889D01*
X145923861Y-80620704D01*
X145816547Y-80554550D01*
X145699206Y-80482270D01*
X145574826Y-80405709D01*
X145446399Y-80326710D01*
X145430900Y-80317179D01*
X145302668Y-80238309D01*
X145178517Y-80161900D01*
X145061374Y-80089757D01*
X144954168Y-80023687D01*
X144859826Y-79965494D01*
X144781277Y-79916984D01*
X144721449Y-79879962D01*
X144683270Y-79856233D01*
X144679906Y-79854129D01*
X144629098Y-79822874D01*
X144587974Y-79798631D01*
X144562574Y-79784910D01*
X144557701Y-79783093D01*
X144553935Y-79796735D01*
X144551889Y-79833728D01*
X144551371Y-79888173D01*
X144552184Y-79954170D01*
X144554136Y-80025819D01*
X144557032Y-80097221D01*
X144560678Y-80162477D01*
X144564878Y-80215687D01*
X144569440Y-80250950D01*
X144573485Y-80262419D01*
X144588027Y-80270635D01*
X144625797Y-80292835D01*
X144684905Y-80327890D01*
X144763465Y-80374673D01*
X144859586Y-80432052D01*
X144971379Y-80498901D01*
X145096957Y-80574089D01*
X145234430Y-80656488D01*
X145381910Y-80744968D01*
X145537507Y-80838401D01*
X145621437Y-80888831D01*
X145780302Y-80984227D01*
X145931896Y-81075096D01*
X146074347Y-81160325D01*
X146205785Y-81238804D01*
X146324337Y-81309419D01*
X146428134Y-81371059D01*
X146515304Y-81422611D01*
X146583975Y-81462964D01*
X146632276Y-81491006D01*
X146658336Y-81505624D01*
X146662493Y-81507547D01*
X146676164Y-81499788D01*
X146712656Y-81478311D01*
X146769665Y-81444490D01*
X146844885Y-81399702D01*
X146936009Y-81345321D01*
X147040732Y-81282724D01*
X147156748Y-81213287D01*
X147281750Y-81138384D01*
X147359134Y-81091974D01*
X147489013Y-81014153D01*
X147611809Y-80940763D01*
X147725140Y-80873216D01*
X147826623Y-80812923D01*
X147913876Y-80761294D01*
X147984517Y-80719740D01*
X148036165Y-80689673D01*
X148066435Y-80672502D01*
X148073213Y-80669027D01*
X148082634Y-80662633D01*
X148089393Y-80648973D01*
X148093920Y-80623782D01*
X148096645Y-80582799D01*
X148097402Y-80548611D01*
X148097997Y-80521759D01*
X148098406Y-80436400D01*
X148098413Y-80419090D01*
X148097942Y-80338884D01*
X148097333Y-80306747D01*
X148274293Y-80306747D01*
X148274293Y-80548611D01*
X148307270Y-80527100D01*
X148331235Y-80512129D01*
X148374986Y-80485411D01*
X148433133Y-80450214D01*
X148500288Y-80409807D01*
X148530785Y-80391529D01*
X148600051Y-80350368D01*
X148662674Y-80313715D01*
X148713293Y-80284668D01*
X148746545Y-80266321D01*
X148754299Y-80262435D01*
X148766361Y-80255932D01*
X148775054Y-80246206D01*
X148780928Y-80228875D01*
X148784535Y-80199558D01*
X148786428Y-80153874D01*
X148787158Y-80087442D01*
X148787276Y-80000590D01*
X148786831Y-79919234D01*
X148785596Y-79849172D01*
X148783726Y-79795188D01*
X148781376Y-79762063D01*
X148779340Y-79753779D01*
X148765059Y-79761204D01*
X148729846Y-79781913D01*
X148677570Y-79813563D01*
X148612096Y-79853807D01*
X148537293Y-79900300D01*
X148522848Y-79909332D01*
X148274293Y-80064884D01*
X148274293Y-80306747D01*
X148097333Y-80306747D01*
X148096638Y-80270038D01*
X148094667Y-80217399D01*
X148092193Y-80185812D01*
X148090238Y-80178823D01*
X148075334Y-80186215D01*
X148041007Y-80206297D01*
X147992503Y-80235924D01*
X147940007Y-80268824D01*
X147883951Y-80304173D01*
X147810705Y-80350112D01*
X147723788Y-80404453D01*
X147626721Y-80465010D01*
X147523025Y-80529596D01*
X147416219Y-80596025D01*
X147309825Y-80662110D01*
X147207361Y-80725664D01*
X147112349Y-80784501D01*
X147028308Y-80836433D01*
X146958760Y-80879276D01*
X146907225Y-80910841D01*
X146878246Y-80928338D01*
X146808627Y-80969522D01*
X146808627Y-80861302D01*
X146808627Y-80753082D01*
X146907559Y-80687951D01*
X146962432Y-80652377D01*
X147038253Y-80604021D01*
X147130975Y-80545413D01*
X147236549Y-80479082D01*
X147350926Y-80407556D01*
X147470059Y-80333366D01*
X147589898Y-80259039D01*
X147706396Y-80187105D01*
X147815504Y-80120093D01*
X147863906Y-80090513D01*
X148135464Y-79924061D01*
X148393291Y-79764284D01*
X148629717Y-79616141D01*
X148787276Y-79516911D01*
X148787276Y-78962989D01*
X148787276Y-78409068D01*
X149106059Y-78207308D01*
X149202863Y-78146051D01*
X149300886Y-78084042D01*
X149394453Y-78024870D01*
X149477887Y-77972126D01*
X149545509Y-77929399D01*
X149575149Y-77910684D01*
X149725456Y-77815821D01*
X149721715Y-76480474D01*
X149717974Y-75145127D01*
X149549423Y-75039714D01*
X149468266Y-74989146D01*
X149362814Y-74923752D01*
X149233793Y-74843983D01*
X149081929Y-74750284D01*
X148907946Y-74643105D01*
X148712570Y-74522893D01*
X148567426Y-74433662D01*
X148499571Y-74391935D01*
X148438306Y-74354215D01*
X148389101Y-74323873D01*
X148357431Y-74304284D01*
X148351369Y-74300509D01*
X148325381Y-74288285D01*
X148307511Y-74297121D01*
X148295731Y-74312490D01*
X148269354Y-74339473D01*
X148229193Y-74369849D01*
X148210140Y-74381831D01*
X148121113Y-74418663D01*
X148030587Y-74428682D01*
X147942977Y-74413784D01*
X147862696Y-74375865D01*
X147794160Y-74316824D01*
X147741781Y-74238555D01*
X147716054Y-74169509D01*
X147709825Y-74098690D01*
X147885891Y-74098690D01*
X147888522Y-74146429D01*
X147900064Y-74178339D01*
X147925996Y-74207700D01*
X147933757Y-74214762D01*
X147992743Y-74251405D01*
X148053421Y-74259175D01*
X148112975Y-74238162D01*
X148151177Y-74207697D01*
X148184333Y-74168516D01*
X148198742Y-74131190D01*
X148201010Y-74099749D01*
X148188488Y-74037040D01*
X148155078Y-73987626D01*
X148107015Y-73954002D01*
X148050533Y-73938662D01*
X147991867Y-73944101D01*
X147937252Y-73972814D01*
X147921213Y-73987787D01*
X147897719Y-74021089D01*
X147887410Y-74062458D01*
X147885891Y-74098690D01*
X147709825Y-74098690D01*
X147709461Y-74094555D01*
X147724067Y-74012821D01*
X147757138Y-73934454D01*
X147793290Y-73882987D01*
X147865951Y-73819484D01*
X147946555Y-73781347D01*
X148030835Y-73767294D01*
X148114526Y-73776040D01*
X148193362Y-73806302D01*
X148263078Y-73856797D01*
X148319408Y-73926240D01*
X148358086Y-74013348D01*
X148368244Y-74056001D01*
X148377661Y-74091242D01*
X148388566Y-74110015D01*
X148391124Y-74110963D01*
X148407452Y-74118380D01*
X148443865Y-74138813D01*
X148495721Y-74169541D01*
X148558377Y-74207839D01*
X148591989Y-74228779D01*
X148779948Y-74346594D01*
X148788732Y-74257858D01*
X148794360Y-74209981D01*
X148800108Y-74175256D01*
X148804006Y-74162631D01*
X148819663Y-74164759D01*
X148853464Y-74176971D01*
X148886827Y-74191504D01*
X148963156Y-74226868D01*
X148963443Y-74341132D01*
X148963731Y-74455395D01*
X149084361Y-74529722D01*
X149127476Y-74556240D01*
X149177311Y-74586792D01*
X149236484Y-74622976D01*
X149307611Y-74666385D01*
X149393309Y-74718617D01*
X149496193Y-74781267D01*
X149618881Y-74855930D01*
X149763990Y-74944202D01*
X149765080Y-74944865D01*
X149900127Y-75027005D01*
X149900655Y-75995875D01*
X149901183Y-76964744D01*
X150080727Y-77072104D01*
X150146650Y-77111716D01*
X150204377Y-77146766D01*
X150248812Y-77174132D01*
X150274858Y-77190692D01*
X150278592Y-77193286D01*
X150282125Y-77190722D01*
X150285200Y-77176249D01*
X150287847Y-77148230D01*
X150290091Y-77105027D01*
X150291960Y-77045004D01*
X150293482Y-76966523D01*
X150294684Y-76867947D01*
X150295594Y-76747639D01*
X150296239Y-76603961D01*
X150296647Y-76435277D01*
X150296844Y-76239950D01*
X150296873Y-76102400D01*
X150296834Y-74997692D01*
X150242283Y-74968378D01*
X150199766Y-74936265D01*
X150161535Y-74892672D01*
X150153680Y-74880438D01*
X150128674Y-74810733D01*
X150127427Y-74765382D01*
X150282256Y-74765382D01*
X150293875Y-74795933D01*
X150321747Y-74828284D01*
X150355398Y-74852200D01*
X150377524Y-74858453D01*
X150400717Y-74850002D01*
X150432322Y-74829517D01*
X150434174Y-74828076D01*
X150465816Y-74788211D01*
X150470126Y-74743690D01*
X150446675Y-74700549D01*
X150443479Y-74697230D01*
X150401003Y-74671783D01*
X150355987Y-74670520D01*
X150316167Y-74690169D01*
X150289281Y-74727462D01*
X150282256Y-74765382D01*
X150127427Y-74765382D01*
X150126583Y-74734695D01*
X150145186Y-74659794D01*
X150182264Y-74593499D01*
X150235597Y-74543280D01*
X150257514Y-74530969D01*
X150327323Y-74510233D01*
X150402423Y-74507915D01*
X150471508Y-74523598D01*
X150503254Y-74540020D01*
X150570399Y-74600599D01*
X150612141Y-74671896D01*
X150628035Y-74749380D01*
X150617636Y-74828517D01*
X150580499Y-74904773D01*
X150543411Y-74949059D01*
X150483665Y-75008805D01*
X150485399Y-76303239D01*
X150485560Y-76495858D01*
X150485525Y-76680317D01*
X150485305Y-76854480D01*
X150484912Y-77016210D01*
X150484357Y-77163368D01*
X150483651Y-77293819D01*
X150482805Y-77405424D01*
X150481832Y-77496046D01*
X150480743Y-77563549D01*
X150479548Y-77605794D01*
X150478395Y-77620447D01*
X150464434Y-77634276D01*
X150432279Y-77641404D01*
X150383285Y-77643220D01*
X150296913Y-77643220D01*
X150296913Y-77529304D01*
X150296913Y-77415387D01*
X150102712Y-77296352D01*
X149908511Y-77177317D01*
X149904599Y-77549898D01*
X149900686Y-77922479D01*
X149750704Y-78019882D01*
X149691401Y-78058101D01*
X149613786Y-78107687D01*
X149524409Y-78164479D01*
X149429820Y-78224316D01*
X149336570Y-78283038D01*
X149322245Y-78292032D01*
X149238351Y-78344950D01*
X149160102Y-78394819D01*
X149091881Y-78438805D01*
X149038073Y-78474073D01*
X149003061Y-78497790D01*
X148995454Y-78503292D01*
X148947140Y-78539805D01*
X148949393Y-78971877D01*
X148950243Y-79098047D01*
X148951430Y-79197698D01*
X148953100Y-79273622D01*
X148955401Y-79328613D01*
X148958481Y-79365462D01*
X148962486Y-79386964D01*
X148967566Y-79395911D01*
X148971810Y-79396210D01*
X148991659Y-79385609D01*
X149030422Y-79362624D01*
X149082356Y-79330726D01*
X149137113Y-79296313D01*
X149187629Y-79264471D01*
X149226475Y-79238281D01*
X149255181Y-79213438D01*
X149275276Y-79185634D01*
X149288288Y-79150563D01*
X149295747Y-79103916D01*
X149299181Y-79041387D01*
X149300121Y-78958668D01*
X149300094Y-78851454D01*
X149300098Y-78837216D01*
X149300260Y-78572873D01*
X149457819Y-78469496D01*
X149578334Y-78391003D01*
X149677216Y-78327991D01*
X149756824Y-78279098D01*
X149819519Y-78242967D01*
X149867662Y-78218237D01*
X149903613Y-78203549D01*
X149929732Y-78197543D01*
X149930061Y-78197512D01*
X149966283Y-78197733D01*
X149982951Y-78209736D01*
X149986567Y-78220930D01*
X149979861Y-78251760D01*
X149961964Y-78272229D01*
X149937887Y-78301095D01*
X149916455Y-78343259D01*
X149912786Y-78353492D01*
X149902575Y-78378798D01*
X149887220Y-78401449D01*
X149862311Y-78425319D01*
X149823442Y-78454282D01*
X149766204Y-78492213D01*
X149725303Y-78518298D01*
X149658662Y-78560111D01*
X149596750Y-78598245D01*
X149545886Y-78628854D01*
X149512389Y-78648095D01*
X149509117Y-78649834D01*
X149461483Y-78674615D01*
X149461483Y-78971408D01*
X149460819Y-79064004D01*
X149458969Y-79148482D01*
X149456142Y-79219744D01*
X149452551Y-79272693D01*
X149448405Y-79302229D01*
X149447716Y-79304410D01*
X149427806Y-79329523D01*
X149382533Y-79366323D01*
X149311487Y-79415115D01*
X149238859Y-79461115D01*
X149167598Y-79505499D01*
X149101698Y-79547223D01*
X149046826Y-79582649D01*
X149008652Y-79608138D01*
X148998129Y-79615621D01*
X148952491Y-79649631D01*
X148955613Y-79884943D01*
X148957441Y-79964171D01*
X148960487Y-80031894D01*
X148964410Y-80083243D01*
X148968873Y-80113351D01*
X148971939Y-80119221D01*
X148989037Y-80111699D01*
X149025774Y-80091993D01*
X149076716Y-80063112D01*
X149135372Y-80028698D01*
X149285603Y-79939207D01*
X149285827Y-79784203D01*
X149286965Y-79718364D01*
X149289860Y-79662692D01*
X149294037Y-79624201D01*
X149297615Y-79610990D01*
X149318077Y-79598299D01*
X149356613Y-79587064D01*
X149378002Y-79583348D01*
X149446826Y-79573915D01*
X149446826Y-79707817D01*
X149447673Y-79766387D01*
X149449943Y-79811952D01*
X149453231Y-79838022D01*
X149455178Y-79841719D01*
X149471069Y-79834112D01*
X149502473Y-79814676D01*
X149524797Y-79799765D01*
X149553699Y-79781057D01*
X149603760Y-79749833D01*
X149670942Y-79708559D01*
X149751211Y-79659703D01*
X149840530Y-79605733D01*
X149930496Y-79551728D01*
X150022329Y-79496640D01*
X150106838Y-79445676D01*
X150180468Y-79400999D01*
X150239668Y-79364775D01*
X150280883Y-79339168D01*
X150300560Y-79326342D01*
X150300752Y-79326199D01*
X150308332Y-79319542D01*
X150310869Y-79312288D01*
X150305832Y-79302591D01*
X150290691Y-79288606D01*
X150262914Y-79268488D01*
X150219972Y-79240391D01*
X150159334Y-79202471D01*
X150078469Y-79152883D01*
X149984884Y-79095888D01*
X149889592Y-79037511D01*
X149809232Y-78987463D01*
X149746276Y-78947323D01*
X149703194Y-78918670D01*
X149682457Y-78903084D01*
X149681333Y-78901850D01*
X149678281Y-78883190D01*
X149677452Y-78843973D01*
X149678908Y-78795533D01*
X149683811Y-78699028D01*
X149730206Y-78722547D01*
X149767534Y-78743054D01*
X149825506Y-78776916D01*
X149900088Y-78821667D01*
X149987244Y-78874842D01*
X150082940Y-78933976D01*
X150183143Y-78996603D01*
X150283818Y-79060259D01*
X150305782Y-79074255D01*
X150372655Y-79116413D01*
X150431128Y-79152303D01*
X150476645Y-79179205D01*
X150504653Y-79194399D01*
X150510975Y-79196781D01*
X150527894Y-79189528D01*
X150564422Y-79169790D01*
X150615263Y-79140540D01*
X150675120Y-79104751D01*
X150677986Y-79103007D01*
X150831881Y-79009280D01*
X150835591Y-76724680D01*
X150839301Y-74440080D01*
X150110086Y-74002016D01*
X149895558Y-73873088D01*
X149661791Y-73732499D01*
X149412864Y-73582707D01*
X149152855Y-73426171D01*
X148885843Y-73265349D01*
X148615908Y-73102698D01*
X148347128Y-72940678D01*
X148083582Y-72781745D01*
X147829348Y-72628360D01*
X147588507Y-72482979D01*
X147365137Y-72348061D01*
X147186433Y-72240043D01*
X147076866Y-72173905D01*
X146974651Y-72112430D01*
X146882615Y-72057301D01*
X146803586Y-72010203D01*
X146740392Y-71972818D01*
X146695861Y-71946832D01*
X146672820Y-71933928D01*
X146670688Y-71932920D01*
X146659376Y-71934656D01*
X146635631Y-71944682D01*
X146598040Y-71963816D01*
X146545191Y-71992877D01*
X146475670Y-72032681D01*
X146388064Y-72084046D01*
X146280962Y-72147792D01*
X146152949Y-72224735D01*
X146002614Y-72315693D01*
X145863272Y-72400350D01*
X145837096Y-72416227D01*
X145788399Y-72445717D01*
X145719744Y-72487268D01*
X145633695Y-72539330D01*
X145532818Y-72600350D01*
X145419676Y-72668778D01*
X145296835Y-72743063D01*
X145166857Y-72821652D01*
X145086468Y-72870253D01*
X144832005Y-73024103D01*
X144601011Y-73163792D01*
X144391859Y-73290305D01*
X144202921Y-73404629D01*
X144032571Y-73507749D01*
X143879181Y-73600652D01*
X143741123Y-73684324D01*
X143616771Y-73759750D01*
X143504497Y-73827916D01*
X143402675Y-73889809D01*
X143309676Y-73946415D01*
X143223873Y-73998719D01*
X143195759Y-74015876D01*
X143095937Y-74076791D01*
X142991129Y-74140717D01*
X142888241Y-74203443D01*
X142794179Y-74260759D01*
X142715849Y-74308456D01*
X142693768Y-74321891D01*
X142499567Y-74440024D01*
X142287955Y-74440024D01*
X142287977Y-74439261D01*
X142289682Y-74398768D01*
X142291635Y-74367558D01*
X142293846Y-74344294D01*
X142296328Y-74327642D01*
X142299094Y-74316266D01*
X142302155Y-74308831D01*
X142305236Y-74304331D01*
X142324039Y-74289301D01*
X142364646Y-74261449D01*
X142423669Y-74222940D01*
X142497722Y-74175944D01*
X142583420Y-74122628D01*
X142677374Y-74065159D01*
X142704760Y-74048583D01*
X142794789Y-73994175D01*
X142905440Y-73927236D01*
X143032284Y-73850450D01*
X143170889Y-73766501D01*
X143316823Y-73678075D01*
X143465654Y-73587856D01*
X143612952Y-73498527D01*
X143738055Y-73422624D01*
X144054105Y-73230856D01*
X144354851Y-73048442D01*
X144639634Y-72875779D01*
X144907799Y-72713264D01*
X145158689Y-72561294D01*
X145391645Y-72420267D01*
X145606011Y-72290579D01*
X145801130Y-72172627D01*
X145976345Y-72066809D01*
X146130999Y-71973521D01*
X146264434Y-71893161D01*
X146375994Y-71826126D01*
X146465022Y-71772812D01*
X146530859Y-71733618D01*
X146572850Y-71708939D01*
X146589009Y-71699822D01*
X146601275Y-71692860D01*
X146611901Y-71686619D01*
X146622469Y-71681946D01*
X146634563Y-71679688D01*
X146649764Y-71680694D01*
X146669655Y-71685811D01*
X146695818Y-71695886D01*
X146729837Y-71711767D01*
X146773292Y-71734302D01*
X146827768Y-71764338D01*
X146894846Y-71802722D01*
X146976108Y-71850303D01*
X147073138Y-71907927D01*
X147187517Y-71976443D01*
X147320828Y-72056698D01*
X147474654Y-72149539D01*
X147650577Y-72255814D01*
X147834593Y-72366960D01*
X147988984Y-72460155D01*
X148148778Y-72556559D01*
X148309965Y-72653756D01*
X148468537Y-72749331D01*
X148620483Y-72840869D01*
X148761795Y-72925953D01*
X148888464Y-73002170D01*
X148996480Y-73067102D01*
X149051096Y-73099897D01*
X149334569Y-73270088D01*
X149593477Y-73425695D01*
X149828455Y-73567105D01*
X150040138Y-73694704D01*
X150229164Y-73808880D01*
X150396167Y-73910019D01*
X150541784Y-73998510D01*
X150666650Y-74074739D01*
X150771401Y-74139094D01*
X150856673Y-74191960D01*
X150923102Y-74233727D01*
X150971324Y-74264780D01*
X151001975Y-74285507D01*
X151015089Y-74295678D01*
X151051731Y-74331477D01*
X151055526Y-76715226D01*
X151056001Y-77028226D01*
X151056374Y-77313214D01*
X151056637Y-77571488D01*
X151056779Y-77804348D01*
X151056792Y-78013095D01*
X151056666Y-78199028D01*
X151056390Y-78363448D01*
X151055956Y-78507654D01*
X151055353Y-78632945D01*
X151054572Y-78740623D01*
X151053603Y-78831987D01*
X151052437Y-78908336D01*
X151051064Y-78970971D01*
X151049474Y-79021192D01*
X151047658Y-79060298D01*
X151045606Y-79089589D01*
X151043308Y-79110366D01*
X151040754Y-79123928D01*
X151037936Y-79131575D01*
X151037567Y-79132176D01*
X151016392Y-79152898D01*
X150975810Y-79183422D01*
X150922045Y-79219320D01*
X150872549Y-79249622D01*
X150825894Y-79277227D01*
X150758169Y-79317532D01*
X150673418Y-79368121D01*
X150575685Y-79426574D01*
X150469013Y-79490475D01*
X150357446Y-79557404D01*
X150267599Y-79611375D01*
X150137169Y-79689738D01*
X149989171Y-79778594D01*
X149831196Y-79873389D01*
X149670835Y-79969572D01*
X149515676Y-80062588D01*
X149373311Y-80147886D01*
X149322245Y-80178466D01*
X149236064Y-80230094D01*
X149132406Y-80292242D01*
X149013489Y-80363578D01*
X148881530Y-80442768D01*
X148738748Y-80528479D01*
X148587361Y-80619380D01*
X148429586Y-80714135D01*
X148267641Y-80811414D01*
X148103745Y-80909882D01*
X147940116Y-81008207D01*
X147778971Y-81105056D01*
X147622529Y-81199096D01*
X147473008Y-81288994D01*
X147332625Y-81373417D01*
X147203598Y-81451032D01*
X147088147Y-81520507D01*
X146988488Y-81580507D01*
X146906839Y-81629701D01*
X146845419Y-81666755D01*
X146806446Y-81690336D01*
X146801298Y-81693466D01*
X146770100Y-81712594D01*
X146742800Y-81727990D01*
X146716954Y-81738712D01*
X146690115Y-81743817D01*
X146659837Y-81742363D01*
X146623676Y-81733407D01*
X146579186Y-81716007D01*
X146523920Y-81689219D01*
X146455435Y-81652102D01*
X146371283Y-81603712D01*
X146269020Y-81543106D01*
X146146200Y-81469343D01*
X146015466Y-81390567D01*
X145851923Y-81292057D01*
X145702128Y-81201819D01*
X145562360Y-81117613D01*
X145428901Y-81037196D01*
X145298030Y-80958325D01*
X145166029Y-80878760D01*
X145029178Y-80796257D01*
X144883757Y-80708575D01*
X144726047Y-80613472D01*
X144552329Y-80508706D01*
X144358882Y-80392034D01*
X144265695Y-80335829D01*
X144134486Y-80256759D01*
X143983809Y-80166073D01*
X143819362Y-80067194D01*
X143646839Y-79963542D01*
X143471938Y-79858539D01*
X143300353Y-79755607D01*
X143137781Y-79658165D01*
X143034535Y-79596338D01*
X142905404Y-79518804D01*
X142783031Y-79444868D01*
X142669893Y-79376058D01*
X142568465Y-79313902D01*
X142481224Y-79259926D01*
X142410645Y-79215659D01*
X142359205Y-79182628D01*
X142329381Y-79162359D01*
X142323687Y-79157825D01*
X142287045Y-79122879D01*
X142283251Y-76728630D01*
X142282771Y-76417968D01*
X142282368Y-76135283D01*
X142282054Y-75879242D01*
X142281842Y-75648507D01*
X142281744Y-75441744D01*
X142281772Y-75257617D01*
X142281938Y-75094791D01*
X142282253Y-74951930D01*
X142282731Y-74827700D01*
X142283383Y-74720764D01*
X142284222Y-74629788D01*
X142285259Y-74553436D01*
X142286507Y-74490372D01*
X142287955Y-74440024D01*
G37*
%TO.C,U2*%
X113890000Y-73380000D02*
X124290000Y-73380000D01*
X124290000Y-73380000D02*
X124290000Y-63100000D01*
X113950000Y-70890000D02*
X124230000Y-70890000D01*
X124230000Y-70890000D02*
X124230000Y-65590000D01*
X113950000Y-69240000D02*
X113950000Y-70890000D01*
X113950000Y-65590000D02*
X113950000Y-67240000D01*
X124230000Y-65590000D02*
X113950000Y-65590000D01*
X113890000Y-63100000D02*
X113890000Y-73380000D01*
X124290000Y-63100000D02*
X113890000Y-63100000D01*
X113950000Y-69240000D02*
G75*
G03*
X113950000Y-67240000I0J1000000D01*
G01*
%TO.C,C2*%
X105670000Y-84470000D02*
X105670000Y-84155000D01*
X105670000Y-84470000D02*
X100730000Y-84470000D01*
X105670000Y-82045000D02*
X105670000Y-81730000D01*
X105670000Y-81730000D02*
X100730000Y-81730000D01*
X100730000Y-84470000D02*
X100730000Y-84155000D01*
X100730000Y-82045000D02*
X100730000Y-81730000D01*
%TO.C,C5*%
X109870000Y-60330000D02*
X109555000Y-60330000D01*
X109870000Y-60330000D02*
X109870000Y-65270000D01*
X107445000Y-60330000D02*
X107130000Y-60330000D01*
X107130000Y-60330000D02*
X107130000Y-65270000D01*
X109870000Y-65270000D02*
X109555000Y-65270000D01*
X107445000Y-65270000D02*
X107130000Y-65270000D01*
%TO.C,R7*%
X121460000Y-48600000D02*
X122230000Y-48600000D01*
X122230000Y-47230000D02*
X122230000Y-49970000D01*
X122230000Y-49970000D02*
X128770000Y-49970000D01*
X128770000Y-47230000D02*
X122230000Y-47230000D01*
X128770000Y-49970000D02*
X128770000Y-47230000D01*
X129540000Y-48600000D02*
X128770000Y-48600000D01*
%TO.C,R4*%
X90100000Y-70940000D02*
X90100000Y-70170000D01*
X88730000Y-70170000D02*
X91470000Y-70170000D01*
X91470000Y-70170000D02*
X91470000Y-63630000D01*
X88730000Y-63630000D02*
X88730000Y-70170000D01*
X91470000Y-63630000D02*
X88730000Y-63630000D01*
X90100000Y-62860000D02*
X90100000Y-63630000D01*
%TO.C,C6*%
X137270000Y-48630000D02*
X136955000Y-48630000D01*
X137270000Y-48630000D02*
X137270000Y-53570000D01*
X134845000Y-48630000D02*
X134530000Y-48630000D01*
X134530000Y-48630000D02*
X134530000Y-53570000D01*
X137270000Y-53570000D02*
X136955000Y-53570000D01*
X134845000Y-53570000D02*
X134530000Y-53570000D01*
%TO.C,U3*%
X129790000Y-73330000D02*
X140190000Y-73330000D01*
X140190000Y-73330000D02*
X140190000Y-63050000D01*
X129850000Y-70840000D02*
X140130000Y-70840000D01*
X140130000Y-70840000D02*
X140130000Y-65540000D01*
X129850000Y-69190000D02*
X129850000Y-70840000D01*
X129850000Y-65540000D02*
X129850000Y-67190000D01*
X140130000Y-65540000D02*
X129850000Y-65540000D01*
X129790000Y-63050000D02*
X129790000Y-73330000D01*
X140190000Y-63050000D02*
X129790000Y-63050000D01*
X129850000Y-69190000D02*
G75*
G03*
X129850000Y-67190000I0J1000000D01*
G01*
%TO.C,J2*%
X143190000Y-67580000D02*
X150810000Y-67580000D01*
X150810000Y-67580000D02*
X150810000Y-57420000D01*
X143190000Y-57420000D02*
X143190000Y-67580000D01*
X149540000Y-57420000D02*
X149540000Y-67580000D01*
X150810000Y-57420000D02*
X143190000Y-57420000D01*
%TO.C,R8*%
X115000000Y-79160000D02*
X115000000Y-79930000D01*
X116370000Y-79930000D02*
X113630000Y-79930000D01*
X113630000Y-79930000D02*
X113630000Y-86470000D01*
X116370000Y-86470000D02*
X116370000Y-79930000D01*
X113630000Y-86470000D02*
X116370000Y-86470000D01*
X115000000Y-87240000D02*
X115000000Y-86470000D01*
%TO.C,R3*%
X92800000Y-87540000D02*
X92800000Y-86770000D01*
X91430000Y-86770000D02*
X94170000Y-86770000D01*
X94170000Y-86770000D02*
X94170000Y-80230000D01*
X91430000Y-80230000D02*
X91430000Y-86770000D01*
X94170000Y-80230000D02*
X91430000Y-80230000D01*
X92800000Y-79460000D02*
X92800000Y-80230000D01*
%TO.C,R6*%
X106560000Y-48600000D02*
X107330000Y-48600000D01*
X107330000Y-47230000D02*
X107330000Y-49970000D01*
X107330000Y-49970000D02*
X113870000Y-49970000D01*
X113870000Y-47230000D02*
X107330000Y-47230000D01*
X113870000Y-49970000D02*
X113870000Y-47230000D01*
X114640000Y-48600000D02*
X113870000Y-48600000D01*
%TO.C,R2*%
X107640000Y-88000000D02*
X106870000Y-88000000D01*
X106870000Y-89370000D02*
X106870000Y-86630000D01*
X106870000Y-86630000D02*
X100330000Y-86630000D01*
X100330000Y-89370000D02*
X106870000Y-89370000D01*
X100330000Y-86630000D02*
X100330000Y-89370000D01*
X99560000Y-88000000D02*
X100330000Y-88000000D01*
%TO.C,R10*%
X130160000Y-79700000D02*
X130930000Y-79700000D01*
X130930000Y-78330000D02*
X130930000Y-81070000D01*
X130930000Y-81070000D02*
X137470000Y-81070000D01*
X137470000Y-78330000D02*
X130930000Y-78330000D01*
X137470000Y-81070000D02*
X137470000Y-78330000D01*
X138240000Y-79700000D02*
X137470000Y-79700000D01*
%TO.C,C1*%
X105670000Y-80170000D02*
X105670000Y-79855000D01*
X105670000Y-80170000D02*
X100730000Y-80170000D01*
X105670000Y-77745000D02*
X105670000Y-77430000D01*
X105670000Y-77430000D02*
X100730000Y-77430000D01*
X100730000Y-80170000D02*
X100730000Y-79855000D01*
X100730000Y-77745000D02*
X100730000Y-77430000D01*
%TO.C,R9*%
X119700000Y-87240000D02*
X119700000Y-86470000D01*
X118330000Y-86470000D02*
X121070000Y-86470000D01*
X121070000Y-86470000D02*
X121070000Y-79930000D01*
X118330000Y-79930000D02*
X118330000Y-86470000D01*
X121070000Y-79930000D02*
X118330000Y-79930000D01*
X119700000Y-79160000D02*
X119700000Y-79930000D01*
%TO.C,U1*%
X93270000Y-73130000D02*
X103670000Y-73130000D01*
X103670000Y-73130000D02*
X103670000Y-62850000D01*
X93330000Y-70640000D02*
X103610000Y-70640000D01*
X103610000Y-70640000D02*
X103610000Y-65340000D01*
X93330000Y-68990000D02*
X93330000Y-70640000D01*
X93330000Y-65340000D02*
X93330000Y-66990000D01*
X103610000Y-65340000D02*
X93330000Y-65340000D01*
X93270000Y-62850000D02*
X93270000Y-73130000D01*
X103670000Y-62850000D02*
X93270000Y-62850000D01*
X93330000Y-68990000D02*
G75*
G03*
X93330000Y-66990000I0J1000000D01*
G01*
%TO.C,R1*%
X86900000Y-79380000D02*
X86900000Y-80150000D01*
X88270000Y-80150000D02*
X85530000Y-80150000D01*
X85530000Y-80150000D02*
X85530000Y-86690000D01*
X88270000Y-86690000D02*
X88270000Y-80150000D01*
X85530000Y-86690000D02*
X88270000Y-86690000D01*
X86900000Y-87460000D02*
X86900000Y-86690000D01*
%TO.C,C8*%
X118430000Y-57030000D02*
X118430000Y-57345000D01*
X118430000Y-57030000D02*
X123370000Y-57030000D01*
X118430000Y-59455000D02*
X118430000Y-59770000D01*
X118430000Y-59770000D02*
X123370000Y-59770000D01*
X123370000Y-57030000D02*
X123370000Y-57345000D01*
X123370000Y-59455000D02*
X123370000Y-59770000D01*
%TO.C,J1*%
X81810000Y-71920000D02*
X74190000Y-71920000D01*
X74190000Y-71920000D02*
X74190000Y-82080000D01*
X81810000Y-82080000D02*
X81810000Y-71920000D01*
X75460000Y-82080000D02*
X75460000Y-71920000D01*
X74190000Y-82080000D02*
X81810000Y-82080000D01*
%TD*%
M02*
