%TF.GenerationSoftware,KiCad,Pcbnew,7.0.1*%
%TF.CreationDate,2024-05-30T20:12:37+02:00*%
%TF.ProjectId,Butterworth,42757474-6572-4776-9f72-74682e6b6963,rev?*%
%TF.SameCoordinates,Original*%
%TF.FileFunction,Copper,L1,Top*%
%TF.FilePolarity,Positive*%
%FSLAX46Y46*%
G04 Gerber Fmt 4.6, Leading zero omitted, Abs format (unit mm)*
G04 Created by KiCad (PCBNEW 7.0.1) date 2024-05-30 20:12:37*
%MOMM*%
%LPD*%
G01*
G04 APERTURE LIST*
%TA.AperFunction,ComponentPad*%
%ADD10C,1.600000*%
%TD*%
%TA.AperFunction,ComponentPad*%
%ADD11R,3.000000X3.000000*%
%TD*%
%TA.AperFunction,ComponentPad*%
%ADD12C,3.000000*%
%TD*%
%TA.AperFunction,ComponentPad*%
%ADD13O,1.600000X1.600000*%
%TD*%
%TA.AperFunction,ComponentPad*%
%ADD14R,1.600000X1.600000*%
%TD*%
%TA.AperFunction,ComponentPad*%
%ADD15C,0.900000*%
%TD*%
%TA.AperFunction,ComponentPad*%
%ADD16C,8.600000*%
%TD*%
%TA.AperFunction,Conductor*%
%ADD17C,0.350000*%
%TD*%
%TA.AperFunction,Conductor*%
%ADD18C,0.250000*%
%TD*%
G04 APERTURE END LIST*
D10*
%TO.P,C3,1*%
%TO.N,Net-(C3-Pad1)*%
X90100000Y-56700000D03*
%TO.P,C3,2*%
%TO.N,Net-(U1B--)*%
X85100000Y-56700000D03*
%TD*%
%TO.P,C4,1*%
%TO.N,Net-(U1B-+)*%
X99600000Y-53400000D03*
%TO.P,C4,2*%
%TO.N,GND*%
X99600000Y-58400000D03*
%TD*%
%TO.P,C7,1*%
%TO.N,Net-(C7-Pad1)*%
X123400000Y-54700000D03*
%TO.P,C7,2*%
%TO.N,Net-(U2B--)*%
X118400000Y-54700000D03*
%TD*%
D11*
%TO.P,J3,1,Pin_1*%
%TO.N,V+*%
X78000000Y-57420000D03*
D12*
%TO.P,J3,2,Pin_2*%
%TO.N,GND*%
X78000000Y-62500000D03*
%TO.P,J3,3,Pin_3*%
%TO.N,V-*%
X78000000Y-67580000D03*
%TD*%
D10*
%TO.P,R5,1*%
%TO.N,Net-(C3-Pad1)*%
X89420000Y-48900000D03*
D13*
%TO.P,R5,2*%
%TO.N,Net-(U1B-+)*%
X99580000Y-48900000D03*
%TD*%
D10*
%TO.P,R11,1*%
%TO.N,Net-(U3--)*%
X139280000Y-84200000D03*
D13*
%TO.P,R11,2*%
%TO.N,OUT*%
X129120000Y-84200000D03*
%TD*%
D14*
%TO.P,U2,1*%
%TO.N,Net-(U2A--)*%
X115280000Y-72050000D03*
D13*
%TO.P,U2,2,-*%
X117820000Y-72050000D03*
%TO.P,U2,3,+*%
%TO.N,Net-(U2A-+)*%
X120360000Y-72050000D03*
%TO.P,U2,4,V-*%
%TO.N,V-*%
X122900000Y-72050000D03*
%TO.P,U2,5,+*%
%TO.N,Net-(U2B-+)*%
X122900000Y-64430000D03*
%TO.P,U2,6,-*%
%TO.N,Net-(U2B--)*%
X120360000Y-64430000D03*
%TO.P,U2,7*%
X117820000Y-64430000D03*
%TO.P,U2,8,V+*%
%TO.N,V+*%
X115280000Y-64430000D03*
%TD*%
D10*
%TO.P,C2,1*%
%TO.N,Net-(U1A--)*%
X105700000Y-83100000D03*
%TO.P,C2,2*%
%TO.N,Net-(C1-Pad2)*%
X100700000Y-83100000D03*
%TD*%
%TO.P,C5,1*%
%TO.N,Net-(C5-Pad1)*%
X108500000Y-60300000D03*
%TO.P,C5,2*%
%TO.N,Net-(U2A--)*%
X108500000Y-65300000D03*
%TD*%
%TO.P,R7,1*%
%TO.N,Net-(C5-Pad1)*%
X120420000Y-48600000D03*
D13*
%TO.P,R7,2*%
%TO.N,Net-(U2A-+)*%
X130580000Y-48600000D03*
%TD*%
D15*
%TO.P,H3,1,1*%
%TO.N,GND*%
X143575000Y-88225000D03*
X144519581Y-85944581D03*
X144519581Y-90505419D03*
X146800000Y-85000000D03*
D16*
X146800000Y-88225000D03*
D15*
X146800000Y-91450000D03*
X149080419Y-85944581D03*
X149080419Y-90505419D03*
X150025000Y-88225000D03*
%TD*%
D10*
%TO.P,R4,1*%
%TO.N,Net-(C1-Pad2)*%
X90100000Y-71980000D03*
D13*
%TO.P,R4,2*%
%TO.N,Net-(C3-Pad1)*%
X90100000Y-61820000D03*
%TD*%
D10*
%TO.P,C6,1*%
%TO.N,Net-(U2A-+)*%
X135900000Y-48600000D03*
%TO.P,C6,2*%
%TO.N,GND*%
X135900000Y-53600000D03*
%TD*%
D14*
%TO.P,U3,1,NULL*%
%TO.N,unconnected-(U3-NULL-Pad1)*%
X131180000Y-72000000D03*
D13*
%TO.P,U3,2,-*%
%TO.N,Net-(U3--)*%
X133720000Y-72000000D03*
%TO.P,U3,3,+*%
%TO.N,GND*%
X136260000Y-72000000D03*
%TO.P,U3,4,V-*%
%TO.N,V-*%
X138800000Y-72000000D03*
%TO.P,U3,5,NULL*%
%TO.N,unconnected-(U3-NULL-Pad5)*%
X138800000Y-64380000D03*
%TO.P,U3,6*%
%TO.N,OUT*%
X136260000Y-64380000D03*
%TO.P,U3,7,V+*%
%TO.N,V+*%
X133720000Y-64380000D03*
%TO.P,U3,8,NC*%
%TO.N,unconnected-(U3-NC-Pad8)*%
X131180000Y-64380000D03*
%TD*%
D11*
%TO.P,J2,1,Pin_1*%
%TO.N,OUT*%
X147000000Y-65040000D03*
D12*
%TO.P,J2,2,Pin_2*%
%TO.N,GND*%
X147000000Y-59960000D03*
%TD*%
D10*
%TO.P,R8,1*%
%TO.N,Net-(U2A--)*%
X115000000Y-78120000D03*
D13*
%TO.P,R8,2*%
%TO.N,Net-(C7-Pad1)*%
X115000000Y-88280000D03*
%TD*%
D15*
%TO.P,H4,1,1*%
%TO.N,GND*%
X143525000Y-48725000D03*
X144469581Y-46444581D03*
X144469581Y-51005419D03*
X146750000Y-45500000D03*
D16*
X146750000Y-48725000D03*
D15*
X146750000Y-51950000D03*
X149030419Y-46444581D03*
X149030419Y-51005419D03*
X149975000Y-48725000D03*
%TD*%
D10*
%TO.P,R3,1*%
%TO.N,Net-(R2-Pad2)*%
X92800000Y-88580000D03*
D13*
%TO.P,R3,2*%
%TO.N,Net-(C1-Pad2)*%
X92800000Y-78420000D03*
%TD*%
D10*
%TO.P,R6,1*%
%TO.N,Net-(U1B--)*%
X105520000Y-48600000D03*
D13*
%TO.P,R6,2*%
%TO.N,Net-(C5-Pad1)*%
X115680000Y-48600000D03*
%TD*%
D10*
%TO.P,R2,1*%
%TO.N,Net-(U1A--)*%
X108680000Y-88000000D03*
D13*
%TO.P,R2,2*%
%TO.N,Net-(R2-Pad2)*%
X98520000Y-88000000D03*
%TD*%
D10*
%TO.P,R10,1*%
%TO.N,Net-(U2B--)*%
X129120000Y-79700000D03*
D13*
%TO.P,R10,2*%
%TO.N,Net-(U3--)*%
X139280000Y-79700000D03*
%TD*%
D10*
%TO.P,C1,1*%
%TO.N,Net-(U1A--)*%
X105700000Y-78800000D03*
%TO.P,C1,2*%
%TO.N,Net-(C1-Pad2)*%
X100700000Y-78800000D03*
%TD*%
%TO.P,R9,1*%
%TO.N,Net-(C7-Pad1)*%
X119700000Y-88280000D03*
D13*
%TO.P,R9,2*%
%TO.N,Net-(U2B-+)*%
X119700000Y-78120000D03*
%TD*%
D15*
%TO.P,H2,1,1*%
%TO.N,GND*%
X74775000Y-88225000D03*
X75719581Y-85944581D03*
X75719581Y-90505419D03*
X78000000Y-85000000D03*
D16*
X78000000Y-88225000D03*
D15*
X78000000Y-91450000D03*
X80280419Y-85944581D03*
X80280419Y-90505419D03*
X81225000Y-88225000D03*
%TD*%
D14*
%TO.P,U1,1*%
%TO.N,Net-(C1-Pad2)*%
X94660000Y-71800000D03*
D13*
%TO.P,U1,2,-*%
%TO.N,Net-(U1A--)*%
X97200000Y-71800000D03*
%TO.P,U1,3,+*%
%TO.N,GND*%
X99740000Y-71800000D03*
%TO.P,U1,4,V-*%
%TO.N,V-*%
X102280000Y-71800000D03*
%TO.P,U1,5,+*%
%TO.N,Net-(U1B-+)*%
X102280000Y-64180000D03*
%TO.P,U1,6,-*%
%TO.N,Net-(U1B--)*%
X99740000Y-64180000D03*
%TO.P,U1,7*%
X97200000Y-64180000D03*
%TO.P,U1,8,V+*%
%TO.N,V+*%
X94660000Y-64180000D03*
%TD*%
D10*
%TO.P,R1,1*%
%TO.N,IN*%
X86900000Y-78340000D03*
D13*
%TO.P,R1,2*%
%TO.N,Net-(U1A--)*%
X86900000Y-88500000D03*
%TD*%
D10*
%TO.P,C8,1*%
%TO.N,Net-(U2B-+)*%
X118400000Y-58400000D03*
%TO.P,C8,2*%
%TO.N,GND*%
X123400000Y-58400000D03*
%TD*%
D11*
%TO.P,J1,1,Pin_1*%
%TO.N,IN*%
X78000000Y-74460000D03*
D12*
%TO.P,J1,2,Pin_2*%
%TO.N,GND*%
X78000000Y-79540000D03*
%TD*%
D15*
%TO.P,H1,1,1*%
%TO.N,GND*%
X74775000Y-48719581D03*
X75719581Y-46439162D03*
X75719581Y-51000000D03*
X78000000Y-45494581D03*
D16*
X78000000Y-48719581D03*
D15*
X78000000Y-51944581D03*
X80280419Y-46439162D03*
X80280419Y-51000000D03*
X81225000Y-48719581D03*
%TD*%
D17*
%TO.N,Net-(U1A--)*%
X90700000Y-92300000D02*
X104380000Y-92300000D01*
X86900000Y-88500000D02*
X90700000Y-92300000D01*
X107100000Y-83100000D02*
X105700000Y-83100000D01*
X104380000Y-92300000D02*
X108680000Y-88000000D01*
X97200000Y-71800000D02*
X104200000Y-78800000D01*
X108680000Y-84680000D02*
X107100000Y-83100000D01*
X105700000Y-83100000D02*
X105700000Y-78800000D01*
X104200000Y-78800000D02*
X105700000Y-78800000D01*
X108680000Y-88000000D02*
X108680000Y-84680000D01*
%TO.N,Net-(U1B-+)*%
X102280000Y-56080000D02*
X99600000Y-53400000D01*
X99600000Y-48920000D02*
X99580000Y-48900000D01*
X99600000Y-53400000D02*
X99600000Y-48920000D01*
X102280000Y-64180000D02*
X102280000Y-56080000D01*
%TO.N,Net-(U1B--)*%
X104500000Y-67300000D02*
X104500000Y-49620000D01*
X97200000Y-64180000D02*
X99740000Y-64180000D01*
X102120000Y-45200000D02*
X105520000Y-48600000D01*
X97020000Y-64380000D02*
X97020000Y-66020000D01*
X97020000Y-66020000D02*
X99500000Y-68500000D01*
X87800000Y-45200000D02*
X102120000Y-45200000D01*
X99500000Y-68500000D02*
X103300000Y-68500000D01*
X85100000Y-56700000D02*
X85100000Y-47900000D01*
X85100000Y-47900000D02*
X87800000Y-45200000D01*
X103300000Y-68500000D02*
X104500000Y-67300000D01*
X104500000Y-49620000D02*
X105520000Y-48600000D01*
%TO.N,Net-(U2A-+)*%
X120360000Y-72050000D02*
X113100000Y-64790000D01*
X130580000Y-48600000D02*
X135900000Y-48600000D01*
X113100000Y-55500000D02*
X117100000Y-51500000D01*
X127680000Y-51500000D02*
X130580000Y-48600000D01*
X117100000Y-51500000D02*
X127680000Y-51500000D01*
X113100000Y-64790000D02*
X113100000Y-55500000D01*
%TO.N,Net-(U2A--)*%
X112350000Y-72050000D02*
X115280000Y-72050000D01*
X108500000Y-65300000D02*
X108500000Y-68200000D01*
X115280000Y-72050000D02*
X117820000Y-72050000D01*
X115000000Y-78120000D02*
X115000000Y-72330000D01*
D18*
X115000000Y-72330000D02*
X115280000Y-72050000D01*
D17*
X108500000Y-68200000D02*
X112350000Y-72050000D01*
%TO.N,IN*%
X83020000Y-74460000D02*
X86900000Y-78340000D01*
X78000000Y-74460000D02*
X83020000Y-74460000D01*
%TO.N,OUT*%
X139336701Y-65505000D02*
X146535000Y-65505000D01*
X139300000Y-87400000D02*
X147000000Y-79700000D01*
X138263299Y-65505000D02*
X138313299Y-65555000D01*
X129120000Y-86220000D02*
X130300000Y-87400000D01*
X147000000Y-79700000D02*
X147000000Y-65040000D01*
X136260000Y-64380000D02*
X137385000Y-65505000D01*
X138313299Y-65555000D02*
X139286701Y-65555000D01*
X146535000Y-65505000D02*
X147000000Y-65040000D01*
X130300000Y-87400000D02*
X139300000Y-87400000D01*
X139286701Y-65555000D02*
X139336701Y-65505000D01*
X129120000Y-84200000D02*
X129120000Y-86220000D01*
X137385000Y-65505000D02*
X138263299Y-65505000D01*
%TO.N,Net-(U3--)*%
X133720000Y-74140000D02*
X139280000Y-79700000D01*
X139280000Y-84200000D02*
X139280000Y-79700000D01*
X133720000Y-72000000D02*
X133720000Y-74140000D01*
%TO.N,Net-(U2B--)*%
X120400000Y-52700000D02*
X125600000Y-52700000D01*
X114900000Y-59500000D02*
X114900000Y-56300000D01*
X128500000Y-79080000D02*
X129120000Y-79700000D01*
X125600000Y-52700000D02*
X128500000Y-55600000D01*
X116500000Y-54700000D02*
X118400000Y-54700000D01*
X117820000Y-64430000D02*
X120360000Y-64430000D01*
X114900000Y-56300000D02*
X116500000Y-54700000D01*
X117820000Y-64430000D02*
X117820000Y-62420000D01*
X128500000Y-55600000D02*
X128500000Y-79080000D01*
X117820000Y-62420000D02*
X114900000Y-59500000D01*
X118400000Y-54700000D02*
X120400000Y-52700000D01*
%TO.N,Net-(U2B-+)*%
X125600000Y-73520000D02*
X125600000Y-66000000D01*
X124030000Y-64430000D02*
X122900000Y-64430000D01*
X119700000Y-78120000D02*
X121000000Y-78120000D01*
X118400000Y-59930000D02*
X122900000Y-64430000D01*
X125600000Y-66000000D02*
X124030000Y-64430000D01*
X118400000Y-58400000D02*
X118400000Y-59930000D01*
X121000000Y-78120000D02*
X125600000Y-73520000D01*
D18*
%TO.N,Net-(C1-Pad2)*%
X94460000Y-71980000D02*
X94480000Y-72000000D01*
D17*
X94660000Y-72760000D02*
X94660000Y-71800000D01*
X92800000Y-78420000D02*
X92800000Y-73660000D01*
X100700000Y-83100000D02*
X100700000Y-78800000D01*
X100700000Y-78800000D02*
X94660000Y-72760000D01*
X90100000Y-71980000D02*
X94460000Y-71980000D01*
X92800000Y-73660000D02*
X94660000Y-71800000D01*
%TO.N,Net-(C3-Pad1)*%
X90100000Y-56700000D02*
X90100000Y-49580000D01*
X90100000Y-61820000D02*
X90100000Y-56700000D01*
X90100000Y-49580000D02*
X89420000Y-48900000D01*
%TO.N,Net-(C5-Pad1)*%
X108500000Y-55780000D02*
X108500000Y-60300000D01*
X120420000Y-48600000D02*
X115680000Y-48600000D01*
X108500000Y-55780000D02*
X115680000Y-48600000D01*
%TO.N,Net-(C7-Pad1)*%
X123400000Y-54800000D02*
X127100000Y-58500000D01*
X123620000Y-88280000D02*
X119700000Y-88280000D01*
X119700000Y-88280000D02*
X115000000Y-88280000D01*
D18*
X123400000Y-54700000D02*
X123400000Y-54800000D01*
D17*
X127100000Y-84800000D02*
X123620000Y-88280000D01*
X127100000Y-58500000D02*
X127100000Y-84800000D01*
%TO.N,Net-(R2-Pad2)*%
X98520000Y-88000000D02*
X93380000Y-88000000D01*
D18*
X93380000Y-88000000D02*
X92800000Y-88580000D01*
%TD*%
M02*
