%TF.GenerationSoftware,KiCad,Pcbnew,7.0.1*%
%TF.CreationDate,2024-05-30T20:12:37+02:00*%
%TF.ProjectId,Butterworth,42757474-6572-4776-9f72-74682e6b6963,rev?*%
%TF.SameCoordinates,Original*%
%TF.FileFunction,Legend,Bot*%
%TF.FilePolarity,Positive*%
%FSLAX46Y46*%
G04 Gerber Fmt 4.6, Leading zero omitted, Abs format (unit mm)*
G04 Created by KiCad (PCBNEW 7.0.1) date 2024-05-30 20:12:37*
%MOMM*%
%LPD*%
G01*
G04 APERTURE LIST*
%ADD10C,0.150000*%
G04 APERTURE END LIST*
D10*
X148654761Y-73230952D02*
X148273809Y-73230952D01*
X148511904Y-73897619D02*
X148511904Y-73040476D01*
X148511904Y-73040476D02*
X148464285Y-72945238D01*
X148464285Y-72945238D02*
X148369047Y-72897619D01*
X148369047Y-72897619D02*
X148273809Y-72897619D01*
X147940475Y-73230952D02*
X147940475Y-74230952D01*
X147940475Y-73278571D02*
X147845237Y-73230952D01*
X147845237Y-73230952D02*
X147654761Y-73230952D01*
X147654761Y-73230952D02*
X147559523Y-73278571D01*
X147559523Y-73278571D02*
X147511904Y-73326190D01*
X147511904Y-73326190D02*
X147464285Y-73421428D01*
X147464285Y-73421428D02*
X147464285Y-73707142D01*
X147464285Y-73707142D02*
X147511904Y-73802380D01*
X147511904Y-73802380D02*
X147559523Y-73850000D01*
X147559523Y-73850000D02*
X147654761Y-73897619D01*
X147654761Y-73897619D02*
X147845237Y-73897619D01*
X147845237Y-73897619D02*
X147940475Y-73850000D01*
X147035713Y-73373809D02*
X146273809Y-73373809D01*
X146273809Y-73659523D02*
X147035713Y-73659523D01*
X145369047Y-73230952D02*
X145369047Y-73897619D01*
X145607142Y-72850000D02*
X145845237Y-73564285D01*
X145845237Y-73564285D02*
X145226190Y-73564285D01*
X144654761Y-72897619D02*
X144559523Y-72897619D01*
X144559523Y-72897619D02*
X144464285Y-72945238D01*
X144464285Y-72945238D02*
X144416666Y-72992857D01*
X144416666Y-72992857D02*
X144369047Y-73088095D01*
X144369047Y-73088095D02*
X144321428Y-73278571D01*
X144321428Y-73278571D02*
X144321428Y-73516666D01*
X144321428Y-73516666D02*
X144369047Y-73707142D01*
X144369047Y-73707142D02*
X144416666Y-73802380D01*
X144416666Y-73802380D02*
X144464285Y-73850000D01*
X144464285Y-73850000D02*
X144559523Y-73897619D01*
X144559523Y-73897619D02*
X144654761Y-73897619D01*
X144654761Y-73897619D02*
X144749999Y-73850000D01*
X144749999Y-73850000D02*
X144797618Y-73802380D01*
X144797618Y-73802380D02*
X144845237Y-73707142D01*
X144845237Y-73707142D02*
X144892856Y-73516666D01*
X144892856Y-73516666D02*
X144892856Y-73278571D01*
X144892856Y-73278571D02*
X144845237Y-73088095D01*
X144845237Y-73088095D02*
X144797618Y-72992857D01*
X144797618Y-72992857D02*
X144749999Y-72945238D01*
X144749999Y-72945238D02*
X144654761Y-72897619D01*
X143892856Y-73897619D02*
X143892856Y-72897619D01*
X143797618Y-73516666D02*
X143511904Y-73897619D01*
X143511904Y-73230952D02*
X143892856Y-73611904D01*
X143083332Y-73897619D02*
X143083332Y-72897619D01*
X143083332Y-73373809D02*
X142511904Y-73373809D01*
X142511904Y-73897619D02*
X142511904Y-72897619D01*
X142130951Y-73230952D02*
X141607142Y-73230952D01*
X141607142Y-73230952D02*
X142130951Y-73897619D01*
X142130951Y-73897619D02*
X141607142Y-73897619D01*
X148654761Y-74850952D02*
X148273809Y-74850952D01*
X148511904Y-75517619D02*
X148511904Y-74660476D01*
X148511904Y-74660476D02*
X148464285Y-74565238D01*
X148464285Y-74565238D02*
X148369047Y-74517619D01*
X148369047Y-74517619D02*
X148273809Y-74517619D01*
X147988094Y-75470000D02*
X147892856Y-75517619D01*
X147892856Y-75517619D02*
X147702380Y-75517619D01*
X147702380Y-75517619D02*
X147607142Y-75470000D01*
X147607142Y-75470000D02*
X147559523Y-75374761D01*
X147559523Y-75374761D02*
X147559523Y-75327142D01*
X147559523Y-75327142D02*
X147607142Y-75231904D01*
X147607142Y-75231904D02*
X147702380Y-75184285D01*
X147702380Y-75184285D02*
X147845237Y-75184285D01*
X147845237Y-75184285D02*
X147940475Y-75136666D01*
X147940475Y-75136666D02*
X147988094Y-75041428D01*
X147988094Y-75041428D02*
X147988094Y-74993809D01*
X147988094Y-74993809D02*
X147940475Y-74898571D01*
X147940475Y-74898571D02*
X147845237Y-74850952D01*
X147845237Y-74850952D02*
X147702380Y-74850952D01*
X147702380Y-74850952D02*
X147607142Y-74898571D01*
X147130951Y-74993809D02*
X146369047Y-74993809D01*
X146369047Y-75279523D02*
X147130951Y-75279523D01*
X145464285Y-74517619D02*
X145654761Y-74517619D01*
X145654761Y-74517619D02*
X145749999Y-74565238D01*
X145749999Y-74565238D02*
X145797618Y-74612857D01*
X145797618Y-74612857D02*
X145892856Y-74755714D01*
X145892856Y-74755714D02*
X145940475Y-74946190D01*
X145940475Y-74946190D02*
X145940475Y-75327142D01*
X145940475Y-75327142D02*
X145892856Y-75422380D01*
X145892856Y-75422380D02*
X145845237Y-75470000D01*
X145845237Y-75470000D02*
X145749999Y-75517619D01*
X145749999Y-75517619D02*
X145559523Y-75517619D01*
X145559523Y-75517619D02*
X145464285Y-75470000D01*
X145464285Y-75470000D02*
X145416666Y-75422380D01*
X145416666Y-75422380D02*
X145369047Y-75327142D01*
X145369047Y-75327142D02*
X145369047Y-75089047D01*
X145369047Y-75089047D02*
X145416666Y-74993809D01*
X145416666Y-74993809D02*
X145464285Y-74946190D01*
X145464285Y-74946190D02*
X145559523Y-74898571D01*
X145559523Y-74898571D02*
X145749999Y-74898571D01*
X145749999Y-74898571D02*
X145845237Y-74946190D01*
X145845237Y-74946190D02*
X145892856Y-74993809D01*
X145892856Y-74993809D02*
X145940475Y-75089047D01*
X144416666Y-75517619D02*
X144988094Y-75517619D01*
X144702380Y-75517619D02*
X144702380Y-74517619D01*
X144702380Y-74517619D02*
X144797618Y-74660476D01*
X144797618Y-74660476D02*
X144892856Y-74755714D01*
X144892856Y-74755714D02*
X144988094Y-74803333D01*
X143988094Y-75517619D02*
X143988094Y-74517619D01*
X143892856Y-75136666D02*
X143607142Y-75517619D01*
X143607142Y-74850952D02*
X143988094Y-75231904D01*
X143178570Y-75517619D02*
X143178570Y-74517619D01*
X143178570Y-74993809D02*
X142607142Y-74993809D01*
X142607142Y-75517619D02*
X142607142Y-74517619D01*
X142226189Y-74517619D02*
X141559523Y-74517619D01*
X141559523Y-74517619D02*
X142226189Y-75517619D01*
X142226189Y-75517619D02*
X141559523Y-75517619D01*
X148559523Y-76851904D02*
X148083333Y-76851904D01*
X148654761Y-77137619D02*
X148321428Y-76137619D01*
X148321428Y-76137619D02*
X147988095Y-77137619D01*
X147654761Y-77137619D02*
X147654761Y-76470952D01*
X147654761Y-76566190D02*
X147607142Y-76518571D01*
X147607142Y-76518571D02*
X147511904Y-76470952D01*
X147511904Y-76470952D02*
X147369047Y-76470952D01*
X147369047Y-76470952D02*
X147273809Y-76518571D01*
X147273809Y-76518571D02*
X147226190Y-76613809D01*
X147226190Y-76613809D02*
X147226190Y-77137619D01*
X147226190Y-76613809D02*
X147178571Y-76518571D01*
X147178571Y-76518571D02*
X147083333Y-76470952D01*
X147083333Y-76470952D02*
X146940476Y-76470952D01*
X146940476Y-76470952D02*
X146845237Y-76518571D01*
X146845237Y-76518571D02*
X146797618Y-76613809D01*
X146797618Y-76613809D02*
X146797618Y-77137619D01*
X145892857Y-77137619D02*
X145892857Y-76613809D01*
X145892857Y-76613809D02*
X145940476Y-76518571D01*
X145940476Y-76518571D02*
X146035714Y-76470952D01*
X146035714Y-76470952D02*
X146226190Y-76470952D01*
X146226190Y-76470952D02*
X146321428Y-76518571D01*
X145892857Y-77090000D02*
X145988095Y-77137619D01*
X145988095Y-77137619D02*
X146226190Y-77137619D01*
X146226190Y-77137619D02*
X146321428Y-77090000D01*
X146321428Y-77090000D02*
X146369047Y-76994761D01*
X146369047Y-76994761D02*
X146369047Y-76899523D01*
X146369047Y-76899523D02*
X146321428Y-76804285D01*
X146321428Y-76804285D02*
X146226190Y-76756666D01*
X146226190Y-76756666D02*
X145988095Y-76756666D01*
X145988095Y-76756666D02*
X145892857Y-76709047D01*
X145511904Y-77137619D02*
X144988095Y-76470952D01*
X145511904Y-76470952D02*
X144988095Y-77137619D01*
X144607142Y-76613809D02*
X143845238Y-76613809D01*
X143845238Y-76899523D02*
X144607142Y-76899523D01*
X143416666Y-76232857D02*
X143369047Y-76185238D01*
X143369047Y-76185238D02*
X143273809Y-76137619D01*
X143273809Y-76137619D02*
X143035714Y-76137619D01*
X143035714Y-76137619D02*
X142940476Y-76185238D01*
X142940476Y-76185238D02*
X142892857Y-76232857D01*
X142892857Y-76232857D02*
X142845238Y-76328095D01*
X142845238Y-76328095D02*
X142845238Y-76423333D01*
X142845238Y-76423333D02*
X142892857Y-76566190D01*
X142892857Y-76566190D02*
X143464285Y-77137619D01*
X143464285Y-77137619D02*
X142845238Y-77137619D01*
X148559523Y-78471904D02*
X148083333Y-78471904D01*
X148654761Y-78757619D02*
X148321428Y-77757619D01*
X148321428Y-77757619D02*
X147988095Y-78757619D01*
X147654761Y-78757619D02*
X147654761Y-78090952D01*
X147654761Y-78186190D02*
X147607142Y-78138571D01*
X147607142Y-78138571D02*
X147511904Y-78090952D01*
X147511904Y-78090952D02*
X147369047Y-78090952D01*
X147369047Y-78090952D02*
X147273809Y-78138571D01*
X147273809Y-78138571D02*
X147226190Y-78233809D01*
X147226190Y-78233809D02*
X147226190Y-78757619D01*
X147226190Y-78233809D02*
X147178571Y-78138571D01*
X147178571Y-78138571D02*
X147083333Y-78090952D01*
X147083333Y-78090952D02*
X146940476Y-78090952D01*
X146940476Y-78090952D02*
X146845237Y-78138571D01*
X146845237Y-78138571D02*
X146797618Y-78233809D01*
X146797618Y-78233809D02*
X146797618Y-78757619D01*
X146321428Y-78757619D02*
X146321428Y-78090952D01*
X146321428Y-77757619D02*
X146369047Y-77805238D01*
X146369047Y-77805238D02*
X146321428Y-77852857D01*
X146321428Y-77852857D02*
X146273809Y-77805238D01*
X146273809Y-77805238D02*
X146321428Y-77757619D01*
X146321428Y-77757619D02*
X146321428Y-77852857D01*
X145845238Y-78090952D02*
X145845238Y-78757619D01*
X145845238Y-78186190D02*
X145797619Y-78138571D01*
X145797619Y-78138571D02*
X145702381Y-78090952D01*
X145702381Y-78090952D02*
X145559524Y-78090952D01*
X145559524Y-78090952D02*
X145464286Y-78138571D01*
X145464286Y-78138571D02*
X145416667Y-78233809D01*
X145416667Y-78233809D02*
X145416667Y-78757619D01*
X144940476Y-78233809D02*
X144178572Y-78233809D01*
X144178572Y-78519523D02*
X144940476Y-78519523D01*
X143750000Y-77852857D02*
X143702381Y-77805238D01*
X143702381Y-77805238D02*
X143607143Y-77757619D01*
X143607143Y-77757619D02*
X143369048Y-77757619D01*
X143369048Y-77757619D02*
X143273810Y-77805238D01*
X143273810Y-77805238D02*
X143226191Y-77852857D01*
X143226191Y-77852857D02*
X143178572Y-77948095D01*
X143178572Y-77948095D02*
X143178572Y-78043333D01*
X143178572Y-78043333D02*
X143226191Y-78186190D01*
X143226191Y-78186190D02*
X143797619Y-78757619D01*
X143797619Y-78757619D02*
X143178572Y-78757619D01*
X142559524Y-77757619D02*
X142464286Y-77757619D01*
X142464286Y-77757619D02*
X142369048Y-77805238D01*
X142369048Y-77805238D02*
X142321429Y-77852857D01*
X142321429Y-77852857D02*
X142273810Y-77948095D01*
X142273810Y-77948095D02*
X142226191Y-78138571D01*
X142226191Y-78138571D02*
X142226191Y-78376666D01*
X142226191Y-78376666D02*
X142273810Y-78567142D01*
X142273810Y-78567142D02*
X142321429Y-78662380D01*
X142321429Y-78662380D02*
X142369048Y-78710000D01*
X142369048Y-78710000D02*
X142464286Y-78757619D01*
X142464286Y-78757619D02*
X142559524Y-78757619D01*
X142559524Y-78757619D02*
X142654762Y-78710000D01*
X142654762Y-78710000D02*
X142702381Y-78662380D01*
X142702381Y-78662380D02*
X142750000Y-78567142D01*
X142750000Y-78567142D02*
X142797619Y-78376666D01*
X142797619Y-78376666D02*
X142797619Y-78138571D01*
X142797619Y-78138571D02*
X142750000Y-77948095D01*
X142750000Y-77948095D02*
X142702381Y-77852857D01*
X142702381Y-77852857D02*
X142654762Y-77805238D01*
X142654762Y-77805238D02*
X142559524Y-77757619D01*
X147988095Y-79425238D02*
X148083333Y-79377619D01*
X148083333Y-79377619D02*
X148226190Y-79377619D01*
X148226190Y-79377619D02*
X148369047Y-79425238D01*
X148369047Y-79425238D02*
X148464285Y-79520476D01*
X148464285Y-79520476D02*
X148511904Y-79615714D01*
X148511904Y-79615714D02*
X148559523Y-79806190D01*
X148559523Y-79806190D02*
X148559523Y-79949047D01*
X148559523Y-79949047D02*
X148511904Y-80139523D01*
X148511904Y-80139523D02*
X148464285Y-80234761D01*
X148464285Y-80234761D02*
X148369047Y-80330000D01*
X148369047Y-80330000D02*
X148226190Y-80377619D01*
X148226190Y-80377619D02*
X148130952Y-80377619D01*
X148130952Y-80377619D02*
X147988095Y-80330000D01*
X147988095Y-80330000D02*
X147940476Y-80282380D01*
X147940476Y-80282380D02*
X147940476Y-79949047D01*
X147940476Y-79949047D02*
X148130952Y-79949047D01*
X147083333Y-80377619D02*
X147083333Y-79853809D01*
X147083333Y-79853809D02*
X147130952Y-79758571D01*
X147130952Y-79758571D02*
X147226190Y-79710952D01*
X147226190Y-79710952D02*
X147416666Y-79710952D01*
X147416666Y-79710952D02*
X147511904Y-79758571D01*
X147083333Y-80330000D02*
X147178571Y-80377619D01*
X147178571Y-80377619D02*
X147416666Y-80377619D01*
X147416666Y-80377619D02*
X147511904Y-80330000D01*
X147511904Y-80330000D02*
X147559523Y-80234761D01*
X147559523Y-80234761D02*
X147559523Y-80139523D01*
X147559523Y-80139523D02*
X147511904Y-80044285D01*
X147511904Y-80044285D02*
X147416666Y-79996666D01*
X147416666Y-79996666D02*
X147178571Y-79996666D01*
X147178571Y-79996666D02*
X147083333Y-79949047D01*
X146607142Y-80377619D02*
X146607142Y-79710952D01*
X146607142Y-79377619D02*
X146654761Y-79425238D01*
X146654761Y-79425238D02*
X146607142Y-79472857D01*
X146607142Y-79472857D02*
X146559523Y-79425238D01*
X146559523Y-79425238D02*
X146607142Y-79377619D01*
X146607142Y-79377619D02*
X146607142Y-79472857D01*
X146130952Y-79710952D02*
X146130952Y-80377619D01*
X146130952Y-79806190D02*
X146083333Y-79758571D01*
X146083333Y-79758571D02*
X145988095Y-79710952D01*
X145988095Y-79710952D02*
X145845238Y-79710952D01*
X145845238Y-79710952D02*
X145750000Y-79758571D01*
X145750000Y-79758571D02*
X145702381Y-79853809D01*
X145702381Y-79853809D02*
X145702381Y-80377619D01*
X145226190Y-79853809D02*
X144464286Y-79853809D01*
X144464286Y-80139523D02*
X145226190Y-80139523D01*
X143511905Y-79377619D02*
X143988095Y-79377619D01*
X143988095Y-79377619D02*
X144035714Y-79853809D01*
X144035714Y-79853809D02*
X143988095Y-79806190D01*
X143988095Y-79806190D02*
X143892857Y-79758571D01*
X143892857Y-79758571D02*
X143654762Y-79758571D01*
X143654762Y-79758571D02*
X143559524Y-79806190D01*
X143559524Y-79806190D02*
X143511905Y-79853809D01*
X143511905Y-79853809D02*
X143464286Y-79949047D01*
X143464286Y-79949047D02*
X143464286Y-80187142D01*
X143464286Y-80187142D02*
X143511905Y-80282380D01*
X143511905Y-80282380D02*
X143559524Y-80330000D01*
X143559524Y-80330000D02*
X143654762Y-80377619D01*
X143654762Y-80377619D02*
X143892857Y-80377619D01*
X143892857Y-80377619D02*
X143988095Y-80330000D01*
X143988095Y-80330000D02*
X144035714Y-80282380D01*
X115347620Y-90305238D02*
X115423810Y-90257619D01*
X115423810Y-90257619D02*
X115538096Y-90257619D01*
X115538096Y-90257619D02*
X115652382Y-90305238D01*
X115652382Y-90305238D02*
X115728572Y-90400476D01*
X115728572Y-90400476D02*
X115766667Y-90495714D01*
X115766667Y-90495714D02*
X115804763Y-90686190D01*
X115804763Y-90686190D02*
X115804763Y-90829047D01*
X115804763Y-90829047D02*
X115766667Y-91019523D01*
X115766667Y-91019523D02*
X115728572Y-91114761D01*
X115728572Y-91114761D02*
X115652382Y-91210000D01*
X115652382Y-91210000D02*
X115538096Y-91257619D01*
X115538096Y-91257619D02*
X115461905Y-91257619D01*
X115461905Y-91257619D02*
X115347620Y-91210000D01*
X115347620Y-91210000D02*
X115309524Y-91162380D01*
X115309524Y-91162380D02*
X115309524Y-90829047D01*
X115309524Y-90829047D02*
X115461905Y-90829047D01*
X114966667Y-91257619D02*
X114966667Y-90590952D01*
X114966667Y-90257619D02*
X115004763Y-90305238D01*
X115004763Y-90305238D02*
X114966667Y-90352857D01*
X114966667Y-90352857D02*
X114928572Y-90305238D01*
X114928572Y-90305238D02*
X114966667Y-90257619D01*
X114966667Y-90257619D02*
X114966667Y-90352857D01*
X114242858Y-90590952D02*
X114242858Y-91257619D01*
X114585715Y-90590952D02*
X114585715Y-91114761D01*
X114585715Y-91114761D02*
X114547620Y-91210000D01*
X114547620Y-91210000D02*
X114471430Y-91257619D01*
X114471430Y-91257619D02*
X114357144Y-91257619D01*
X114357144Y-91257619D02*
X114280953Y-91210000D01*
X114280953Y-91210000D02*
X114242858Y-91162380D01*
X113747620Y-91257619D02*
X113823810Y-91210000D01*
X113823810Y-91210000D02*
X113861905Y-91114761D01*
X113861905Y-91114761D02*
X113861905Y-90257619D01*
X113442857Y-91257619D02*
X113442857Y-90590952D01*
X113442857Y-90257619D02*
X113480953Y-90305238D01*
X113480953Y-90305238D02*
X113442857Y-90352857D01*
X113442857Y-90352857D02*
X113404762Y-90305238D01*
X113404762Y-90305238D02*
X113442857Y-90257619D01*
X113442857Y-90257619D02*
X113442857Y-90352857D01*
X112947620Y-91257619D02*
X113023810Y-91210000D01*
X113023810Y-91210000D02*
X113061905Y-91162380D01*
X113061905Y-91162380D02*
X113100001Y-91067142D01*
X113100001Y-91067142D02*
X113100001Y-90781428D01*
X113100001Y-90781428D02*
X113061905Y-90686190D01*
X113061905Y-90686190D02*
X113023810Y-90638571D01*
X113023810Y-90638571D02*
X112947620Y-90590952D01*
X112947620Y-90590952D02*
X112833334Y-90590952D01*
X112833334Y-90590952D02*
X112757143Y-90638571D01*
X112757143Y-90638571D02*
X112719048Y-90686190D01*
X112719048Y-90686190D02*
X112680953Y-90781428D01*
X112680953Y-90781428D02*
X112680953Y-91067142D01*
X112680953Y-91067142D02*
X112719048Y-91162380D01*
X112719048Y-91162380D02*
X112757143Y-91210000D01*
X112757143Y-91210000D02*
X112833334Y-91257619D01*
X112833334Y-91257619D02*
X112947620Y-91257619D01*
X111842857Y-90257619D02*
X111576190Y-91257619D01*
X111576190Y-91257619D02*
X111309524Y-90257619D01*
X111042857Y-91257619D02*
X111042857Y-90590952D01*
X111042857Y-90257619D02*
X111080953Y-90305238D01*
X111080953Y-90305238D02*
X111042857Y-90352857D01*
X111042857Y-90352857D02*
X111004762Y-90305238D01*
X111004762Y-90305238D02*
X111042857Y-90257619D01*
X111042857Y-90257619D02*
X111042857Y-90352857D01*
X110319048Y-90590952D02*
X110319048Y-91400476D01*
X110319048Y-91400476D02*
X110357143Y-91495714D01*
X110357143Y-91495714D02*
X110395239Y-91543333D01*
X110395239Y-91543333D02*
X110471429Y-91590952D01*
X110471429Y-91590952D02*
X110585715Y-91590952D01*
X110585715Y-91590952D02*
X110661905Y-91543333D01*
X110319048Y-91210000D02*
X110395239Y-91257619D01*
X110395239Y-91257619D02*
X110547620Y-91257619D01*
X110547620Y-91257619D02*
X110623810Y-91210000D01*
X110623810Y-91210000D02*
X110661905Y-91162380D01*
X110661905Y-91162380D02*
X110700001Y-91067142D01*
X110700001Y-91067142D02*
X110700001Y-90781428D01*
X110700001Y-90781428D02*
X110661905Y-90686190D01*
X110661905Y-90686190D02*
X110623810Y-90638571D01*
X110623810Y-90638571D02*
X110547620Y-90590952D01*
X110547620Y-90590952D02*
X110395239Y-90590952D01*
X110395239Y-90590952D02*
X110319048Y-90638571D01*
X109938095Y-90590952D02*
X109938095Y-91257619D01*
X109938095Y-90686190D02*
X109900000Y-90638571D01*
X109900000Y-90638571D02*
X109823810Y-90590952D01*
X109823810Y-90590952D02*
X109709524Y-90590952D01*
X109709524Y-90590952D02*
X109633333Y-90638571D01*
X109633333Y-90638571D02*
X109595238Y-90733809D01*
X109595238Y-90733809D02*
X109595238Y-91257619D01*
X108871428Y-91257619D02*
X108871428Y-90733809D01*
X108871428Y-90733809D02*
X108909523Y-90638571D01*
X108909523Y-90638571D02*
X108985714Y-90590952D01*
X108985714Y-90590952D02*
X109138095Y-90590952D01*
X109138095Y-90590952D02*
X109214285Y-90638571D01*
X108871428Y-91210000D02*
X108947619Y-91257619D01*
X108947619Y-91257619D02*
X109138095Y-91257619D01*
X109138095Y-91257619D02*
X109214285Y-91210000D01*
X109214285Y-91210000D02*
X109252381Y-91114761D01*
X109252381Y-91114761D02*
X109252381Y-91019523D01*
X109252381Y-91019523D02*
X109214285Y-90924285D01*
X109214285Y-90924285D02*
X109138095Y-90876666D01*
X109138095Y-90876666D02*
X108947619Y-90876666D01*
X108947619Y-90876666D02*
X108871428Y-90829047D01*
X108604761Y-90590952D02*
X108299999Y-90590952D01*
X108490475Y-90257619D02*
X108490475Y-91114761D01*
X108490475Y-91114761D02*
X108452380Y-91210000D01*
X108452380Y-91210000D02*
X108376190Y-91257619D01*
X108376190Y-91257619D02*
X108299999Y-91257619D01*
X108033332Y-91257619D02*
X108033332Y-90590952D01*
X108033332Y-90257619D02*
X108071428Y-90305238D01*
X108071428Y-90305238D02*
X108033332Y-90352857D01*
X108033332Y-90352857D02*
X107995237Y-90305238D01*
X107995237Y-90305238D02*
X108033332Y-90257619D01*
X108033332Y-90257619D02*
X108033332Y-90352857D01*
X107042856Y-90876666D02*
X106433333Y-90876666D01*
X105061904Y-91257619D02*
X105442856Y-91257619D01*
X105442856Y-91257619D02*
X105442856Y-90257619D01*
X104452380Y-90590952D02*
X104452380Y-91257619D01*
X104795237Y-90590952D02*
X104795237Y-91114761D01*
X104795237Y-91114761D02*
X104757142Y-91210000D01*
X104757142Y-91210000D02*
X104680952Y-91257619D01*
X104680952Y-91257619D02*
X104566666Y-91257619D01*
X104566666Y-91257619D02*
X104490475Y-91210000D01*
X104490475Y-91210000D02*
X104452380Y-91162380D01*
X103728570Y-91210000D02*
X103804761Y-91257619D01*
X103804761Y-91257619D02*
X103957142Y-91257619D01*
X103957142Y-91257619D02*
X104033332Y-91210000D01*
X104033332Y-91210000D02*
X104071427Y-91162380D01*
X104071427Y-91162380D02*
X104109523Y-91067142D01*
X104109523Y-91067142D02*
X104109523Y-90781428D01*
X104109523Y-90781428D02*
X104071427Y-90686190D01*
X104071427Y-90686190D02*
X104033332Y-90638571D01*
X104033332Y-90638571D02*
X103957142Y-90590952D01*
X103957142Y-90590952D02*
X103804761Y-90590952D01*
X103804761Y-90590952D02*
X103728570Y-90638571D01*
X103385713Y-91257619D02*
X103385713Y-90590952D01*
X103385713Y-90257619D02*
X103423809Y-90305238D01*
X103423809Y-90305238D02*
X103385713Y-90352857D01*
X103385713Y-90352857D02*
X103347618Y-90305238D01*
X103347618Y-90305238D02*
X103385713Y-90257619D01*
X103385713Y-90257619D02*
X103385713Y-90352857D01*
X102890476Y-91257619D02*
X102966666Y-91210000D01*
X102966666Y-91210000D02*
X103004761Y-91114761D01*
X103004761Y-91114761D02*
X103004761Y-90257619D01*
X102471428Y-91257619D02*
X102547618Y-91210000D01*
X102547618Y-91210000D02*
X102585713Y-91114761D01*
X102585713Y-91114761D02*
X102585713Y-90257619D01*
X101823808Y-91257619D02*
X101823808Y-90733809D01*
X101823808Y-90733809D02*
X101861903Y-90638571D01*
X101861903Y-90638571D02*
X101938094Y-90590952D01*
X101938094Y-90590952D02*
X102090475Y-90590952D01*
X102090475Y-90590952D02*
X102166665Y-90638571D01*
X101823808Y-91210000D02*
X101899999Y-91257619D01*
X101899999Y-91257619D02*
X102090475Y-91257619D01*
X102090475Y-91257619D02*
X102166665Y-91210000D01*
X102166665Y-91210000D02*
X102204761Y-91114761D01*
X102204761Y-91114761D02*
X102204761Y-91019523D01*
X102204761Y-91019523D02*
X102166665Y-90924285D01*
X102166665Y-90924285D02*
X102090475Y-90876666D01*
X102090475Y-90876666D02*
X101899999Y-90876666D01*
X101899999Y-90876666D02*
X101823808Y-90829047D01*
X100490474Y-91257619D02*
X100490474Y-90257619D01*
X100490474Y-91210000D02*
X100566665Y-91257619D01*
X100566665Y-91257619D02*
X100719046Y-91257619D01*
X100719046Y-91257619D02*
X100795236Y-91210000D01*
X100795236Y-91210000D02*
X100833331Y-91162380D01*
X100833331Y-91162380D02*
X100871427Y-91067142D01*
X100871427Y-91067142D02*
X100871427Y-90781428D01*
X100871427Y-90781428D02*
X100833331Y-90686190D01*
X100833331Y-90686190D02*
X100795236Y-90638571D01*
X100795236Y-90638571D02*
X100719046Y-90590952D01*
X100719046Y-90590952D02*
X100566665Y-90590952D01*
X100566665Y-90590952D02*
X100490474Y-90638571D01*
X99804759Y-91210000D02*
X99880950Y-91257619D01*
X99880950Y-91257619D02*
X100033331Y-91257619D01*
X100033331Y-91257619D02*
X100109521Y-91210000D01*
X100109521Y-91210000D02*
X100147617Y-91114761D01*
X100147617Y-91114761D02*
X100147617Y-90733809D01*
X100147617Y-90733809D02*
X100109521Y-90638571D01*
X100109521Y-90638571D02*
X100033331Y-90590952D01*
X100033331Y-90590952D02*
X99880950Y-90590952D01*
X99880950Y-90590952D02*
X99804759Y-90638571D01*
X99804759Y-90638571D02*
X99766664Y-90733809D01*
X99766664Y-90733809D02*
X99766664Y-90829047D01*
X99766664Y-90829047D02*
X100147617Y-90924285D01*
X98357140Y-91257619D02*
X98623807Y-90781428D01*
X98814283Y-91257619D02*
X98814283Y-90257619D01*
X98814283Y-90257619D02*
X98509521Y-90257619D01*
X98509521Y-90257619D02*
X98433331Y-90305238D01*
X98433331Y-90305238D02*
X98395236Y-90352857D01*
X98395236Y-90352857D02*
X98357140Y-90448095D01*
X98357140Y-90448095D02*
X98357140Y-90590952D01*
X98357140Y-90590952D02*
X98395236Y-90686190D01*
X98395236Y-90686190D02*
X98433331Y-90733809D01*
X98433331Y-90733809D02*
X98509521Y-90781428D01*
X98509521Y-90781428D02*
X98814283Y-90781428D01*
X97709521Y-91210000D02*
X97785712Y-91257619D01*
X97785712Y-91257619D02*
X97938093Y-91257619D01*
X97938093Y-91257619D02*
X98014283Y-91210000D01*
X98014283Y-91210000D02*
X98052379Y-91114761D01*
X98052379Y-91114761D02*
X98052379Y-90733809D01*
X98052379Y-90733809D02*
X98014283Y-90638571D01*
X98014283Y-90638571D02*
X97938093Y-90590952D01*
X97938093Y-90590952D02*
X97785712Y-90590952D01*
X97785712Y-90590952D02*
X97709521Y-90638571D01*
X97709521Y-90638571D02*
X97671426Y-90733809D01*
X97671426Y-90733809D02*
X97671426Y-90829047D01*
X97671426Y-90829047D02*
X98052379Y-90924285D01*
X97328569Y-90590952D02*
X97328569Y-91257619D01*
X97328569Y-90686190D02*
X97290474Y-90638571D01*
X97290474Y-90638571D02*
X97214284Y-90590952D01*
X97214284Y-90590952D02*
X97099998Y-90590952D01*
X97099998Y-90590952D02*
X97023807Y-90638571D01*
X97023807Y-90638571D02*
X96985712Y-90733809D01*
X96985712Y-90733809D02*
X96985712Y-91257619D01*
X96680950Y-90590952D02*
X96261902Y-90590952D01*
X96261902Y-90590952D02*
X96680950Y-91257619D01*
X96680950Y-91257619D02*
X96261902Y-91257619D01*
X95957140Y-91257619D02*
X95957140Y-90590952D01*
X95957140Y-90257619D02*
X95995236Y-90305238D01*
X95995236Y-90305238D02*
X95957140Y-90352857D01*
X95957140Y-90352857D02*
X95919045Y-90305238D01*
X95919045Y-90305238D02*
X95957140Y-90257619D01*
X95957140Y-90257619D02*
X95957140Y-90352857D01*
X95614284Y-91210000D02*
X95538093Y-91257619D01*
X95538093Y-91257619D02*
X95385712Y-91257619D01*
X95385712Y-91257619D02*
X95309522Y-91210000D01*
X95309522Y-91210000D02*
X95271426Y-91114761D01*
X95271426Y-91114761D02*
X95271426Y-91067142D01*
X95271426Y-91067142D02*
X95309522Y-90971904D01*
X95309522Y-90971904D02*
X95385712Y-90924285D01*
X95385712Y-90924285D02*
X95499998Y-90924285D01*
X95499998Y-90924285D02*
X95576188Y-90876666D01*
X95576188Y-90876666D02*
X95614284Y-90781428D01*
X95614284Y-90781428D02*
X95614284Y-90733809D01*
X95614284Y-90733809D02*
X95576188Y-90638571D01*
X95576188Y-90638571D02*
X95499998Y-90590952D01*
X95499998Y-90590952D02*
X95385712Y-90590952D01*
X95385712Y-90590952D02*
X95309522Y-90638571D01*
X94319045Y-90876666D02*
X93709522Y-90876666D01*
X92452379Y-90733809D02*
X92719045Y-90733809D01*
X92719045Y-91257619D02*
X92719045Y-90257619D01*
X92719045Y-90257619D02*
X92338093Y-90257619D01*
X91728569Y-91210000D02*
X91804760Y-91257619D01*
X91804760Y-91257619D02*
X91957141Y-91257619D01*
X91957141Y-91257619D02*
X92033331Y-91210000D01*
X92033331Y-91210000D02*
X92071427Y-91114761D01*
X92071427Y-91114761D02*
X92071427Y-90733809D01*
X92071427Y-90733809D02*
X92033331Y-90638571D01*
X92033331Y-90638571D02*
X91957141Y-90590952D01*
X91957141Y-90590952D02*
X91804760Y-90590952D01*
X91804760Y-90590952D02*
X91728569Y-90638571D01*
X91728569Y-90638571D02*
X91690474Y-90733809D01*
X91690474Y-90733809D02*
X91690474Y-90829047D01*
X91690474Y-90829047D02*
X92071427Y-90924285D01*
X91004760Y-91257619D02*
X91004760Y-90257619D01*
X91004760Y-91210000D02*
X91080951Y-91257619D01*
X91080951Y-91257619D02*
X91233332Y-91257619D01*
X91233332Y-91257619D02*
X91309522Y-91210000D01*
X91309522Y-91210000D02*
X91347617Y-91162380D01*
X91347617Y-91162380D02*
X91385713Y-91067142D01*
X91385713Y-91067142D02*
X91385713Y-90781428D01*
X91385713Y-90781428D02*
X91347617Y-90686190D01*
X91347617Y-90686190D02*
X91309522Y-90638571D01*
X91309522Y-90638571D02*
X91233332Y-90590952D01*
X91233332Y-90590952D02*
X91080951Y-90590952D01*
X91080951Y-90590952D02*
X91004760Y-90638571D01*
X90319045Y-91210000D02*
X90395236Y-91257619D01*
X90395236Y-91257619D02*
X90547617Y-91257619D01*
X90547617Y-91257619D02*
X90623807Y-91210000D01*
X90623807Y-91210000D02*
X90661903Y-91114761D01*
X90661903Y-91114761D02*
X90661903Y-90733809D01*
X90661903Y-90733809D02*
X90623807Y-90638571D01*
X90623807Y-90638571D02*
X90547617Y-90590952D01*
X90547617Y-90590952D02*
X90395236Y-90590952D01*
X90395236Y-90590952D02*
X90319045Y-90638571D01*
X90319045Y-90638571D02*
X90280950Y-90733809D01*
X90280950Y-90733809D02*
X90280950Y-90829047D01*
X90280950Y-90829047D02*
X90661903Y-90924285D01*
X89938093Y-91257619D02*
X89938093Y-90590952D01*
X89938093Y-90781428D02*
X89899998Y-90686190D01*
X89899998Y-90686190D02*
X89861903Y-90638571D01*
X89861903Y-90638571D02*
X89785712Y-90590952D01*
X89785712Y-90590952D02*
X89709522Y-90590952D01*
X89442855Y-91257619D02*
X89442855Y-90590952D01*
X89442855Y-90257619D02*
X89480951Y-90305238D01*
X89480951Y-90305238D02*
X89442855Y-90352857D01*
X89442855Y-90352857D02*
X89404760Y-90305238D01*
X89404760Y-90305238D02*
X89442855Y-90257619D01*
X89442855Y-90257619D02*
X89442855Y-90352857D01*
X88719046Y-91210000D02*
X88795237Y-91257619D01*
X88795237Y-91257619D02*
X88947618Y-91257619D01*
X88947618Y-91257619D02*
X89023808Y-91210000D01*
X89023808Y-91210000D02*
X89061903Y-91162380D01*
X89061903Y-91162380D02*
X89099999Y-91067142D01*
X89099999Y-91067142D02*
X89099999Y-90781428D01*
X89099999Y-90781428D02*
X89061903Y-90686190D01*
X89061903Y-90686190D02*
X89023808Y-90638571D01*
X89023808Y-90638571D02*
X88947618Y-90590952D01*
X88947618Y-90590952D02*
X88795237Y-90590952D01*
X88795237Y-90590952D02*
X88719046Y-90638571D01*
X88261904Y-91257619D02*
X88338094Y-91210000D01*
X88338094Y-91210000D02*
X88376189Y-91162380D01*
X88376189Y-91162380D02*
X88414285Y-91067142D01*
X88414285Y-91067142D02*
X88414285Y-90781428D01*
X88414285Y-90781428D02*
X88376189Y-90686190D01*
X88376189Y-90686190D02*
X88338094Y-90638571D01*
X88338094Y-90638571D02*
X88261904Y-90590952D01*
X88261904Y-90590952D02*
X88147618Y-90590952D01*
X88147618Y-90590952D02*
X88071427Y-90638571D01*
X88071427Y-90638571D02*
X88033332Y-90686190D01*
X88033332Y-90686190D02*
X87995237Y-90781428D01*
X87995237Y-90781428D02*
X87995237Y-91067142D01*
X87995237Y-91067142D02*
X88033332Y-91162380D01*
X88033332Y-91162380D02*
X88071427Y-91210000D01*
X88071427Y-91210000D02*
X88147618Y-91257619D01*
X88147618Y-91257619D02*
X88261904Y-91257619D01*
X86585712Y-91162380D02*
X86623808Y-91210000D01*
X86623808Y-91210000D02*
X86738093Y-91257619D01*
X86738093Y-91257619D02*
X86814284Y-91257619D01*
X86814284Y-91257619D02*
X86928570Y-91210000D01*
X86928570Y-91210000D02*
X87004760Y-91114761D01*
X87004760Y-91114761D02*
X87042855Y-91019523D01*
X87042855Y-91019523D02*
X87080951Y-90829047D01*
X87080951Y-90829047D02*
X87080951Y-90686190D01*
X87080951Y-90686190D02*
X87042855Y-90495714D01*
X87042855Y-90495714D02*
X87004760Y-90400476D01*
X87004760Y-90400476D02*
X86928570Y-90305238D01*
X86928570Y-90305238D02*
X86814284Y-90257619D01*
X86814284Y-90257619D02*
X86738093Y-90257619D01*
X86738093Y-90257619D02*
X86623808Y-90305238D01*
X86623808Y-90305238D02*
X86585712Y-90352857D01*
X86242855Y-91257619D02*
X86242855Y-90590952D01*
X86242855Y-90781428D02*
X86204760Y-90686190D01*
X86204760Y-90686190D02*
X86166665Y-90638571D01*
X86166665Y-90638571D02*
X86090474Y-90590952D01*
X86090474Y-90590952D02*
X86014284Y-90590952D01*
X85633332Y-91257619D02*
X85709522Y-91210000D01*
X85709522Y-91210000D02*
X85747617Y-91162380D01*
X85747617Y-91162380D02*
X85785713Y-91067142D01*
X85785713Y-91067142D02*
X85785713Y-90781428D01*
X85785713Y-90781428D02*
X85747617Y-90686190D01*
X85747617Y-90686190D02*
X85709522Y-90638571D01*
X85709522Y-90638571D02*
X85633332Y-90590952D01*
X85633332Y-90590952D02*
X85519046Y-90590952D01*
X85519046Y-90590952D02*
X85442855Y-90638571D01*
X85442855Y-90638571D02*
X85404760Y-90686190D01*
X85404760Y-90686190D02*
X85366665Y-90781428D01*
X85366665Y-90781428D02*
X85366665Y-91067142D01*
X85366665Y-91067142D02*
X85404760Y-91162380D01*
X85404760Y-91162380D02*
X85442855Y-91210000D01*
X85442855Y-91210000D02*
X85519046Y-91257619D01*
X85519046Y-91257619D02*
X85633332Y-91257619D01*
X85023807Y-91257619D02*
X85023807Y-90590952D01*
X85023807Y-90686190D02*
X84985712Y-90638571D01*
X84985712Y-90638571D02*
X84909522Y-90590952D01*
X84909522Y-90590952D02*
X84795236Y-90590952D01*
X84795236Y-90590952D02*
X84719045Y-90638571D01*
X84719045Y-90638571D02*
X84680950Y-90733809D01*
X84680950Y-90733809D02*
X84680950Y-91257619D01*
X84680950Y-90733809D02*
X84642855Y-90638571D01*
X84642855Y-90638571D02*
X84566664Y-90590952D01*
X84566664Y-90590952D02*
X84452379Y-90590952D01*
X84452379Y-90590952D02*
X84376188Y-90638571D01*
X84376188Y-90638571D02*
X84338093Y-90733809D01*
X84338093Y-90733809D02*
X84338093Y-91257619D01*
X83957140Y-91257619D02*
X83957140Y-90257619D01*
X83957140Y-90638571D02*
X83880950Y-90590952D01*
X83880950Y-90590952D02*
X83728569Y-90590952D01*
X83728569Y-90590952D02*
X83652378Y-90638571D01*
X83652378Y-90638571D02*
X83614283Y-90686190D01*
X83614283Y-90686190D02*
X83576188Y-90781428D01*
X83576188Y-90781428D02*
X83576188Y-91067142D01*
X83576188Y-91067142D02*
X83614283Y-91162380D01*
X83614283Y-91162380D02*
X83652378Y-91210000D01*
X83652378Y-91210000D02*
X83728569Y-91257619D01*
X83728569Y-91257619D02*
X83880950Y-91257619D01*
X83880950Y-91257619D02*
X83957140Y-91210000D01*
X83233330Y-91257619D02*
X83233330Y-90590952D01*
X83233330Y-90257619D02*
X83271426Y-90305238D01*
X83271426Y-90305238D02*
X83233330Y-90352857D01*
X83233330Y-90352857D02*
X83195235Y-90305238D01*
X83195235Y-90305238D02*
X83233330Y-90257619D01*
X83233330Y-90257619D02*
X83233330Y-90352857D01*
X116242860Y-92353809D02*
X115976194Y-92353809D01*
X115861908Y-92877619D02*
X116242860Y-92877619D01*
X116242860Y-92877619D02*
X116242860Y-91877619D01*
X116242860Y-91877619D02*
X115861908Y-91877619D01*
X115176193Y-92877619D02*
X115176193Y-91877619D01*
X115176193Y-92830000D02*
X115252384Y-92877619D01*
X115252384Y-92877619D02*
X115404765Y-92877619D01*
X115404765Y-92877619D02*
X115480955Y-92830000D01*
X115480955Y-92830000D02*
X115519050Y-92782380D01*
X115519050Y-92782380D02*
X115557146Y-92687142D01*
X115557146Y-92687142D02*
X115557146Y-92401428D01*
X115557146Y-92401428D02*
X115519050Y-92306190D01*
X115519050Y-92306190D02*
X115480955Y-92258571D01*
X115480955Y-92258571D02*
X115404765Y-92210952D01*
X115404765Y-92210952D02*
X115252384Y-92210952D01*
X115252384Y-92210952D02*
X115176193Y-92258571D01*
X114680955Y-92877619D02*
X114757145Y-92830000D01*
X114757145Y-92830000D02*
X114795240Y-92782380D01*
X114795240Y-92782380D02*
X114833336Y-92687142D01*
X114833336Y-92687142D02*
X114833336Y-92401428D01*
X114833336Y-92401428D02*
X114795240Y-92306190D01*
X114795240Y-92306190D02*
X114757145Y-92258571D01*
X114757145Y-92258571D02*
X114680955Y-92210952D01*
X114680955Y-92210952D02*
X114566669Y-92210952D01*
X114566669Y-92210952D02*
X114490478Y-92258571D01*
X114490478Y-92258571D02*
X114452383Y-92306190D01*
X114452383Y-92306190D02*
X114414288Y-92401428D01*
X114414288Y-92401428D02*
X114414288Y-92687142D01*
X114414288Y-92687142D02*
X114452383Y-92782380D01*
X114452383Y-92782380D02*
X114490478Y-92830000D01*
X114490478Y-92830000D02*
X114566669Y-92877619D01*
X114566669Y-92877619D02*
X114680955Y-92877619D01*
X113728573Y-92877619D02*
X113728573Y-92353809D01*
X113728573Y-92353809D02*
X113766668Y-92258571D01*
X113766668Y-92258571D02*
X113842859Y-92210952D01*
X113842859Y-92210952D02*
X113995240Y-92210952D01*
X113995240Y-92210952D02*
X114071430Y-92258571D01*
X113728573Y-92830000D02*
X113804764Y-92877619D01*
X113804764Y-92877619D02*
X113995240Y-92877619D01*
X113995240Y-92877619D02*
X114071430Y-92830000D01*
X114071430Y-92830000D02*
X114109526Y-92734761D01*
X114109526Y-92734761D02*
X114109526Y-92639523D01*
X114109526Y-92639523D02*
X114071430Y-92544285D01*
X114071430Y-92544285D02*
X113995240Y-92496666D01*
X113995240Y-92496666D02*
X113804764Y-92496666D01*
X113804764Y-92496666D02*
X113728573Y-92449047D01*
X113347620Y-92877619D02*
X113347620Y-92210952D01*
X113347620Y-92401428D02*
X113309525Y-92306190D01*
X113309525Y-92306190D02*
X113271430Y-92258571D01*
X113271430Y-92258571D02*
X113195239Y-92210952D01*
X113195239Y-92210952D02*
X113119049Y-92210952D01*
X112509525Y-92877619D02*
X112509525Y-91877619D01*
X112509525Y-92830000D02*
X112585716Y-92877619D01*
X112585716Y-92877619D02*
X112738097Y-92877619D01*
X112738097Y-92877619D02*
X112814287Y-92830000D01*
X112814287Y-92830000D02*
X112852382Y-92782380D01*
X112852382Y-92782380D02*
X112890478Y-92687142D01*
X112890478Y-92687142D02*
X112890478Y-92401428D01*
X112890478Y-92401428D02*
X112852382Y-92306190D01*
X112852382Y-92306190D02*
X112814287Y-92258571D01*
X112814287Y-92258571D02*
X112738097Y-92210952D01*
X112738097Y-92210952D02*
X112585716Y-92210952D01*
X112585716Y-92210952D02*
X112509525Y-92258571D01*
X112014287Y-92877619D02*
X112090477Y-92830000D01*
X112090477Y-92830000D02*
X112128572Y-92782380D01*
X112128572Y-92782380D02*
X112166668Y-92687142D01*
X112166668Y-92687142D02*
X112166668Y-92401428D01*
X112166668Y-92401428D02*
X112128572Y-92306190D01*
X112128572Y-92306190D02*
X112090477Y-92258571D01*
X112090477Y-92258571D02*
X112014287Y-92210952D01*
X112014287Y-92210952D02*
X111900001Y-92210952D01*
X111900001Y-92210952D02*
X111823810Y-92258571D01*
X111823810Y-92258571D02*
X111785715Y-92306190D01*
X111785715Y-92306190D02*
X111747620Y-92401428D01*
X111747620Y-92401428D02*
X111747620Y-92687142D01*
X111747620Y-92687142D02*
X111785715Y-92782380D01*
X111785715Y-92782380D02*
X111823810Y-92830000D01*
X111823810Y-92830000D02*
X111900001Y-92877619D01*
X111900001Y-92877619D02*
X112014287Y-92877619D01*
X110338095Y-92782380D02*
X110376191Y-92830000D01*
X110376191Y-92830000D02*
X110490476Y-92877619D01*
X110490476Y-92877619D02*
X110566667Y-92877619D01*
X110566667Y-92877619D02*
X110680953Y-92830000D01*
X110680953Y-92830000D02*
X110757143Y-92734761D01*
X110757143Y-92734761D02*
X110795238Y-92639523D01*
X110795238Y-92639523D02*
X110833334Y-92449047D01*
X110833334Y-92449047D02*
X110833334Y-92306190D01*
X110833334Y-92306190D02*
X110795238Y-92115714D01*
X110795238Y-92115714D02*
X110757143Y-92020476D01*
X110757143Y-92020476D02*
X110680953Y-91925238D01*
X110680953Y-91925238D02*
X110566667Y-91877619D01*
X110566667Y-91877619D02*
X110490476Y-91877619D01*
X110490476Y-91877619D02*
X110376191Y-91925238D01*
X110376191Y-91925238D02*
X110338095Y-91972857D01*
X109652381Y-92877619D02*
X109652381Y-92353809D01*
X109652381Y-92353809D02*
X109690476Y-92258571D01*
X109690476Y-92258571D02*
X109766667Y-92210952D01*
X109766667Y-92210952D02*
X109919048Y-92210952D01*
X109919048Y-92210952D02*
X109995238Y-92258571D01*
X109652381Y-92830000D02*
X109728572Y-92877619D01*
X109728572Y-92877619D02*
X109919048Y-92877619D01*
X109919048Y-92877619D02*
X109995238Y-92830000D01*
X109995238Y-92830000D02*
X110033334Y-92734761D01*
X110033334Y-92734761D02*
X110033334Y-92639523D01*
X110033334Y-92639523D02*
X109995238Y-92544285D01*
X109995238Y-92544285D02*
X109919048Y-92496666D01*
X109919048Y-92496666D02*
X109728572Y-92496666D01*
X109728572Y-92496666D02*
X109652381Y-92449047D01*
X109309524Y-92830000D02*
X109233333Y-92877619D01*
X109233333Y-92877619D02*
X109080952Y-92877619D01*
X109080952Y-92877619D02*
X109004762Y-92830000D01*
X109004762Y-92830000D02*
X108966666Y-92734761D01*
X108966666Y-92734761D02*
X108966666Y-92687142D01*
X108966666Y-92687142D02*
X109004762Y-92591904D01*
X109004762Y-92591904D02*
X109080952Y-92544285D01*
X109080952Y-92544285D02*
X109195238Y-92544285D01*
X109195238Y-92544285D02*
X109271428Y-92496666D01*
X109271428Y-92496666D02*
X109309524Y-92401428D01*
X109309524Y-92401428D02*
X109309524Y-92353809D01*
X109309524Y-92353809D02*
X109271428Y-92258571D01*
X109271428Y-92258571D02*
X109195238Y-92210952D01*
X109195238Y-92210952D02*
X109080952Y-92210952D01*
X109080952Y-92210952D02*
X109004762Y-92258571D01*
X108280952Y-92877619D02*
X108280952Y-92353809D01*
X108280952Y-92353809D02*
X108319047Y-92258571D01*
X108319047Y-92258571D02*
X108395238Y-92210952D01*
X108395238Y-92210952D02*
X108547619Y-92210952D01*
X108547619Y-92210952D02*
X108623809Y-92258571D01*
X108280952Y-92830000D02*
X108357143Y-92877619D01*
X108357143Y-92877619D02*
X108547619Y-92877619D01*
X108547619Y-92877619D02*
X108623809Y-92830000D01*
X108623809Y-92830000D02*
X108661905Y-92734761D01*
X108661905Y-92734761D02*
X108661905Y-92639523D01*
X108661905Y-92639523D02*
X108623809Y-92544285D01*
X108623809Y-92544285D02*
X108547619Y-92496666D01*
X108547619Y-92496666D02*
X108357143Y-92496666D01*
X108357143Y-92496666D02*
X108280952Y-92449047D01*
X107557142Y-92877619D02*
X107557142Y-91877619D01*
X107557142Y-92830000D02*
X107633333Y-92877619D01*
X107633333Y-92877619D02*
X107785714Y-92877619D01*
X107785714Y-92877619D02*
X107861904Y-92830000D01*
X107861904Y-92830000D02*
X107899999Y-92782380D01*
X107899999Y-92782380D02*
X107938095Y-92687142D01*
X107938095Y-92687142D02*
X107938095Y-92401428D01*
X107938095Y-92401428D02*
X107899999Y-92306190D01*
X107899999Y-92306190D02*
X107861904Y-92258571D01*
X107861904Y-92258571D02*
X107785714Y-92210952D01*
X107785714Y-92210952D02*
X107633333Y-92210952D01*
X107633333Y-92210952D02*
X107557142Y-92258571D01*
X106871427Y-92830000D02*
X106947618Y-92877619D01*
X106947618Y-92877619D02*
X107099999Y-92877619D01*
X107099999Y-92877619D02*
X107176189Y-92830000D01*
X107176189Y-92830000D02*
X107214285Y-92734761D01*
X107214285Y-92734761D02*
X107214285Y-92353809D01*
X107214285Y-92353809D02*
X107176189Y-92258571D01*
X107176189Y-92258571D02*
X107099999Y-92210952D01*
X107099999Y-92210952D02*
X106947618Y-92210952D01*
X106947618Y-92210952D02*
X106871427Y-92258571D01*
X106871427Y-92258571D02*
X106833332Y-92353809D01*
X106833332Y-92353809D02*
X106833332Y-92449047D01*
X106833332Y-92449047D02*
X107214285Y-92544285D01*
X106490475Y-92877619D02*
X106490475Y-92210952D01*
X106490475Y-91877619D02*
X106528571Y-91925238D01*
X106528571Y-91925238D02*
X106490475Y-91972857D01*
X106490475Y-91972857D02*
X106452380Y-91925238D01*
X106452380Y-91925238D02*
X106490475Y-91877619D01*
X106490475Y-91877619D02*
X106490475Y-91972857D01*
X105499999Y-92496666D02*
X104890476Y-92496666D01*
X103442856Y-92877619D02*
X103709523Y-92401428D01*
X103899999Y-92877619D02*
X103899999Y-91877619D01*
X103899999Y-91877619D02*
X103595237Y-91877619D01*
X103595237Y-91877619D02*
X103519047Y-91925238D01*
X103519047Y-91925238D02*
X103480952Y-91972857D01*
X103480952Y-91972857D02*
X103442856Y-92068095D01*
X103442856Y-92068095D02*
X103442856Y-92210952D01*
X103442856Y-92210952D02*
X103480952Y-92306190D01*
X103480952Y-92306190D02*
X103519047Y-92353809D01*
X103519047Y-92353809D02*
X103595237Y-92401428D01*
X103595237Y-92401428D02*
X103899999Y-92401428D01*
X103099999Y-92877619D02*
X103099999Y-92210952D01*
X103099999Y-91877619D02*
X103138095Y-91925238D01*
X103138095Y-91925238D02*
X103099999Y-91972857D01*
X103099999Y-91972857D02*
X103061904Y-91925238D01*
X103061904Y-91925238D02*
X103099999Y-91877619D01*
X103099999Y-91877619D02*
X103099999Y-91972857D01*
X102376190Y-92830000D02*
X102452381Y-92877619D01*
X102452381Y-92877619D02*
X102604762Y-92877619D01*
X102604762Y-92877619D02*
X102680952Y-92830000D01*
X102680952Y-92830000D02*
X102719047Y-92782380D01*
X102719047Y-92782380D02*
X102757143Y-92687142D01*
X102757143Y-92687142D02*
X102757143Y-92401428D01*
X102757143Y-92401428D02*
X102719047Y-92306190D01*
X102719047Y-92306190D02*
X102680952Y-92258571D01*
X102680952Y-92258571D02*
X102604762Y-92210952D01*
X102604762Y-92210952D02*
X102452381Y-92210952D01*
X102452381Y-92210952D02*
X102376190Y-92258571D01*
X101690476Y-92830000D02*
X101766667Y-92877619D01*
X101766667Y-92877619D02*
X101919048Y-92877619D01*
X101919048Y-92877619D02*
X101995238Y-92830000D01*
X101995238Y-92830000D02*
X102033333Y-92782380D01*
X102033333Y-92782380D02*
X102071429Y-92687142D01*
X102071429Y-92687142D02*
X102071429Y-92401428D01*
X102071429Y-92401428D02*
X102033333Y-92306190D01*
X102033333Y-92306190D02*
X101995238Y-92258571D01*
X101995238Y-92258571D02*
X101919048Y-92210952D01*
X101919048Y-92210952D02*
X101766667Y-92210952D01*
X101766667Y-92210952D02*
X101690476Y-92258571D01*
X101004762Y-92877619D02*
X101004762Y-92353809D01*
X101004762Y-92353809D02*
X101042857Y-92258571D01*
X101042857Y-92258571D02*
X101119048Y-92210952D01*
X101119048Y-92210952D02*
X101271429Y-92210952D01*
X101271429Y-92210952D02*
X101347619Y-92258571D01*
X101004762Y-92830000D02*
X101080953Y-92877619D01*
X101080953Y-92877619D02*
X101271429Y-92877619D01*
X101271429Y-92877619D02*
X101347619Y-92830000D01*
X101347619Y-92830000D02*
X101385715Y-92734761D01*
X101385715Y-92734761D02*
X101385715Y-92639523D01*
X101385715Y-92639523D02*
X101347619Y-92544285D01*
X101347619Y-92544285D02*
X101271429Y-92496666D01*
X101271429Y-92496666D02*
X101080953Y-92496666D01*
X101080953Y-92496666D02*
X101004762Y-92449047D01*
X100623809Y-92877619D02*
X100623809Y-92210952D01*
X100623809Y-92401428D02*
X100585714Y-92306190D01*
X100585714Y-92306190D02*
X100547619Y-92258571D01*
X100547619Y-92258571D02*
X100471428Y-92210952D01*
X100471428Y-92210952D02*
X100395238Y-92210952D01*
X99785714Y-92877619D02*
X99785714Y-91877619D01*
X99785714Y-92830000D02*
X99861905Y-92877619D01*
X99861905Y-92877619D02*
X100014286Y-92877619D01*
X100014286Y-92877619D02*
X100090476Y-92830000D01*
X100090476Y-92830000D02*
X100128571Y-92782380D01*
X100128571Y-92782380D02*
X100166667Y-92687142D01*
X100166667Y-92687142D02*
X100166667Y-92401428D01*
X100166667Y-92401428D02*
X100128571Y-92306190D01*
X100128571Y-92306190D02*
X100090476Y-92258571D01*
X100090476Y-92258571D02*
X100014286Y-92210952D01*
X100014286Y-92210952D02*
X99861905Y-92210952D01*
X99861905Y-92210952D02*
X99785714Y-92258571D01*
X99290476Y-92877619D02*
X99366666Y-92830000D01*
X99366666Y-92830000D02*
X99404761Y-92782380D01*
X99404761Y-92782380D02*
X99442857Y-92687142D01*
X99442857Y-92687142D02*
X99442857Y-92401428D01*
X99442857Y-92401428D02*
X99404761Y-92306190D01*
X99404761Y-92306190D02*
X99366666Y-92258571D01*
X99366666Y-92258571D02*
X99290476Y-92210952D01*
X99290476Y-92210952D02*
X99176190Y-92210952D01*
X99176190Y-92210952D02*
X99099999Y-92258571D01*
X99099999Y-92258571D02*
X99061904Y-92306190D01*
X99061904Y-92306190D02*
X99023809Y-92401428D01*
X99023809Y-92401428D02*
X99023809Y-92687142D01*
X99023809Y-92687142D02*
X99061904Y-92782380D01*
X99061904Y-92782380D02*
X99099999Y-92830000D01*
X99099999Y-92830000D02*
X99176190Y-92877619D01*
X99176190Y-92877619D02*
X99290476Y-92877619D01*
X97652380Y-91925238D02*
X97728570Y-91877619D01*
X97728570Y-91877619D02*
X97842856Y-91877619D01*
X97842856Y-91877619D02*
X97957142Y-91925238D01*
X97957142Y-91925238D02*
X98033332Y-92020476D01*
X98033332Y-92020476D02*
X98071427Y-92115714D01*
X98071427Y-92115714D02*
X98109523Y-92306190D01*
X98109523Y-92306190D02*
X98109523Y-92449047D01*
X98109523Y-92449047D02*
X98071427Y-92639523D01*
X98071427Y-92639523D02*
X98033332Y-92734761D01*
X98033332Y-92734761D02*
X97957142Y-92830000D01*
X97957142Y-92830000D02*
X97842856Y-92877619D01*
X97842856Y-92877619D02*
X97766665Y-92877619D01*
X97766665Y-92877619D02*
X97652380Y-92830000D01*
X97652380Y-92830000D02*
X97614284Y-92782380D01*
X97614284Y-92782380D02*
X97614284Y-92449047D01*
X97614284Y-92449047D02*
X97766665Y-92449047D01*
X96928570Y-92877619D02*
X96928570Y-92353809D01*
X96928570Y-92353809D02*
X96966665Y-92258571D01*
X96966665Y-92258571D02*
X97042856Y-92210952D01*
X97042856Y-92210952D02*
X97195237Y-92210952D01*
X97195237Y-92210952D02*
X97271427Y-92258571D01*
X96928570Y-92830000D02*
X97004761Y-92877619D01*
X97004761Y-92877619D02*
X97195237Y-92877619D01*
X97195237Y-92877619D02*
X97271427Y-92830000D01*
X97271427Y-92830000D02*
X97309523Y-92734761D01*
X97309523Y-92734761D02*
X97309523Y-92639523D01*
X97309523Y-92639523D02*
X97271427Y-92544285D01*
X97271427Y-92544285D02*
X97195237Y-92496666D01*
X97195237Y-92496666D02*
X97004761Y-92496666D01*
X97004761Y-92496666D02*
X96928570Y-92449047D01*
X96585713Y-92830000D02*
X96509522Y-92877619D01*
X96509522Y-92877619D02*
X96357141Y-92877619D01*
X96357141Y-92877619D02*
X96280951Y-92830000D01*
X96280951Y-92830000D02*
X96242855Y-92734761D01*
X96242855Y-92734761D02*
X96242855Y-92687142D01*
X96242855Y-92687142D02*
X96280951Y-92591904D01*
X96280951Y-92591904D02*
X96357141Y-92544285D01*
X96357141Y-92544285D02*
X96471427Y-92544285D01*
X96471427Y-92544285D02*
X96547617Y-92496666D01*
X96547617Y-92496666D02*
X96585713Y-92401428D01*
X96585713Y-92401428D02*
X96585713Y-92353809D01*
X96585713Y-92353809D02*
X96547617Y-92258571D01*
X96547617Y-92258571D02*
X96471427Y-92210952D01*
X96471427Y-92210952D02*
X96357141Y-92210952D01*
X96357141Y-92210952D02*
X96280951Y-92258571D01*
X95899998Y-92210952D02*
X95899998Y-93210952D01*
X95899998Y-92258571D02*
X95823808Y-92210952D01*
X95823808Y-92210952D02*
X95671427Y-92210952D01*
X95671427Y-92210952D02*
X95595236Y-92258571D01*
X95595236Y-92258571D02*
X95557141Y-92306190D01*
X95557141Y-92306190D02*
X95519046Y-92401428D01*
X95519046Y-92401428D02*
X95519046Y-92687142D01*
X95519046Y-92687142D02*
X95557141Y-92782380D01*
X95557141Y-92782380D02*
X95595236Y-92830000D01*
X95595236Y-92830000D02*
X95671427Y-92877619D01*
X95671427Y-92877619D02*
X95823808Y-92877619D01*
X95823808Y-92877619D02*
X95899998Y-92830000D01*
X94833331Y-92877619D02*
X94833331Y-92353809D01*
X94833331Y-92353809D02*
X94871426Y-92258571D01*
X94871426Y-92258571D02*
X94947617Y-92210952D01*
X94947617Y-92210952D02*
X95099998Y-92210952D01*
X95099998Y-92210952D02*
X95176188Y-92258571D01*
X94833331Y-92830000D02*
X94909522Y-92877619D01*
X94909522Y-92877619D02*
X95099998Y-92877619D01*
X95099998Y-92877619D02*
X95176188Y-92830000D01*
X95176188Y-92830000D02*
X95214284Y-92734761D01*
X95214284Y-92734761D02*
X95214284Y-92639523D01*
X95214284Y-92639523D02*
X95176188Y-92544285D01*
X95176188Y-92544285D02*
X95099998Y-92496666D01*
X95099998Y-92496666D02*
X94909522Y-92496666D01*
X94909522Y-92496666D02*
X94833331Y-92449047D01*
X94452378Y-92877619D02*
X94452378Y-92210952D01*
X94452378Y-92401428D02*
X94414283Y-92306190D01*
X94414283Y-92306190D02*
X94376188Y-92258571D01*
X94376188Y-92258571D02*
X94299997Y-92210952D01*
X94299997Y-92210952D02*
X94223807Y-92210952D01*
X93957140Y-92877619D02*
X93957140Y-92210952D01*
X93957140Y-91877619D02*
X93995236Y-91925238D01*
X93995236Y-91925238D02*
X93957140Y-91972857D01*
X93957140Y-91972857D02*
X93919045Y-91925238D01*
X93919045Y-91925238D02*
X93957140Y-91877619D01*
X93957140Y-91877619D02*
X93957140Y-91972857D01*
X92966664Y-92496666D02*
X92357141Y-92496666D01*
X91366664Y-92877619D02*
X91366664Y-91877619D01*
X91366664Y-91877619D02*
X91099998Y-92591904D01*
X91099998Y-92591904D02*
X90833331Y-91877619D01*
X90833331Y-91877619D02*
X90833331Y-92877619D01*
X90109521Y-92877619D02*
X90109521Y-92353809D01*
X90109521Y-92353809D02*
X90147616Y-92258571D01*
X90147616Y-92258571D02*
X90223807Y-92210952D01*
X90223807Y-92210952D02*
X90376188Y-92210952D01*
X90376188Y-92210952D02*
X90452378Y-92258571D01*
X90109521Y-92830000D02*
X90185712Y-92877619D01*
X90185712Y-92877619D02*
X90376188Y-92877619D01*
X90376188Y-92877619D02*
X90452378Y-92830000D01*
X90452378Y-92830000D02*
X90490474Y-92734761D01*
X90490474Y-92734761D02*
X90490474Y-92639523D01*
X90490474Y-92639523D02*
X90452378Y-92544285D01*
X90452378Y-92544285D02*
X90376188Y-92496666D01*
X90376188Y-92496666D02*
X90185712Y-92496666D01*
X90185712Y-92496666D02*
X90109521Y-92449047D01*
X89842854Y-92210952D02*
X89538092Y-92210952D01*
X89728568Y-91877619D02*
X89728568Y-92734761D01*
X89728568Y-92734761D02*
X89690473Y-92830000D01*
X89690473Y-92830000D02*
X89614283Y-92877619D01*
X89614283Y-92877619D02*
X89538092Y-92877619D01*
X89385711Y-92210952D02*
X89080949Y-92210952D01*
X89271425Y-91877619D02*
X89271425Y-92734761D01*
X89271425Y-92734761D02*
X89233330Y-92830000D01*
X89233330Y-92830000D02*
X89157140Y-92877619D01*
X89157140Y-92877619D02*
X89080949Y-92877619D01*
X88509520Y-92830000D02*
X88585711Y-92877619D01*
X88585711Y-92877619D02*
X88738092Y-92877619D01*
X88738092Y-92877619D02*
X88814282Y-92830000D01*
X88814282Y-92830000D02*
X88852378Y-92734761D01*
X88852378Y-92734761D02*
X88852378Y-92353809D01*
X88852378Y-92353809D02*
X88814282Y-92258571D01*
X88814282Y-92258571D02*
X88738092Y-92210952D01*
X88738092Y-92210952D02*
X88585711Y-92210952D01*
X88585711Y-92210952D02*
X88509520Y-92258571D01*
X88509520Y-92258571D02*
X88471425Y-92353809D01*
X88471425Y-92353809D02*
X88471425Y-92449047D01*
X88471425Y-92449047D02*
X88852378Y-92544285D01*
X88014283Y-92877619D02*
X88090473Y-92830000D01*
X88090473Y-92830000D02*
X88128568Y-92782380D01*
X88128568Y-92782380D02*
X88166664Y-92687142D01*
X88166664Y-92687142D02*
X88166664Y-92401428D01*
X88166664Y-92401428D02*
X88128568Y-92306190D01*
X88128568Y-92306190D02*
X88090473Y-92258571D01*
X88090473Y-92258571D02*
X88014283Y-92210952D01*
X88014283Y-92210952D02*
X87899997Y-92210952D01*
X87899997Y-92210952D02*
X87823806Y-92258571D01*
X87823806Y-92258571D02*
X87785711Y-92306190D01*
X87785711Y-92306190D02*
X87747616Y-92401428D01*
X87747616Y-92401428D02*
X87747616Y-92687142D01*
X87747616Y-92687142D02*
X87785711Y-92782380D01*
X87785711Y-92782380D02*
X87823806Y-92830000D01*
X87823806Y-92830000D02*
X87899997Y-92877619D01*
X87899997Y-92877619D02*
X88014283Y-92877619D01*
X86528568Y-92353809D02*
X86795234Y-92353809D01*
X86795234Y-92877619D02*
X86795234Y-91877619D01*
X86795234Y-91877619D02*
X86414282Y-91877619D01*
X86109520Y-92877619D02*
X86109520Y-92210952D01*
X86109520Y-92401428D02*
X86071425Y-92306190D01*
X86071425Y-92306190D02*
X86033330Y-92258571D01*
X86033330Y-92258571D02*
X85957139Y-92210952D01*
X85957139Y-92210952D02*
X85880949Y-92210952D01*
X85271425Y-92877619D02*
X85271425Y-92353809D01*
X85271425Y-92353809D02*
X85309520Y-92258571D01*
X85309520Y-92258571D02*
X85385711Y-92210952D01*
X85385711Y-92210952D02*
X85538092Y-92210952D01*
X85538092Y-92210952D02*
X85614282Y-92258571D01*
X85271425Y-92830000D02*
X85347616Y-92877619D01*
X85347616Y-92877619D02*
X85538092Y-92877619D01*
X85538092Y-92877619D02*
X85614282Y-92830000D01*
X85614282Y-92830000D02*
X85652378Y-92734761D01*
X85652378Y-92734761D02*
X85652378Y-92639523D01*
X85652378Y-92639523D02*
X85614282Y-92544285D01*
X85614282Y-92544285D02*
X85538092Y-92496666D01*
X85538092Y-92496666D02*
X85347616Y-92496666D01*
X85347616Y-92496666D02*
X85271425Y-92449047D01*
X84890472Y-92210952D02*
X84890472Y-92877619D01*
X84890472Y-92306190D02*
X84852377Y-92258571D01*
X84852377Y-92258571D02*
X84776187Y-92210952D01*
X84776187Y-92210952D02*
X84661901Y-92210952D01*
X84661901Y-92210952D02*
X84585710Y-92258571D01*
X84585710Y-92258571D02*
X84547615Y-92353809D01*
X84547615Y-92353809D02*
X84547615Y-92877619D01*
X83823805Y-92830000D02*
X83899996Y-92877619D01*
X83899996Y-92877619D02*
X84052377Y-92877619D01*
X84052377Y-92877619D02*
X84128567Y-92830000D01*
X84128567Y-92830000D02*
X84166662Y-92782380D01*
X84166662Y-92782380D02*
X84204758Y-92687142D01*
X84204758Y-92687142D02*
X84204758Y-92401428D01*
X84204758Y-92401428D02*
X84166662Y-92306190D01*
X84166662Y-92306190D02*
X84128567Y-92258571D01*
X84128567Y-92258571D02*
X84052377Y-92210952D01*
X84052377Y-92210952D02*
X83899996Y-92210952D01*
X83899996Y-92210952D02*
X83823805Y-92258571D01*
X83480948Y-92877619D02*
X83480948Y-91877619D01*
X83138091Y-92877619D02*
X83138091Y-92353809D01*
X83138091Y-92353809D02*
X83176186Y-92258571D01*
X83176186Y-92258571D02*
X83252377Y-92210952D01*
X83252377Y-92210952D02*
X83366663Y-92210952D01*
X83366663Y-92210952D02*
X83442853Y-92258571D01*
X83442853Y-92258571D02*
X83480948Y-92306190D01*
X82757138Y-92877619D02*
X82757138Y-92210952D01*
X82757138Y-91877619D02*
X82795234Y-91925238D01*
X82795234Y-91925238D02*
X82757138Y-91972857D01*
X82757138Y-91972857D02*
X82719043Y-91925238D01*
X82719043Y-91925238D02*
X82757138Y-91877619D01*
X82757138Y-91877619D02*
X82757138Y-91972857D01*
X93476190Y-44377619D02*
X93476190Y-45091904D01*
X93476190Y-45091904D02*
X93523809Y-45234761D01*
X93523809Y-45234761D02*
X93619047Y-45330000D01*
X93619047Y-45330000D02*
X93761904Y-45377619D01*
X93761904Y-45377619D02*
X93857142Y-45377619D01*
X92523809Y-45377619D02*
X92999999Y-45377619D01*
X92999999Y-45377619D02*
X92999999Y-44377619D01*
X91619047Y-45282380D02*
X91666666Y-45330000D01*
X91666666Y-45330000D02*
X91809523Y-45377619D01*
X91809523Y-45377619D02*
X91904761Y-45377619D01*
X91904761Y-45377619D02*
X92047618Y-45330000D01*
X92047618Y-45330000D02*
X92142856Y-45234761D01*
X92142856Y-45234761D02*
X92190475Y-45139523D01*
X92190475Y-45139523D02*
X92238094Y-44949047D01*
X92238094Y-44949047D02*
X92238094Y-44806190D01*
X92238094Y-44806190D02*
X92190475Y-44615714D01*
X92190475Y-44615714D02*
X92142856Y-44520476D01*
X92142856Y-44520476D02*
X92047618Y-44425238D01*
X92047618Y-44425238D02*
X91904761Y-44377619D01*
X91904761Y-44377619D02*
X91809523Y-44377619D01*
X91809523Y-44377619D02*
X91666666Y-44425238D01*
X91666666Y-44425238D02*
X91619047Y-44472857D01*
X90904761Y-44377619D02*
X90904761Y-45091904D01*
X90904761Y-45091904D02*
X90952380Y-45234761D01*
X90952380Y-45234761D02*
X91047618Y-45330000D01*
X91047618Y-45330000D02*
X91190475Y-45377619D01*
X91190475Y-45377619D02*
X91285713Y-45377619D01*
X89952380Y-45377619D02*
X90428570Y-45377619D01*
X90428570Y-45377619D02*
X90428570Y-44377619D01*
X89047618Y-45282380D02*
X89095237Y-45330000D01*
X89095237Y-45330000D02*
X89238094Y-45377619D01*
X89238094Y-45377619D02*
X89333332Y-45377619D01*
X89333332Y-45377619D02*
X89476189Y-45330000D01*
X89476189Y-45330000D02*
X89571427Y-45234761D01*
X89571427Y-45234761D02*
X89619046Y-45139523D01*
X89619046Y-45139523D02*
X89666665Y-44949047D01*
X89666665Y-44949047D02*
X89666665Y-44806190D01*
X89666665Y-44806190D02*
X89619046Y-44615714D01*
X89619046Y-44615714D02*
X89571427Y-44520476D01*
X89571427Y-44520476D02*
X89476189Y-44425238D01*
X89476189Y-44425238D02*
X89333332Y-44377619D01*
X89333332Y-44377619D02*
X89238094Y-44377619D01*
X89238094Y-44377619D02*
X89095237Y-44425238D01*
X89095237Y-44425238D02*
X89047618Y-44472857D01*
X88333332Y-44377619D02*
X88333332Y-45091904D01*
X88333332Y-45091904D02*
X88380951Y-45234761D01*
X88380951Y-45234761D02*
X88476189Y-45330000D01*
X88476189Y-45330000D02*
X88619046Y-45377619D01*
X88619046Y-45377619D02*
X88714284Y-45377619D01*
X87380951Y-45377619D02*
X87857141Y-45377619D01*
X87857141Y-45377619D02*
X87857141Y-44377619D01*
X86476189Y-45282380D02*
X86523808Y-45330000D01*
X86523808Y-45330000D02*
X86666665Y-45377619D01*
X86666665Y-45377619D02*
X86761903Y-45377619D01*
X86761903Y-45377619D02*
X86904760Y-45330000D01*
X86904760Y-45330000D02*
X86999998Y-45234761D01*
X86999998Y-45234761D02*
X87047617Y-45139523D01*
X87047617Y-45139523D02*
X87095236Y-44949047D01*
X87095236Y-44949047D02*
X87095236Y-44806190D01*
X87095236Y-44806190D02*
X87047617Y-44615714D01*
X87047617Y-44615714D02*
X86999998Y-44520476D01*
X86999998Y-44520476D02*
X86904760Y-44425238D01*
X86904760Y-44425238D02*
X86761903Y-44377619D01*
X86761903Y-44377619D02*
X86666665Y-44377619D01*
X86666665Y-44377619D02*
X86523808Y-44425238D01*
X86523808Y-44425238D02*
X86476189Y-44472857D01*
X85761903Y-44377619D02*
X85761903Y-45091904D01*
X85761903Y-45091904D02*
X85809522Y-45234761D01*
X85809522Y-45234761D02*
X85904760Y-45330000D01*
X85904760Y-45330000D02*
X86047617Y-45377619D01*
X86047617Y-45377619D02*
X86142855Y-45377619D01*
X84809522Y-45377619D02*
X85285712Y-45377619D01*
X85285712Y-45377619D02*
X85285712Y-44377619D01*
X83904760Y-45282380D02*
X83952379Y-45330000D01*
X83952379Y-45330000D02*
X84095236Y-45377619D01*
X84095236Y-45377619D02*
X84190474Y-45377619D01*
X84190474Y-45377619D02*
X84333331Y-45330000D01*
X84333331Y-45330000D02*
X84428569Y-45234761D01*
X84428569Y-45234761D02*
X84476188Y-45139523D01*
X84476188Y-45139523D02*
X84523807Y-44949047D01*
X84523807Y-44949047D02*
X84523807Y-44806190D01*
X84523807Y-44806190D02*
X84476188Y-44615714D01*
X84476188Y-44615714D02*
X84428569Y-44520476D01*
X84428569Y-44520476D02*
X84333331Y-44425238D01*
X84333331Y-44425238D02*
X84190474Y-44377619D01*
X84190474Y-44377619D02*
X84095236Y-44377619D01*
X84095236Y-44377619D02*
X83952379Y-44425238D01*
X83952379Y-44425238D02*
X83904760Y-44472857D01*
M02*
